G04 EAGLE Gerber RS-274X export*
G75*
%MOMM*%
%FSLAX34Y34*%
%LPD*%
%INTop Copper*%
%IPPOS*%
%AMOC8*
5,1,8,0,0,1.08239X$1,22.5*%
G01*
%ADD10R,0.800000X1.800000*%
%ADD11R,1.400000X2.000000*%
%ADD12R,1.400000X2.200000*%
%ADD13R,1.800000X1.400000*%
%ADD14R,1.300000X0.600000*%
%ADD15R,1.800000X2.000000*%
%ADD16R,1.200000X0.800000*%
%ADD17R,0.800000X0.650000*%
%ADD18C,0.756400*%
%ADD19C,0.203200*%
%ADD20C,0.706400*%
%ADD21C,0.956400*%
%ADD22C,0.304800*%
%ADD23C,0.609600*%
%ADD24C,0.406400*%
%ADD25C,0.508000*%

G36*
X18282Y148004D02*
X18282Y148004D01*
X18301Y148002D01*
X18403Y148024D01*
X18505Y148041D01*
X18522Y148050D01*
X18542Y148054D01*
X18631Y148107D01*
X18722Y148156D01*
X18736Y148170D01*
X18753Y148180D01*
X18820Y148259D01*
X18891Y148334D01*
X18900Y148352D01*
X18913Y148367D01*
X18952Y148463D01*
X18995Y148557D01*
X18997Y148577D01*
X19005Y148595D01*
X19023Y148762D01*
X19023Y160541D01*
X24834Y160541D01*
X25517Y160358D01*
X25636Y160346D01*
X25753Y160333D01*
X25758Y160334D01*
X25762Y160333D01*
X25877Y160360D01*
X25994Y160385D01*
X25997Y160387D01*
X26001Y160388D01*
X26103Y160450D01*
X26205Y160511D01*
X26208Y160515D01*
X26211Y160517D01*
X26287Y160607D01*
X26365Y160698D01*
X26366Y160702D01*
X26369Y160705D01*
X26412Y160815D01*
X26457Y160926D01*
X26457Y160931D01*
X26459Y160934D01*
X26459Y160948D01*
X26475Y161093D01*
X26475Y163632D01*
X27368Y164525D01*
X28698Y164525D01*
X28718Y164528D01*
X28737Y164526D01*
X28839Y164548D01*
X28941Y164564D01*
X28958Y164574D01*
X28978Y164578D01*
X29067Y164631D01*
X29158Y164680D01*
X29172Y164694D01*
X29189Y164704D01*
X29256Y164783D01*
X29328Y164858D01*
X29336Y164876D01*
X29349Y164891D01*
X29388Y164987D01*
X29431Y165081D01*
X29433Y165101D01*
X29441Y165119D01*
X29459Y165286D01*
X29459Y171632D01*
X29445Y171722D01*
X29437Y171813D01*
X29425Y171843D01*
X29420Y171875D01*
X29377Y171956D01*
X29341Y172040D01*
X29315Y172072D01*
X29304Y172092D01*
X29281Y172115D01*
X29236Y172171D01*
X22959Y178448D01*
X22959Y213552D01*
X24671Y215264D01*
X36560Y227153D01*
X36946Y227539D01*
X36988Y227597D01*
X37037Y227649D01*
X37059Y227697D01*
X37090Y227739D01*
X37111Y227807D01*
X37141Y227873D01*
X37147Y227924D01*
X37162Y227974D01*
X37160Y228046D01*
X37168Y228117D01*
X37157Y228168D01*
X37156Y228220D01*
X37131Y228287D01*
X37116Y228357D01*
X37089Y228402D01*
X37071Y228451D01*
X37026Y228507D01*
X36990Y228568D01*
X36950Y228602D01*
X36918Y228643D01*
X36857Y228682D01*
X36803Y228728D01*
X36754Y228748D01*
X36711Y228776D01*
X36641Y228793D01*
X36575Y228820D01*
X36503Y228828D01*
X36472Y228836D01*
X36449Y228834D01*
X36408Y228839D01*
X33490Y228839D01*
X26814Y231008D01*
X21134Y235134D01*
X17008Y240814D01*
X14839Y247490D01*
X14839Y374510D01*
X17008Y381186D01*
X21134Y386866D01*
X26814Y390992D01*
X33490Y393161D01*
X41510Y393161D01*
X48186Y390992D01*
X53866Y386866D01*
X57992Y381186D01*
X60161Y374510D01*
X60161Y247490D01*
X57992Y240814D01*
X53866Y235134D01*
X48186Y231008D01*
X46159Y230349D01*
X46156Y230348D01*
X46152Y230347D01*
X46047Y230292D01*
X45941Y230237D01*
X45938Y230234D01*
X45935Y230232D01*
X45853Y230146D01*
X45770Y230060D01*
X45768Y230056D01*
X45765Y230054D01*
X45715Y229945D01*
X45664Y229838D01*
X45663Y229834D01*
X45662Y229830D01*
X45648Y229713D01*
X45634Y229594D01*
X45635Y229590D01*
X45634Y229586D01*
X45660Y229469D01*
X45684Y229353D01*
X45686Y229350D01*
X45687Y229346D01*
X45748Y229242D01*
X45808Y229141D01*
X45811Y229138D01*
X45813Y229135D01*
X45904Y229056D01*
X45993Y228979D01*
X45997Y228977D01*
X46000Y228975D01*
X46112Y228930D01*
X46220Y228884D01*
X46224Y228884D01*
X46228Y228883D01*
X46395Y228864D01*
X67456Y228864D01*
X67546Y228879D01*
X67637Y228886D01*
X67667Y228899D01*
X67699Y228904D01*
X67779Y228947D01*
X67863Y228982D01*
X67895Y229008D01*
X67916Y229019D01*
X67938Y229042D01*
X67994Y229087D01*
X72448Y233541D01*
X99132Y233541D01*
X99222Y233555D01*
X99313Y233563D01*
X99343Y233575D01*
X99375Y233580D01*
X99456Y233623D01*
X99540Y233659D01*
X99572Y233685D01*
X99592Y233696D01*
X99615Y233719D01*
X99671Y233764D01*
X108736Y242829D01*
X108789Y242903D01*
X108849Y242973D01*
X108861Y243003D01*
X108880Y243029D01*
X108907Y243116D01*
X108941Y243201D01*
X108945Y243242D01*
X108952Y243264D01*
X108951Y243296D01*
X108959Y243368D01*
X108959Y257052D01*
X129448Y277541D01*
X146632Y277541D01*
X146722Y277555D01*
X146813Y277563D01*
X146843Y277575D01*
X146875Y277580D01*
X146956Y277623D01*
X147040Y277659D01*
X147072Y277685D01*
X147092Y277696D01*
X147115Y277719D01*
X147171Y277764D01*
X157948Y288541D01*
X168714Y288541D01*
X168734Y288544D01*
X168753Y288542D01*
X168855Y288564D01*
X168957Y288580D01*
X168974Y288590D01*
X168994Y288594D01*
X169083Y288647D01*
X169174Y288696D01*
X169188Y288710D01*
X169205Y288720D01*
X169272Y288799D01*
X169344Y288874D01*
X169352Y288892D01*
X169365Y288907D01*
X169404Y289003D01*
X169447Y289097D01*
X169449Y289117D01*
X169457Y289135D01*
X169475Y289302D01*
X169475Y290132D01*
X170305Y290962D01*
X170317Y290978D01*
X170333Y290990D01*
X170389Y291078D01*
X170449Y291161D01*
X170455Y291180D01*
X170466Y291197D01*
X170491Y291298D01*
X170521Y291397D01*
X170521Y291416D01*
X170526Y291436D01*
X170518Y291539D01*
X170515Y291642D01*
X170508Y291661D01*
X170507Y291681D01*
X170466Y291776D01*
X170431Y291873D01*
X170418Y291889D01*
X170410Y291907D01*
X170305Y292038D01*
X169475Y292868D01*
X169475Y293198D01*
X169472Y293218D01*
X169474Y293237D01*
X169452Y293339D01*
X169436Y293441D01*
X169426Y293458D01*
X169422Y293478D01*
X169369Y293567D01*
X169320Y293658D01*
X169306Y293672D01*
X169296Y293689D01*
X169217Y293756D01*
X169142Y293828D01*
X169124Y293836D01*
X169109Y293849D01*
X169013Y293888D01*
X168919Y293931D01*
X168899Y293933D01*
X168881Y293941D01*
X168714Y293959D01*
X153368Y293959D01*
X153278Y293945D01*
X153187Y293937D01*
X153157Y293925D01*
X153125Y293920D01*
X153044Y293877D01*
X152960Y293841D01*
X152928Y293815D01*
X152908Y293804D01*
X152885Y293781D01*
X152829Y293736D01*
X145552Y286459D01*
X124368Y286459D01*
X124278Y286445D01*
X124187Y286437D01*
X124157Y286425D01*
X124125Y286420D01*
X124044Y286377D01*
X123960Y286341D01*
X123928Y286315D01*
X123908Y286304D01*
X123885Y286281D01*
X123829Y286236D01*
X105780Y268187D01*
X105727Y268113D01*
X105667Y268043D01*
X105655Y268013D01*
X105636Y267987D01*
X105609Y267900D01*
X105575Y267815D01*
X105571Y267774D01*
X105564Y267752D01*
X105565Y267720D01*
X105557Y267648D01*
X105557Y263405D01*
X102595Y260443D01*
X98405Y260443D01*
X95443Y263405D01*
X95443Y267595D01*
X98405Y270557D01*
X100648Y270557D01*
X100738Y270571D01*
X100829Y270579D01*
X100859Y270591D01*
X100891Y270596D01*
X100972Y270639D01*
X101056Y270675D01*
X101088Y270701D01*
X101108Y270712D01*
X101131Y270735D01*
X101187Y270780D01*
X121948Y291541D01*
X143132Y291541D01*
X143222Y291555D01*
X143313Y291563D01*
X143343Y291575D01*
X143375Y291580D01*
X143456Y291623D01*
X143540Y291659D01*
X143572Y291685D01*
X143592Y291696D01*
X143615Y291719D01*
X143671Y291764D01*
X150948Y299041D01*
X168714Y299041D01*
X168734Y299044D01*
X168753Y299042D01*
X168855Y299064D01*
X168957Y299080D01*
X168974Y299090D01*
X168994Y299094D01*
X169083Y299147D01*
X169174Y299196D01*
X169188Y299210D01*
X169205Y299220D01*
X169272Y299299D01*
X169344Y299374D01*
X169352Y299392D01*
X169365Y299407D01*
X169404Y299503D01*
X169447Y299597D01*
X169449Y299617D01*
X169457Y299635D01*
X169475Y299802D01*
X169475Y300132D01*
X170305Y300962D01*
X170317Y300978D01*
X170333Y300990D01*
X170389Y301078D01*
X170449Y301161D01*
X170455Y301180D01*
X170466Y301197D01*
X170491Y301298D01*
X170521Y301397D01*
X170521Y301416D01*
X170526Y301436D01*
X170518Y301539D01*
X170515Y301642D01*
X170508Y301661D01*
X170507Y301681D01*
X170466Y301776D01*
X170431Y301873D01*
X170418Y301889D01*
X170410Y301907D01*
X170305Y302038D01*
X169475Y302868D01*
X169475Y303198D01*
X169472Y303218D01*
X169474Y303237D01*
X169452Y303339D01*
X169436Y303441D01*
X169426Y303458D01*
X169422Y303478D01*
X169369Y303567D01*
X169320Y303658D01*
X169306Y303672D01*
X169296Y303689D01*
X169217Y303756D01*
X169142Y303828D01*
X169124Y303836D01*
X169109Y303849D01*
X169013Y303888D01*
X168919Y303931D01*
X168899Y303933D01*
X168881Y303941D01*
X168714Y303959D01*
X127926Y303959D01*
X127836Y303945D01*
X127745Y303937D01*
X127715Y303925D01*
X127683Y303920D01*
X127602Y303877D01*
X127519Y303841D01*
X127486Y303815D01*
X127466Y303804D01*
X127444Y303781D01*
X127388Y303736D01*
X124595Y300943D01*
X120405Y300943D01*
X117443Y303905D01*
X117443Y308095D01*
X120405Y311057D01*
X124595Y311057D01*
X126388Y309264D01*
X126462Y309211D01*
X126531Y309151D01*
X126561Y309139D01*
X126587Y309120D01*
X126674Y309093D01*
X126759Y309059D01*
X126800Y309055D01*
X126822Y309048D01*
X126855Y309049D01*
X126926Y309041D01*
X168714Y309041D01*
X168734Y309044D01*
X168753Y309042D01*
X168855Y309064D01*
X168957Y309080D01*
X168974Y309090D01*
X168994Y309094D01*
X169083Y309147D01*
X169174Y309196D01*
X169188Y309210D01*
X169205Y309220D01*
X169272Y309299D01*
X169344Y309374D01*
X169352Y309392D01*
X169365Y309407D01*
X169404Y309503D01*
X169447Y309597D01*
X169449Y309617D01*
X169457Y309635D01*
X169475Y309802D01*
X169475Y310132D01*
X170305Y310962D01*
X170317Y310978D01*
X170333Y310990D01*
X170389Y311078D01*
X170449Y311161D01*
X170455Y311180D01*
X170466Y311197D01*
X170491Y311298D01*
X170521Y311397D01*
X170521Y311416D01*
X170526Y311436D01*
X170518Y311538D01*
X170515Y311642D01*
X170508Y311661D01*
X170507Y311681D01*
X170466Y311776D01*
X170431Y311873D01*
X170418Y311889D01*
X170410Y311907D01*
X170305Y312038D01*
X169475Y312868D01*
X169475Y313198D01*
X169472Y313218D01*
X169474Y313237D01*
X169452Y313339D01*
X169436Y313441D01*
X169426Y313458D01*
X169422Y313478D01*
X169369Y313567D01*
X169320Y313658D01*
X169306Y313672D01*
X169296Y313689D01*
X169217Y313756D01*
X169142Y313828D01*
X169124Y313836D01*
X169109Y313849D01*
X169013Y313888D01*
X168919Y313931D01*
X168899Y313933D01*
X168881Y313941D01*
X168714Y313959D01*
X155448Y313959D01*
X152671Y316736D01*
X152597Y316789D01*
X152527Y316849D01*
X152497Y316861D01*
X152471Y316880D01*
X152384Y316907D01*
X152299Y316941D01*
X152258Y316945D01*
X152236Y316952D01*
X152204Y316951D01*
X152132Y316959D01*
X131948Y316959D01*
X128709Y320198D01*
X128709Y320824D01*
X128695Y320914D01*
X128687Y321005D01*
X128675Y321035D01*
X128670Y321067D01*
X128627Y321148D01*
X128591Y321231D01*
X128565Y321264D01*
X128554Y321284D01*
X128531Y321306D01*
X128486Y321362D01*
X126193Y323655D01*
X126193Y327845D01*
X129155Y330807D01*
X133345Y330807D01*
X136307Y327845D01*
X136307Y323655D01*
X135992Y323340D01*
X135950Y323282D01*
X135900Y323230D01*
X135878Y323183D01*
X135848Y323141D01*
X135827Y323072D01*
X135797Y323007D01*
X135791Y322955D01*
X135776Y322905D01*
X135778Y322834D01*
X135770Y322763D01*
X135781Y322712D01*
X135782Y322660D01*
X135807Y322592D01*
X135822Y322522D01*
X135849Y322477D01*
X135866Y322429D01*
X135911Y322373D01*
X135948Y322311D01*
X135988Y322277D01*
X136020Y322237D01*
X136080Y322198D01*
X136135Y322151D01*
X136183Y322132D01*
X136227Y322104D01*
X136296Y322086D01*
X136363Y322059D01*
X136434Y322051D01*
X136466Y322043D01*
X136489Y322045D01*
X136530Y322041D01*
X154552Y322041D01*
X157329Y319264D01*
X157403Y319211D01*
X157473Y319151D01*
X157503Y319139D01*
X157529Y319120D01*
X157616Y319093D01*
X157701Y319059D01*
X157742Y319055D01*
X157764Y319048D01*
X157796Y319049D01*
X157868Y319041D01*
X168714Y319041D01*
X168734Y319044D01*
X168753Y319042D01*
X168855Y319064D01*
X168957Y319080D01*
X168974Y319090D01*
X168994Y319094D01*
X169083Y319147D01*
X169174Y319196D01*
X169188Y319210D01*
X169205Y319220D01*
X169272Y319299D01*
X169344Y319374D01*
X169352Y319392D01*
X169365Y319407D01*
X169404Y319503D01*
X169447Y319597D01*
X169449Y319617D01*
X169457Y319635D01*
X169475Y319802D01*
X169475Y320132D01*
X170305Y320962D01*
X170317Y320978D01*
X170333Y320990D01*
X170389Y321078D01*
X170449Y321161D01*
X170455Y321180D01*
X170466Y321197D01*
X170491Y321298D01*
X170521Y321397D01*
X170521Y321416D01*
X170526Y321436D01*
X170518Y321539D01*
X170515Y321642D01*
X170508Y321661D01*
X170507Y321681D01*
X170466Y321776D01*
X170431Y321873D01*
X170418Y321889D01*
X170410Y321907D01*
X170305Y322038D01*
X169475Y322868D01*
X169475Y323198D01*
X169472Y323218D01*
X169474Y323237D01*
X169452Y323339D01*
X169436Y323441D01*
X169426Y323458D01*
X169422Y323478D01*
X169369Y323567D01*
X169320Y323658D01*
X169306Y323672D01*
X169296Y323689D01*
X169217Y323756D01*
X169142Y323828D01*
X169124Y323836D01*
X169109Y323849D01*
X169013Y323888D01*
X168919Y323931D01*
X168899Y323933D01*
X168881Y323941D01*
X168714Y323959D01*
X161948Y323959D01*
X150567Y335340D01*
X150551Y335351D01*
X150539Y335367D01*
X150452Y335423D01*
X150368Y335483D01*
X150349Y335489D01*
X150332Y335500D01*
X150231Y335525D01*
X150133Y335555D01*
X150113Y335555D01*
X150093Y335560D01*
X149990Y335552D01*
X149887Y335549D01*
X149868Y335542D01*
X149848Y335541D01*
X149753Y335500D01*
X149656Y335465D01*
X149640Y335452D01*
X149622Y335444D01*
X149491Y335340D01*
X148595Y334443D01*
X144405Y334443D01*
X141443Y337405D01*
X141443Y341595D01*
X144405Y344557D01*
X148595Y344557D01*
X151651Y341500D01*
X151675Y341444D01*
X151701Y341412D01*
X151712Y341392D01*
X151735Y341369D01*
X151780Y341313D01*
X163829Y329264D01*
X163903Y329211D01*
X163973Y329151D01*
X164003Y329139D01*
X164029Y329120D01*
X164116Y329093D01*
X164201Y329059D01*
X164242Y329055D01*
X164264Y329048D01*
X164296Y329049D01*
X164368Y329041D01*
X168714Y329041D01*
X168734Y329044D01*
X168753Y329042D01*
X168855Y329064D01*
X168957Y329080D01*
X168974Y329090D01*
X168994Y329094D01*
X169083Y329147D01*
X169174Y329196D01*
X169188Y329210D01*
X169205Y329220D01*
X169272Y329299D01*
X169344Y329374D01*
X169352Y329392D01*
X169365Y329407D01*
X169404Y329503D01*
X169447Y329597D01*
X169449Y329617D01*
X169457Y329635D01*
X169475Y329802D01*
X169475Y330132D01*
X170305Y330962D01*
X170317Y330978D01*
X170333Y330990D01*
X170389Y331078D01*
X170449Y331161D01*
X170455Y331180D01*
X170466Y331197D01*
X170491Y331298D01*
X170521Y331397D01*
X170521Y331416D01*
X170526Y331436D01*
X170518Y331539D01*
X170515Y331642D01*
X170508Y331661D01*
X170507Y331681D01*
X170466Y331776D01*
X170431Y331873D01*
X170418Y331889D01*
X170410Y331907D01*
X170305Y332038D01*
X169475Y332868D01*
X169475Y340132D01*
X170305Y340962D01*
X170317Y340978D01*
X170333Y340990D01*
X170389Y341078D01*
X170449Y341161D01*
X170455Y341180D01*
X170466Y341197D01*
X170491Y341298D01*
X170521Y341397D01*
X170521Y341416D01*
X170526Y341436D01*
X170518Y341539D01*
X170515Y341642D01*
X170508Y341661D01*
X170507Y341681D01*
X170466Y341776D01*
X170431Y341873D01*
X170418Y341889D01*
X170410Y341907D01*
X170305Y342038D01*
X170131Y342212D01*
X170057Y342265D01*
X169988Y342325D01*
X169958Y342337D01*
X169932Y342356D01*
X169845Y342383D01*
X169760Y342417D01*
X169719Y342421D01*
X169697Y342428D01*
X169664Y342427D01*
X169593Y342435D01*
X162816Y342435D01*
X151435Y353816D01*
X151435Y359330D01*
X151421Y359420D01*
X151413Y359511D01*
X151401Y359541D01*
X151396Y359573D01*
X151353Y359654D01*
X151317Y359738D01*
X151291Y359770D01*
X151280Y359790D01*
X151257Y359813D01*
X151212Y359869D01*
X150153Y360927D01*
X149193Y363246D01*
X149193Y365754D01*
X150153Y368073D01*
X151927Y369847D01*
X154246Y370807D01*
X156754Y370807D01*
X159073Y369847D01*
X160847Y368073D01*
X161807Y365754D01*
X161807Y363246D01*
X160847Y360927D01*
X159788Y359869D01*
X159735Y359795D01*
X159675Y359725D01*
X159663Y359695D01*
X159644Y359669D01*
X159617Y359582D01*
X159583Y359497D01*
X159579Y359456D01*
X159572Y359434D01*
X159573Y359402D01*
X159565Y359330D01*
X159565Y357499D01*
X159579Y357409D01*
X159587Y357318D01*
X159599Y357288D01*
X159604Y357256D01*
X159647Y357176D01*
X159683Y357092D01*
X159709Y357060D01*
X159720Y357039D01*
X159743Y357017D01*
X159788Y356961D01*
X165961Y350788D01*
X166035Y350735D01*
X166104Y350675D01*
X166134Y350663D01*
X166160Y350644D01*
X166247Y350617D01*
X166332Y350583D01*
X166373Y350579D01*
X166396Y350572D01*
X166428Y350573D01*
X166499Y350565D01*
X168504Y350565D01*
X168575Y350576D01*
X168647Y350578D01*
X168696Y350596D01*
X168747Y350604D01*
X168810Y350638D01*
X168878Y350663D01*
X168918Y350695D01*
X168964Y350720D01*
X169014Y350772D01*
X169070Y350816D01*
X169098Y350860D01*
X169134Y350898D01*
X169164Y350963D01*
X169203Y351023D01*
X169216Y351074D01*
X169237Y351121D01*
X169245Y351192D01*
X169263Y351262D01*
X169259Y351314D01*
X169265Y351365D01*
X169249Y351436D01*
X169244Y351507D01*
X169223Y351555D01*
X169212Y351606D01*
X169175Y351667D01*
X169147Y351733D01*
X169103Y351789D01*
X169086Y351817D01*
X169068Y351832D01*
X169043Y351864D01*
X168967Y351940D01*
X168632Y352519D01*
X168459Y353166D01*
X168459Y355001D01*
X176762Y355001D01*
X176781Y355004D01*
X176801Y355002D01*
X176903Y355024D01*
X177005Y355040D01*
X177022Y355050D01*
X177042Y355054D01*
X177131Y355107D01*
X177222Y355156D01*
X177236Y355170D01*
X177253Y355180D01*
X177320Y355259D01*
X177391Y355334D01*
X177400Y355352D01*
X177413Y355367D01*
X177451Y355463D01*
X177495Y355557D01*
X177497Y355577D01*
X177505Y355595D01*
X177523Y355762D01*
X177523Y356477D01*
X178238Y356477D01*
X178258Y356480D01*
X178277Y356478D01*
X178379Y356500D01*
X178481Y356517D01*
X178498Y356526D01*
X178518Y356530D01*
X178607Y356583D01*
X178698Y356632D01*
X178712Y356646D01*
X178729Y356656D01*
X178796Y356735D01*
X178868Y356810D01*
X178876Y356828D01*
X178889Y356843D01*
X178928Y356940D01*
X178971Y357033D01*
X178973Y357053D01*
X178981Y357071D01*
X178999Y357238D01*
X178999Y365762D01*
X178996Y365781D01*
X178998Y365801D01*
X178976Y365903D01*
X178960Y366005D01*
X178950Y366022D01*
X178946Y366042D01*
X178893Y366131D01*
X178844Y366222D01*
X178830Y366236D01*
X178820Y366253D01*
X178741Y366320D01*
X178666Y366391D01*
X178648Y366400D01*
X178633Y366413D01*
X178537Y366451D01*
X178443Y366495D01*
X178423Y366497D01*
X178405Y366504D01*
X178481Y366517D01*
X178498Y366526D01*
X178518Y366530D01*
X178607Y366583D01*
X178698Y366632D01*
X178712Y366646D01*
X178729Y366656D01*
X178796Y366735D01*
X178868Y366810D01*
X178876Y366828D01*
X178889Y366843D01*
X178928Y366940D01*
X178971Y367033D01*
X178973Y367053D01*
X178981Y367071D01*
X178999Y367238D01*
X178999Y372041D01*
X183578Y372041D01*
X183598Y372044D01*
X183617Y372042D01*
X183719Y372064D01*
X183821Y372080D01*
X183838Y372090D01*
X183858Y372094D01*
X183947Y372147D01*
X184038Y372196D01*
X184052Y372210D01*
X184069Y372220D01*
X184136Y372299D01*
X184207Y372374D01*
X184216Y372392D01*
X184229Y372407D01*
X184268Y372503D01*
X184311Y372597D01*
X184313Y372617D01*
X184321Y372635D01*
X184339Y372802D01*
X184339Y400078D01*
X184336Y400098D01*
X184338Y400117D01*
X184316Y400219D01*
X184299Y400321D01*
X184290Y400338D01*
X184286Y400358D01*
X184233Y400447D01*
X184184Y400538D01*
X184170Y400552D01*
X184160Y400569D01*
X184081Y400636D01*
X184006Y400707D01*
X183988Y400716D01*
X183973Y400729D01*
X183877Y400768D01*
X183783Y400811D01*
X183763Y400813D01*
X183745Y400821D01*
X183578Y400839D01*
X161286Y400839D01*
X161266Y400836D01*
X161247Y400838D01*
X161145Y400816D01*
X161043Y400799D01*
X161026Y400790D01*
X161006Y400786D01*
X160917Y400733D01*
X160826Y400684D01*
X160812Y400670D01*
X160795Y400660D01*
X160728Y400581D01*
X160656Y400506D01*
X160648Y400488D01*
X160635Y400473D01*
X160596Y400377D01*
X160553Y400283D01*
X160551Y400263D01*
X160543Y400245D01*
X160525Y400078D01*
X160525Y378868D01*
X159632Y377975D01*
X140368Y377975D01*
X139475Y378868D01*
X139475Y400078D01*
X139472Y400098D01*
X139474Y400117D01*
X139452Y400219D01*
X139436Y400321D01*
X139426Y400338D01*
X139422Y400358D01*
X139369Y400447D01*
X139320Y400538D01*
X139306Y400552D01*
X139296Y400569D01*
X139217Y400636D01*
X139142Y400707D01*
X139124Y400716D01*
X139109Y400729D01*
X139013Y400768D01*
X138919Y400811D01*
X138899Y400813D01*
X138881Y400821D01*
X138714Y400839D01*
X11422Y400839D01*
X11402Y400836D01*
X11383Y400838D01*
X11281Y400816D01*
X11179Y400799D01*
X11162Y400790D01*
X11142Y400786D01*
X11053Y400733D01*
X10962Y400684D01*
X10948Y400670D01*
X10931Y400660D01*
X10864Y400581D01*
X10793Y400506D01*
X10784Y400488D01*
X10771Y400473D01*
X10732Y400377D01*
X10689Y400283D01*
X10687Y400263D01*
X10679Y400245D01*
X10661Y400078D01*
X10661Y161302D01*
X10664Y161282D01*
X10662Y161263D01*
X10684Y161161D01*
X10701Y161059D01*
X10710Y161042D01*
X10714Y161022D01*
X10767Y160933D01*
X10816Y160842D01*
X10830Y160828D01*
X10840Y160811D01*
X10919Y160744D01*
X10994Y160672D01*
X11012Y160664D01*
X11027Y160651D01*
X11123Y160612D01*
X11217Y160569D01*
X11237Y160567D01*
X11255Y160559D01*
X11422Y160541D01*
X15977Y160541D01*
X15977Y148762D01*
X15980Y148742D01*
X15978Y148723D01*
X16000Y148621D01*
X16017Y148519D01*
X16026Y148502D01*
X16030Y148482D01*
X16083Y148393D01*
X16132Y148302D01*
X16146Y148288D01*
X16156Y148271D01*
X16235Y148204D01*
X16310Y148133D01*
X16328Y148124D01*
X16343Y148111D01*
X16439Y148072D01*
X16533Y148029D01*
X16553Y148027D01*
X16571Y148019D01*
X16738Y148001D01*
X18262Y148001D01*
X18282Y148004D01*
G37*
G36*
X178329Y18161D02*
X178329Y18161D01*
X183578Y18161D01*
X183598Y18164D01*
X183617Y18162D01*
X183719Y18184D01*
X183821Y18201D01*
X183838Y18210D01*
X183858Y18215D01*
X183947Y18268D01*
X184038Y18316D01*
X184052Y18330D01*
X184069Y18341D01*
X184136Y18419D01*
X184207Y18494D01*
X184216Y18512D01*
X184229Y18528D01*
X184268Y18624D01*
X184311Y18717D01*
X184313Y18737D01*
X184321Y18756D01*
X184339Y18922D01*
X184339Y35198D01*
X184336Y35218D01*
X184338Y35237D01*
X184316Y35339D01*
X184299Y35441D01*
X184290Y35458D01*
X184286Y35478D01*
X184233Y35567D01*
X184184Y35658D01*
X184170Y35672D01*
X184160Y35689D01*
X184081Y35756D01*
X184006Y35828D01*
X183988Y35836D01*
X183973Y35849D01*
X183877Y35888D01*
X183783Y35931D01*
X183763Y35933D01*
X183745Y35941D01*
X183578Y35959D01*
X180523Y35959D01*
X180523Y48738D01*
X180520Y48758D01*
X180522Y48777D01*
X180500Y48879D01*
X180483Y48981D01*
X180474Y48998D01*
X180470Y49018D01*
X180417Y49107D01*
X180368Y49198D01*
X180354Y49212D01*
X180344Y49229D01*
X180265Y49296D01*
X180190Y49367D01*
X180172Y49376D01*
X180157Y49389D01*
X180061Y49428D01*
X179967Y49471D01*
X179947Y49473D01*
X179929Y49481D01*
X179762Y49499D01*
X178999Y49499D01*
X178999Y49501D01*
X179762Y49501D01*
X179782Y49504D01*
X179801Y49502D01*
X179903Y49524D01*
X180005Y49541D01*
X180022Y49550D01*
X180042Y49554D01*
X180131Y49607D01*
X180222Y49656D01*
X180236Y49670D01*
X180253Y49680D01*
X180320Y49759D01*
X180391Y49834D01*
X180400Y49852D01*
X180413Y49867D01*
X180452Y49963D01*
X180495Y50057D01*
X180497Y50077D01*
X180505Y50095D01*
X180523Y50262D01*
X180523Y63041D01*
X183578Y63041D01*
X183598Y63044D01*
X183617Y63042D01*
X183719Y63064D01*
X183821Y63080D01*
X183838Y63090D01*
X183858Y63094D01*
X183947Y63147D01*
X184038Y63196D01*
X184052Y63210D01*
X184069Y63220D01*
X184136Y63299D01*
X184207Y63374D01*
X184216Y63392D01*
X184229Y63407D01*
X184268Y63503D01*
X184311Y63597D01*
X184313Y63617D01*
X184321Y63635D01*
X184339Y63802D01*
X184339Y107908D01*
X184328Y107979D01*
X184326Y108051D01*
X184308Y108100D01*
X184299Y108151D01*
X184266Y108214D01*
X184241Y108282D01*
X184209Y108322D01*
X184184Y108368D01*
X184132Y108418D01*
X184088Y108474D01*
X184044Y108502D01*
X184006Y108538D01*
X183941Y108568D01*
X183881Y108607D01*
X183830Y108619D01*
X183783Y108641D01*
X183712Y108649D01*
X183642Y108667D01*
X183590Y108663D01*
X183538Y108668D01*
X183468Y108653D01*
X183397Y108648D01*
X183349Y108627D01*
X183298Y108616D01*
X183236Y108579D01*
X183171Y108551D01*
X183115Y108507D01*
X183087Y108490D01*
X183072Y108472D01*
X183040Y108447D01*
X161552Y86959D01*
X93948Y86959D01*
X67959Y112948D01*
X67959Y136552D01*
X73236Y141829D01*
X73289Y141903D01*
X73349Y141973D01*
X73361Y142003D01*
X73380Y142029D01*
X73407Y142116D01*
X73441Y142201D01*
X73445Y142242D01*
X73452Y142264D01*
X73451Y142296D01*
X73459Y142368D01*
X73459Y142714D01*
X73456Y142734D01*
X73458Y142753D01*
X73436Y142855D01*
X73420Y142957D01*
X73410Y142974D01*
X73406Y142994D01*
X73353Y143083D01*
X73304Y143174D01*
X73290Y143188D01*
X73280Y143205D01*
X73201Y143272D01*
X73126Y143344D01*
X73108Y143352D01*
X73093Y143365D01*
X72997Y143404D01*
X72903Y143447D01*
X72883Y143449D01*
X72865Y143457D01*
X72698Y143475D01*
X71384Y143475D01*
X71294Y143461D01*
X71203Y143453D01*
X71173Y143441D01*
X71141Y143436D01*
X71060Y143393D01*
X70976Y143357D01*
X70944Y143331D01*
X70924Y143320D01*
X70901Y143297D01*
X70845Y143252D01*
X70560Y142967D01*
X69981Y142632D01*
X69334Y142459D01*
X66523Y142459D01*
X66523Y153238D01*
X66520Y153258D01*
X66522Y153277D01*
X66500Y153379D01*
X66483Y153481D01*
X66474Y153498D01*
X66470Y153518D01*
X66417Y153607D01*
X66368Y153698D01*
X66354Y153712D01*
X66344Y153729D01*
X66265Y153796D01*
X66190Y153867D01*
X66172Y153876D01*
X66157Y153889D01*
X66061Y153928D01*
X65967Y153971D01*
X65947Y153973D01*
X65929Y153981D01*
X65762Y153999D01*
X64238Y153999D01*
X64218Y153996D01*
X64199Y153998D01*
X64097Y153976D01*
X63995Y153959D01*
X63978Y153950D01*
X63958Y153946D01*
X63869Y153893D01*
X63778Y153844D01*
X63764Y153830D01*
X63747Y153820D01*
X63680Y153741D01*
X63609Y153666D01*
X63600Y153648D01*
X63587Y153633D01*
X63548Y153537D01*
X63505Y153443D01*
X63503Y153423D01*
X63495Y153405D01*
X63477Y153238D01*
X63477Y142459D01*
X60666Y142459D01*
X60019Y142632D01*
X59440Y142967D01*
X59155Y143252D01*
X59081Y143305D01*
X59011Y143365D01*
X58981Y143377D01*
X58955Y143396D01*
X58868Y143423D01*
X58783Y143457D01*
X58742Y143461D01*
X58720Y143468D01*
X58688Y143467D01*
X58616Y143475D01*
X49368Y143475D01*
X49038Y143805D01*
X49022Y143817D01*
X49010Y143833D01*
X48923Y143889D01*
X48839Y143949D01*
X48820Y143955D01*
X48803Y143966D01*
X48702Y143991D01*
X48603Y144021D01*
X48584Y144021D01*
X48564Y144026D01*
X48461Y144018D01*
X48358Y144015D01*
X48339Y144008D01*
X48319Y144007D01*
X48224Y143966D01*
X48127Y143931D01*
X48111Y143918D01*
X48093Y143910D01*
X47962Y143805D01*
X47632Y143475D01*
X38368Y143475D01*
X38038Y143805D01*
X38022Y143817D01*
X38010Y143833D01*
X37923Y143889D01*
X37839Y143949D01*
X37820Y143955D01*
X37803Y143966D01*
X37702Y143991D01*
X37603Y144021D01*
X37584Y144021D01*
X37564Y144026D01*
X37461Y144018D01*
X37358Y144015D01*
X37339Y144008D01*
X37319Y144007D01*
X37224Y143966D01*
X37127Y143931D01*
X37111Y143918D01*
X37093Y143910D01*
X36962Y143805D01*
X36632Y143475D01*
X27802Y143475D01*
X27782Y143472D01*
X27763Y143474D01*
X27661Y143452D01*
X27559Y143436D01*
X27542Y143426D01*
X27522Y143422D01*
X27433Y143369D01*
X27342Y143320D01*
X27328Y143306D01*
X27311Y143296D01*
X27244Y143217D01*
X27172Y143142D01*
X27164Y143124D01*
X27151Y143109D01*
X27112Y143013D01*
X27069Y142919D01*
X27067Y142899D01*
X27059Y142881D01*
X27041Y142714D01*
X27041Y137666D01*
X26868Y137019D01*
X26533Y136440D01*
X26060Y135967D01*
X25481Y135632D01*
X24834Y135459D01*
X19023Y135459D01*
X19023Y147238D01*
X19020Y147258D01*
X19022Y147277D01*
X19000Y147379D01*
X18983Y147481D01*
X18974Y147498D01*
X18970Y147518D01*
X18917Y147607D01*
X18868Y147698D01*
X18854Y147712D01*
X18844Y147729D01*
X18765Y147796D01*
X18690Y147867D01*
X18672Y147876D01*
X18657Y147889D01*
X18561Y147928D01*
X18467Y147971D01*
X18447Y147973D01*
X18429Y147981D01*
X18262Y147999D01*
X16738Y147999D01*
X16718Y147996D01*
X16699Y147998D01*
X16597Y147976D01*
X16495Y147959D01*
X16478Y147950D01*
X16458Y147946D01*
X16369Y147893D01*
X16278Y147844D01*
X16264Y147830D01*
X16247Y147820D01*
X16180Y147741D01*
X16109Y147666D01*
X16100Y147648D01*
X16087Y147633D01*
X16048Y147537D01*
X16005Y147443D01*
X16003Y147423D01*
X15995Y147405D01*
X15977Y147238D01*
X15977Y135459D01*
X11422Y135459D01*
X11402Y135456D01*
X11383Y135458D01*
X11281Y135436D01*
X11179Y135420D01*
X11162Y135410D01*
X11142Y135406D01*
X11053Y135353D01*
X10962Y135304D01*
X10948Y135290D01*
X10931Y135280D01*
X10864Y135201D01*
X10792Y135126D01*
X10784Y135108D01*
X10771Y135093D01*
X10732Y134997D01*
X10689Y134903D01*
X10687Y134883D01*
X10679Y134865D01*
X10661Y134698D01*
X10661Y63802D01*
X10664Y63782D01*
X10662Y63763D01*
X10684Y63661D01*
X10700Y63559D01*
X10710Y63542D01*
X10714Y63522D01*
X10767Y63433D01*
X10816Y63342D01*
X10830Y63328D01*
X10840Y63311D01*
X10919Y63244D01*
X10994Y63172D01*
X11012Y63164D01*
X11027Y63151D01*
X11123Y63112D01*
X11217Y63069D01*
X11237Y63067D01*
X11255Y63059D01*
X11422Y63041D01*
X14477Y63041D01*
X14477Y50262D01*
X14480Y50242D01*
X14478Y50223D01*
X14500Y50121D01*
X14517Y50019D01*
X14526Y50002D01*
X14530Y49982D01*
X14583Y49893D01*
X14632Y49802D01*
X14646Y49788D01*
X14656Y49771D01*
X14735Y49704D01*
X14810Y49633D01*
X14828Y49624D01*
X14843Y49611D01*
X14939Y49572D01*
X15033Y49529D01*
X15053Y49527D01*
X15071Y49519D01*
X15238Y49501D01*
X16001Y49501D01*
X16001Y49499D01*
X15238Y49499D01*
X15218Y49496D01*
X15199Y49498D01*
X15097Y49476D01*
X14995Y49459D01*
X14978Y49450D01*
X14958Y49446D01*
X14869Y49393D01*
X14778Y49344D01*
X14764Y49330D01*
X14747Y49320D01*
X14680Y49241D01*
X14609Y49166D01*
X14600Y49148D01*
X14587Y49133D01*
X14548Y49037D01*
X14505Y48943D01*
X14503Y48923D01*
X14495Y48905D01*
X14477Y48738D01*
X14477Y35959D01*
X11422Y35959D01*
X11402Y35956D01*
X11383Y35958D01*
X11281Y35936D01*
X11179Y35920D01*
X11162Y35910D01*
X11142Y35906D01*
X11053Y35853D01*
X10962Y35804D01*
X10948Y35790D01*
X10931Y35780D01*
X10864Y35701D01*
X10792Y35626D01*
X10784Y35608D01*
X10771Y35593D01*
X10732Y35497D01*
X10689Y35403D01*
X10687Y35383D01*
X10679Y35365D01*
X10661Y35198D01*
X10661Y20173D01*
X10661Y20172D01*
X10661Y18922D01*
X10664Y18902D01*
X10662Y18883D01*
X10684Y18781D01*
X10701Y18679D01*
X10710Y18662D01*
X10714Y18642D01*
X10767Y18553D01*
X10816Y18462D01*
X10830Y18448D01*
X10840Y18431D01*
X10919Y18364D01*
X10994Y18293D01*
X11012Y18284D01*
X11027Y18271D01*
X11123Y18232D01*
X11217Y18189D01*
X11237Y18187D01*
X11255Y18179D01*
X11422Y18161D01*
X12672Y18161D01*
X12673Y18161D01*
X178326Y18161D01*
X178329Y18161D01*
G37*
G36*
X159222Y92055D02*
X159222Y92055D01*
X159313Y92063D01*
X159343Y92075D01*
X159375Y92080D01*
X159456Y92123D01*
X159540Y92159D01*
X159572Y92185D01*
X159592Y92196D01*
X159615Y92219D01*
X159671Y92264D01*
X178560Y111153D01*
X178613Y111227D01*
X178673Y111297D01*
X178685Y111327D01*
X178704Y111353D01*
X178731Y111440D01*
X178765Y111525D01*
X178769Y111566D01*
X178776Y111588D01*
X178775Y111620D01*
X178783Y111692D01*
X178783Y137852D01*
X178772Y137923D01*
X178770Y137995D01*
X178752Y138044D01*
X178743Y138095D01*
X178710Y138158D01*
X178685Y138226D01*
X178653Y138266D01*
X178628Y138312D01*
X178576Y138362D01*
X178532Y138418D01*
X178488Y138446D01*
X178450Y138482D01*
X178385Y138512D01*
X178325Y138551D01*
X178274Y138563D01*
X178227Y138585D01*
X178156Y138593D01*
X178086Y138611D01*
X178034Y138607D01*
X177982Y138612D01*
X177912Y138597D01*
X177841Y138592D01*
X177793Y138571D01*
X177742Y138560D01*
X177681Y138523D01*
X177615Y138495D01*
X177559Y138451D01*
X177531Y138434D01*
X177516Y138416D01*
X177484Y138391D01*
X177060Y137967D01*
X176481Y137632D01*
X175834Y137459D01*
X168023Y137459D01*
X168023Y146238D01*
X168020Y146258D01*
X168022Y146277D01*
X168000Y146379D01*
X167983Y146481D01*
X167974Y146498D01*
X167970Y146518D01*
X167917Y146607D01*
X167868Y146698D01*
X167854Y146712D01*
X167844Y146729D01*
X167765Y146796D01*
X167690Y146867D01*
X167672Y146876D01*
X167657Y146889D01*
X167561Y146928D01*
X167467Y146971D01*
X167447Y146973D01*
X167429Y146981D01*
X167262Y146999D01*
X166499Y146999D01*
X166499Y147001D01*
X167262Y147001D01*
X167282Y147004D01*
X167301Y147002D01*
X167403Y147024D01*
X167505Y147041D01*
X167522Y147050D01*
X167542Y147054D01*
X167631Y147107D01*
X167722Y147156D01*
X167736Y147170D01*
X167753Y147180D01*
X167820Y147259D01*
X167891Y147334D01*
X167900Y147352D01*
X167913Y147367D01*
X167952Y147463D01*
X167995Y147557D01*
X167997Y147577D01*
X168005Y147595D01*
X168023Y147762D01*
X168023Y156541D01*
X175834Y156541D01*
X176481Y156368D01*
X177060Y156033D01*
X177484Y155609D01*
X177542Y155568D01*
X177594Y155518D01*
X177641Y155496D01*
X177683Y155466D01*
X177752Y155445D01*
X177817Y155415D01*
X177869Y155409D01*
X177918Y155394D01*
X177990Y155395D01*
X178061Y155388D01*
X178112Y155399D01*
X178164Y155400D01*
X178232Y155425D01*
X178302Y155440D01*
X178346Y155466D01*
X178395Y155484D01*
X178451Y155529D01*
X178513Y155566D01*
X178547Y155606D01*
X178587Y155638D01*
X178626Y155698D01*
X178673Y155753D01*
X178692Y155801D01*
X178720Y155845D01*
X178738Y155914D01*
X178765Y155981D01*
X178773Y156052D01*
X178780Y156083D01*
X178779Y156107D01*
X178783Y156148D01*
X178783Y158132D01*
X178768Y158222D01*
X178761Y158313D01*
X178749Y158343D01*
X178743Y158375D01*
X178701Y158456D01*
X178665Y158540D01*
X178639Y158572D01*
X178628Y158592D01*
X178605Y158615D01*
X178560Y158671D01*
X175494Y161736D01*
X175421Y161789D01*
X175351Y161849D01*
X175321Y161861D01*
X175295Y161880D01*
X175208Y161907D01*
X175123Y161941D01*
X175082Y161945D01*
X175060Y161952D01*
X175027Y161951D01*
X174956Y161959D01*
X138948Y161959D01*
X136687Y164220D01*
X136613Y164273D01*
X136543Y164333D01*
X136513Y164345D01*
X136487Y164364D01*
X136400Y164391D01*
X136315Y164425D01*
X136274Y164429D01*
X136252Y164436D01*
X136220Y164435D01*
X136148Y164443D01*
X132905Y164443D01*
X129943Y167405D01*
X129943Y171595D01*
X132905Y174557D01*
X137095Y174557D01*
X140057Y171595D01*
X140057Y168352D01*
X140071Y168262D01*
X140079Y168171D01*
X140091Y168141D01*
X140096Y168109D01*
X140139Y168028D01*
X140175Y167944D01*
X140201Y167912D01*
X140212Y167892D01*
X140235Y167869D01*
X140280Y167813D01*
X140829Y167264D01*
X140903Y167211D01*
X140973Y167151D01*
X141003Y167139D01*
X141029Y167120D01*
X141116Y167093D01*
X141201Y167059D01*
X141242Y167055D01*
X141264Y167048D01*
X141296Y167049D01*
X141368Y167041D01*
X177376Y167041D01*
X179088Y165329D01*
X183040Y161377D01*
X183098Y161336D01*
X183150Y161286D01*
X183197Y161264D01*
X183239Y161234D01*
X183308Y161213D01*
X183373Y161183D01*
X183425Y161177D01*
X183474Y161161D01*
X183546Y161163D01*
X183617Y161155D01*
X183668Y161167D01*
X183720Y161168D01*
X183788Y161192D01*
X183858Y161208D01*
X183902Y161234D01*
X183951Y161252D01*
X184007Y161297D01*
X184069Y161334D01*
X184103Y161373D01*
X184143Y161406D01*
X184182Y161466D01*
X184229Y161521D01*
X184248Y161569D01*
X184276Y161613D01*
X184294Y161682D01*
X184321Y161749D01*
X184329Y161820D01*
X184336Y161851D01*
X184335Y161875D01*
X184339Y161916D01*
X184339Y181345D01*
X184328Y181416D01*
X184326Y181488D01*
X184308Y181537D01*
X184299Y181588D01*
X184266Y181651D01*
X184241Y181719D01*
X184209Y181759D01*
X184184Y181805D01*
X184132Y181855D01*
X184088Y181911D01*
X184044Y181939D01*
X184006Y181975D01*
X183941Y182005D01*
X183881Y182044D01*
X183830Y182056D01*
X183783Y182078D01*
X183712Y182086D01*
X183642Y182104D01*
X183590Y182100D01*
X183538Y182105D01*
X183468Y182090D01*
X183397Y182085D01*
X183349Y182064D01*
X183298Y182053D01*
X183237Y182016D01*
X183171Y181988D01*
X183115Y181943D01*
X183087Y181927D01*
X183072Y181909D01*
X183040Y181883D01*
X182632Y181475D01*
X179294Y181475D01*
X179229Y181465D01*
X179164Y181464D01*
X179084Y181441D01*
X179051Y181436D01*
X179034Y181426D01*
X179003Y181417D01*
X177254Y180693D01*
X174746Y180693D01*
X172997Y181417D01*
X172934Y181432D01*
X172873Y181457D01*
X172790Y181466D01*
X172758Y181473D01*
X172739Y181472D01*
X172706Y181475D01*
X169368Y181475D01*
X168475Y182368D01*
X168475Y183190D01*
X168472Y183210D01*
X168474Y183229D01*
X168452Y183331D01*
X168436Y183433D01*
X168426Y183450D01*
X168422Y183470D01*
X168369Y183559D01*
X168320Y183650D01*
X168306Y183664D01*
X168296Y183681D01*
X168217Y183748D01*
X168142Y183820D01*
X168124Y183828D01*
X168109Y183841D01*
X168013Y183880D01*
X167919Y183923D01*
X167899Y183925D01*
X167881Y183933D01*
X167714Y183951D01*
X160786Y183951D01*
X160766Y183948D01*
X160747Y183950D01*
X160645Y183928D01*
X160543Y183912D01*
X160526Y183902D01*
X160506Y183898D01*
X160417Y183845D01*
X160326Y183796D01*
X160312Y183782D01*
X160295Y183772D01*
X160228Y183693D01*
X160156Y183618D01*
X160148Y183600D01*
X160135Y183585D01*
X160096Y183489D01*
X160053Y183395D01*
X160051Y183375D01*
X160043Y183357D01*
X160025Y183190D01*
X160025Y182368D01*
X159132Y181475D01*
X145868Y181475D01*
X144975Y182368D01*
X144975Y191632D01*
X145868Y192525D01*
X159132Y192525D01*
X160025Y191632D01*
X160025Y190810D01*
X160028Y190790D01*
X160026Y190771D01*
X160048Y190669D01*
X160064Y190567D01*
X160074Y190550D01*
X160078Y190530D01*
X160131Y190441D01*
X160180Y190350D01*
X160194Y190336D01*
X160204Y190319D01*
X160283Y190252D01*
X160358Y190180D01*
X160376Y190172D01*
X160391Y190159D01*
X160487Y190120D01*
X160581Y190077D01*
X160601Y190075D01*
X160619Y190067D01*
X160786Y190049D01*
X167714Y190049D01*
X167734Y190052D01*
X167753Y190050D01*
X167855Y190072D01*
X167957Y190088D01*
X167974Y190098D01*
X167994Y190102D01*
X168083Y190155D01*
X168174Y190204D01*
X168188Y190218D01*
X168205Y190228D01*
X168272Y190307D01*
X168344Y190382D01*
X168352Y190400D01*
X168365Y190415D01*
X168404Y190511D01*
X168447Y190605D01*
X168449Y190625D01*
X168457Y190643D01*
X168475Y190810D01*
X168475Y191632D01*
X169368Y192525D01*
X172706Y192525D01*
X172771Y192535D01*
X172836Y192536D01*
X172916Y192559D01*
X172949Y192564D01*
X172966Y192574D01*
X172997Y192583D01*
X174746Y193307D01*
X177254Y193307D01*
X179003Y192583D01*
X179066Y192568D01*
X179127Y192543D01*
X179210Y192534D01*
X179242Y192527D01*
X179261Y192528D01*
X179294Y192525D01*
X182632Y192525D01*
X183040Y192117D01*
X183098Y192075D01*
X183150Y192025D01*
X183197Y192003D01*
X183239Y191973D01*
X183308Y191952D01*
X183373Y191922D01*
X183425Y191916D01*
X183474Y191901D01*
X183546Y191903D01*
X183617Y191895D01*
X183668Y191906D01*
X183720Y191907D01*
X183788Y191932D01*
X183858Y191947D01*
X183902Y191974D01*
X183951Y191992D01*
X184007Y192036D01*
X184069Y192073D01*
X184103Y192113D01*
X184143Y192145D01*
X184182Y192206D01*
X184229Y192260D01*
X184248Y192308D01*
X184276Y192352D01*
X184294Y192422D01*
X184321Y192488D01*
X184329Y192559D01*
X184336Y192591D01*
X184335Y192614D01*
X184339Y192655D01*
X184339Y198098D01*
X184324Y198192D01*
X184315Y198287D01*
X184304Y198313D01*
X184299Y198341D01*
X184255Y198425D01*
X184217Y198513D01*
X184198Y198534D01*
X184184Y198558D01*
X184115Y198624D01*
X184051Y198695D01*
X184026Y198708D01*
X184006Y198728D01*
X183920Y198768D01*
X183836Y198814D01*
X183808Y198820D01*
X183783Y198831D01*
X183688Y198842D01*
X183594Y198859D01*
X183567Y198855D01*
X183538Y198858D01*
X183445Y198838D01*
X183351Y198825D01*
X183318Y198811D01*
X183298Y198806D01*
X183270Y198789D01*
X183197Y198758D01*
X182981Y198632D01*
X182334Y198459D01*
X177523Y198459D01*
X177523Y204238D01*
X177520Y204258D01*
X177522Y204277D01*
X177500Y204379D01*
X177483Y204481D01*
X177474Y204498D01*
X177470Y204518D01*
X177417Y204607D01*
X177368Y204698D01*
X177354Y204712D01*
X177344Y204729D01*
X177265Y204796D01*
X177190Y204867D01*
X177172Y204876D01*
X177157Y204889D01*
X177061Y204928D01*
X176967Y204971D01*
X176947Y204973D01*
X176929Y204981D01*
X176762Y204999D01*
X175999Y204999D01*
X175999Y205001D01*
X176762Y205001D01*
X176782Y205004D01*
X176801Y205002D01*
X176903Y205024D01*
X177005Y205041D01*
X177022Y205050D01*
X177042Y205054D01*
X177131Y205107D01*
X177222Y205156D01*
X177236Y205170D01*
X177253Y205180D01*
X177320Y205259D01*
X177391Y205334D01*
X177400Y205352D01*
X177413Y205367D01*
X177452Y205463D01*
X177495Y205557D01*
X177497Y205577D01*
X177505Y205595D01*
X177523Y205762D01*
X177523Y211541D01*
X182334Y211541D01*
X182981Y211368D01*
X183197Y211242D01*
X183287Y211209D01*
X183373Y211169D01*
X183401Y211166D01*
X183427Y211156D01*
X183523Y211152D01*
X183617Y211142D01*
X183645Y211147D01*
X183673Y211146D01*
X183765Y211174D01*
X183858Y211194D01*
X183882Y211208D01*
X183909Y211216D01*
X183987Y211271D01*
X184069Y211320D01*
X184087Y211341D01*
X184110Y211358D01*
X184167Y211435D01*
X184229Y211507D01*
X184239Y211533D01*
X184256Y211556D01*
X184285Y211647D01*
X184321Y211735D01*
X184325Y211770D01*
X184331Y211790D01*
X184330Y211823D01*
X184339Y211902D01*
X184339Y251214D01*
X184336Y251234D01*
X184338Y251253D01*
X184316Y251355D01*
X184299Y251457D01*
X184290Y251474D01*
X184286Y251494D01*
X184233Y251583D01*
X184184Y251674D01*
X184170Y251688D01*
X184160Y251705D01*
X184081Y251772D01*
X184006Y251844D01*
X183988Y251852D01*
X183973Y251865D01*
X183877Y251904D01*
X183783Y251947D01*
X183763Y251949D01*
X183745Y251957D01*
X183578Y251975D01*
X170368Y251975D01*
X169475Y252868D01*
X169475Y253198D01*
X169472Y253218D01*
X169474Y253237D01*
X169452Y253339D01*
X169436Y253441D01*
X169426Y253458D01*
X169422Y253478D01*
X169369Y253567D01*
X169320Y253658D01*
X169306Y253672D01*
X169296Y253689D01*
X169217Y253756D01*
X169142Y253828D01*
X169124Y253836D01*
X169109Y253849D01*
X169013Y253888D01*
X168919Y253931D01*
X168899Y253933D01*
X168881Y253941D01*
X168714Y253959D01*
X167368Y253959D01*
X167278Y253945D01*
X167187Y253937D01*
X167157Y253925D01*
X167125Y253920D01*
X167044Y253877D01*
X166960Y253841D01*
X166928Y253815D01*
X166908Y253804D01*
X166885Y253781D01*
X166829Y253736D01*
X161552Y248459D01*
X141868Y248459D01*
X141778Y248445D01*
X141687Y248437D01*
X141657Y248425D01*
X141625Y248420D01*
X141544Y248377D01*
X141460Y248341D01*
X141428Y248315D01*
X141408Y248304D01*
X141385Y248281D01*
X141329Y248236D01*
X136264Y243171D01*
X136211Y243097D01*
X136151Y243027D01*
X136139Y242997D01*
X136120Y242971D01*
X136093Y242884D01*
X136059Y242799D01*
X136055Y242758D01*
X136048Y242736D01*
X136049Y242704D01*
X136041Y242632D01*
X136041Y224948D01*
X107302Y196209D01*
X70868Y196209D01*
X70778Y196195D01*
X70687Y196187D01*
X70657Y196175D01*
X70625Y196170D01*
X70544Y196127D01*
X70460Y196091D01*
X70428Y196065D01*
X70408Y196054D01*
X70385Y196031D01*
X70329Y195986D01*
X68489Y194146D01*
X68417Y194103D01*
X68326Y194054D01*
X68312Y194040D01*
X68295Y194030D01*
X68228Y193951D01*
X68156Y193876D01*
X68148Y193858D01*
X68135Y193843D01*
X68096Y193747D01*
X68053Y193653D01*
X68051Y193633D01*
X68043Y193615D01*
X68025Y193448D01*
X68025Y192764D01*
X68009Y192702D01*
X67979Y192604D01*
X67979Y192584D01*
X67974Y192564D01*
X67982Y192461D01*
X67985Y192358D01*
X67992Y192339D01*
X67993Y192319D01*
X68025Y192246D01*
X68025Y191552D01*
X68028Y191532D01*
X68026Y191513D01*
X68048Y191411D01*
X68064Y191309D01*
X68074Y191292D01*
X68078Y191272D01*
X68131Y191183D01*
X68180Y191092D01*
X68194Y191078D01*
X68204Y191061D01*
X68283Y190994D01*
X68358Y190922D01*
X68376Y190914D01*
X68391Y190901D01*
X68476Y190867D01*
X69329Y190014D01*
X69403Y189961D01*
X69473Y189901D01*
X69503Y189889D01*
X69529Y189870D01*
X69616Y189843D01*
X69701Y189809D01*
X69742Y189805D01*
X69764Y189798D01*
X69796Y189799D01*
X69868Y189791D01*
X75682Y189791D01*
X75702Y189794D01*
X75721Y189792D01*
X75823Y189814D01*
X75925Y189830D01*
X75942Y189840D01*
X75962Y189844D01*
X76051Y189897D01*
X76142Y189946D01*
X76156Y189960D01*
X76173Y189970D01*
X76240Y190049D01*
X76312Y190124D01*
X76320Y190142D01*
X76333Y190157D01*
X76372Y190253D01*
X76415Y190347D01*
X76417Y190367D01*
X76425Y190385D01*
X76443Y190552D01*
X76443Y191595D01*
X79405Y194557D01*
X83595Y194557D01*
X86557Y191595D01*
X86557Y187405D01*
X83595Y184443D01*
X79405Y184443D01*
X79362Y184486D01*
X79288Y184539D01*
X79219Y184599D01*
X79189Y184611D01*
X79163Y184630D01*
X79076Y184657D01*
X78991Y184691D01*
X78950Y184695D01*
X78928Y184702D01*
X78895Y184701D01*
X78824Y184709D01*
X68681Y184709D01*
X68591Y184695D01*
X68500Y184687D01*
X68470Y184675D01*
X68438Y184670D01*
X68357Y184627D01*
X68274Y184591D01*
X68241Y184565D01*
X68221Y184554D01*
X68199Y184531D01*
X68143Y184486D01*
X67132Y183475D01*
X57868Y183475D01*
X56975Y184368D01*
X56975Y192236D01*
X56987Y192281D01*
X56987Y192282D01*
X56987Y192284D01*
X56991Y192298D01*
X57021Y192397D01*
X57021Y192417D01*
X57026Y192436D01*
X57018Y192539D01*
X57015Y192642D01*
X57008Y192661D01*
X57007Y192681D01*
X56975Y192755D01*
X56975Y200632D01*
X57868Y201525D01*
X67132Y201525D01*
X67368Y201288D01*
X67385Y201276D01*
X67397Y201261D01*
X67484Y201205D01*
X67568Y201144D01*
X67587Y201139D01*
X67604Y201128D01*
X67704Y201103D01*
X67803Y201072D01*
X67823Y201073D01*
X67842Y201068D01*
X67945Y201076D01*
X68049Y201078D01*
X68068Y201085D01*
X68088Y201087D01*
X68183Y201127D01*
X68280Y201163D01*
X68296Y201175D01*
X68314Y201183D01*
X68445Y201288D01*
X68448Y201291D01*
X104882Y201291D01*
X104972Y201305D01*
X105063Y201313D01*
X105093Y201325D01*
X105125Y201330D01*
X105206Y201373D01*
X105290Y201409D01*
X105322Y201435D01*
X105342Y201446D01*
X105365Y201469D01*
X105421Y201514D01*
X130736Y226829D01*
X130789Y226903D01*
X130849Y226973D01*
X130861Y227003D01*
X130880Y227029D01*
X130907Y227116D01*
X130941Y227201D01*
X130945Y227242D01*
X130952Y227264D01*
X130951Y227296D01*
X130959Y227368D01*
X130959Y245052D01*
X139448Y253541D01*
X159132Y253541D01*
X159222Y253555D01*
X159313Y253563D01*
X159343Y253575D01*
X159375Y253580D01*
X159456Y253623D01*
X159540Y253659D01*
X159572Y253685D01*
X159592Y253696D01*
X159615Y253719D01*
X159671Y253764D01*
X164948Y259041D01*
X168714Y259041D01*
X168734Y259044D01*
X168753Y259042D01*
X168855Y259064D01*
X168957Y259080D01*
X168974Y259090D01*
X168994Y259094D01*
X169083Y259147D01*
X169174Y259196D01*
X169188Y259210D01*
X169205Y259220D01*
X169272Y259299D01*
X169344Y259374D01*
X169352Y259392D01*
X169365Y259407D01*
X169404Y259503D01*
X169447Y259597D01*
X169449Y259617D01*
X169457Y259635D01*
X169475Y259802D01*
X169475Y260132D01*
X170305Y260962D01*
X170317Y260978D01*
X170333Y260990D01*
X170389Y261078D01*
X170449Y261161D01*
X170455Y261180D01*
X170466Y261197D01*
X170491Y261298D01*
X170521Y261397D01*
X170521Y261416D01*
X170526Y261436D01*
X170518Y261539D01*
X170515Y261642D01*
X170508Y261661D01*
X170507Y261681D01*
X170466Y261776D01*
X170431Y261873D01*
X170418Y261889D01*
X170410Y261907D01*
X170305Y262038D01*
X169475Y262868D01*
X169475Y263198D01*
X169472Y263218D01*
X169474Y263237D01*
X169452Y263339D01*
X169436Y263441D01*
X169426Y263458D01*
X169422Y263478D01*
X169369Y263567D01*
X169320Y263658D01*
X169306Y263672D01*
X169296Y263689D01*
X169217Y263756D01*
X169142Y263828D01*
X169124Y263836D01*
X169109Y263849D01*
X169013Y263888D01*
X168919Y263931D01*
X168899Y263933D01*
X168881Y263941D01*
X168714Y263959D01*
X165868Y263959D01*
X165778Y263945D01*
X165687Y263937D01*
X165657Y263925D01*
X165625Y263920D01*
X165544Y263877D01*
X165460Y263841D01*
X165428Y263815D01*
X165408Y263804D01*
X165385Y263781D01*
X165329Y263736D01*
X158052Y256459D01*
X139868Y256459D01*
X139778Y256445D01*
X139687Y256437D01*
X139657Y256425D01*
X139625Y256420D01*
X139544Y256377D01*
X139460Y256341D01*
X139428Y256315D01*
X139408Y256304D01*
X139385Y256281D01*
X139381Y256277D01*
X139380Y256277D01*
X139329Y256236D01*
X129264Y246171D01*
X129211Y246097D01*
X129151Y246027D01*
X129139Y245997D01*
X129120Y245971D01*
X129093Y245884D01*
X129059Y245799D01*
X129055Y245758D01*
X129048Y245736D01*
X129049Y245704D01*
X129041Y245632D01*
X129041Y227948D01*
X108052Y206959D01*
X90318Y206959D01*
X90298Y206956D01*
X90279Y206958D01*
X90177Y206936D01*
X90075Y206920D01*
X90058Y206910D01*
X90038Y206906D01*
X89949Y206853D01*
X89858Y206804D01*
X89844Y206790D01*
X89827Y206780D01*
X89760Y206701D01*
X89688Y206626D01*
X89680Y206608D01*
X89667Y206593D01*
X89628Y206497D01*
X89611Y206460D01*
X86595Y203443D01*
X82405Y203443D01*
X79443Y206405D01*
X79443Y210595D01*
X82405Y213557D01*
X86595Y213557D01*
X87888Y212264D01*
X87962Y212211D01*
X88031Y212151D01*
X88061Y212139D01*
X88087Y212120D01*
X88174Y212093D01*
X88259Y212059D01*
X88300Y212055D01*
X88322Y212048D01*
X88355Y212049D01*
X88426Y212041D01*
X105632Y212041D01*
X105722Y212055D01*
X105813Y212063D01*
X105843Y212075D01*
X105875Y212080D01*
X105956Y212123D01*
X106040Y212159D01*
X106072Y212185D01*
X106092Y212196D01*
X106115Y212219D01*
X106171Y212264D01*
X123736Y229829D01*
X123789Y229903D01*
X123849Y229973D01*
X123861Y230003D01*
X123880Y230029D01*
X123907Y230116D01*
X123941Y230201D01*
X123945Y230242D01*
X123952Y230264D01*
X123951Y230296D01*
X123959Y230368D01*
X123959Y248052D01*
X137448Y261541D01*
X155632Y261541D01*
X155722Y261555D01*
X155813Y261563D01*
X155843Y261575D01*
X155875Y261580D01*
X155956Y261623D01*
X156040Y261659D01*
X156072Y261685D01*
X156092Y261696D01*
X156115Y261719D01*
X156171Y261764D01*
X163448Y269041D01*
X168714Y269041D01*
X168734Y269044D01*
X168753Y269042D01*
X168855Y269064D01*
X168957Y269080D01*
X168974Y269090D01*
X168994Y269094D01*
X169083Y269147D01*
X169174Y269196D01*
X169188Y269210D01*
X169205Y269220D01*
X169272Y269299D01*
X169344Y269374D01*
X169352Y269392D01*
X169365Y269407D01*
X169404Y269503D01*
X169447Y269597D01*
X169449Y269617D01*
X169457Y269635D01*
X169475Y269802D01*
X169475Y270132D01*
X170305Y270962D01*
X170317Y270978D01*
X170333Y270990D01*
X170389Y271078D01*
X170449Y271161D01*
X170455Y271180D01*
X170466Y271197D01*
X170491Y271298D01*
X170521Y271397D01*
X170521Y271416D01*
X170526Y271436D01*
X170518Y271539D01*
X170515Y271642D01*
X170508Y271661D01*
X170507Y271681D01*
X170466Y271776D01*
X170431Y271873D01*
X170418Y271889D01*
X170410Y271907D01*
X170305Y272038D01*
X169475Y272868D01*
X169475Y273198D01*
X169473Y273210D01*
X169474Y273219D01*
X169473Y273225D01*
X169474Y273237D01*
X169452Y273339D01*
X169436Y273441D01*
X169426Y273458D01*
X169422Y273478D01*
X169369Y273567D01*
X169320Y273658D01*
X169306Y273672D01*
X169296Y273689D01*
X169217Y273756D01*
X169142Y273828D01*
X169124Y273836D01*
X169109Y273849D01*
X169013Y273888D01*
X168919Y273931D01*
X168899Y273933D01*
X168881Y273941D01*
X168714Y273959D01*
X163868Y273959D01*
X163778Y273945D01*
X163687Y273937D01*
X163657Y273925D01*
X163625Y273920D01*
X163544Y273877D01*
X163460Y273841D01*
X163428Y273815D01*
X163408Y273804D01*
X163391Y273787D01*
X163389Y273786D01*
X163382Y273778D01*
X163329Y273736D01*
X154052Y264459D01*
X137868Y264459D01*
X137778Y264445D01*
X137687Y264437D01*
X137657Y264425D01*
X137625Y264420D01*
X137544Y264377D01*
X137460Y264341D01*
X137428Y264315D01*
X137408Y264304D01*
X137385Y264281D01*
X137329Y264236D01*
X122264Y249171D01*
X122211Y249097D01*
X122151Y249027D01*
X122139Y248997D01*
X122120Y248971D01*
X122093Y248884D01*
X122059Y248799D01*
X122055Y248758D01*
X122048Y248736D01*
X122049Y248704D01*
X122041Y248632D01*
X122041Y230948D01*
X107552Y216459D01*
X77868Y216459D01*
X77778Y216445D01*
X77687Y216437D01*
X77657Y216425D01*
X77625Y216420D01*
X77544Y216377D01*
X77460Y216341D01*
X77428Y216315D01*
X77408Y216304D01*
X77385Y216281D01*
X77329Y216236D01*
X75052Y213959D01*
X46368Y213959D01*
X46278Y213945D01*
X46187Y213937D01*
X46157Y213925D01*
X46125Y213920D01*
X46044Y213877D01*
X45960Y213841D01*
X45928Y213815D01*
X45908Y213804D01*
X45885Y213781D01*
X45829Y213736D01*
X40264Y208171D01*
X40211Y208097D01*
X40151Y208027D01*
X40139Y207997D01*
X40120Y207971D01*
X40093Y207884D01*
X40059Y207799D01*
X40055Y207758D01*
X40048Y207736D01*
X40049Y207704D01*
X40041Y207632D01*
X40041Y194618D01*
X40055Y194528D01*
X40063Y194437D01*
X40075Y194407D01*
X40080Y194375D01*
X40123Y194295D01*
X40159Y194210D01*
X40185Y194178D01*
X40196Y194158D01*
X40219Y194135D01*
X40264Y194079D01*
X40676Y193667D01*
X40734Y193626D01*
X40786Y193576D01*
X40833Y193554D01*
X40875Y193524D01*
X40944Y193503D01*
X41009Y193473D01*
X41061Y193467D01*
X41111Y193451D01*
X41182Y193453D01*
X41253Y193445D01*
X41304Y193457D01*
X41356Y193458D01*
X41424Y193482D01*
X41494Y193498D01*
X41539Y193524D01*
X41587Y193542D01*
X41643Y193587D01*
X41705Y193624D01*
X41739Y193663D01*
X41779Y193696D01*
X41818Y193756D01*
X41865Y193811D01*
X41884Y193859D01*
X41912Y193903D01*
X41930Y193972D01*
X41957Y194039D01*
X41965Y194110D01*
X41973Y194141D01*
X41971Y194165D01*
X41975Y194206D01*
X41975Y200632D01*
X42868Y201525D01*
X44198Y201525D01*
X44218Y201528D01*
X44237Y201526D01*
X44339Y201548D01*
X44441Y201564D01*
X44458Y201574D01*
X44478Y201578D01*
X44567Y201631D01*
X44658Y201680D01*
X44672Y201694D01*
X44689Y201704D01*
X44756Y201783D01*
X44828Y201858D01*
X44836Y201876D01*
X44849Y201891D01*
X44888Y201987D01*
X44931Y202081D01*
X44933Y202101D01*
X44941Y202119D01*
X44959Y202286D01*
X44959Y206052D01*
X46220Y207313D01*
X46273Y207387D01*
X46333Y207457D01*
X46345Y207487D01*
X46364Y207513D01*
X46391Y207600D01*
X46425Y207685D01*
X46429Y207726D01*
X46436Y207748D01*
X46435Y207780D01*
X46443Y207852D01*
X46443Y209095D01*
X49405Y212057D01*
X53595Y212057D01*
X56557Y209095D01*
X56557Y204905D01*
X53595Y201943D01*
X53551Y201943D01*
X53480Y201932D01*
X53408Y201930D01*
X53359Y201912D01*
X53308Y201904D01*
X53245Y201870D01*
X53177Y201845D01*
X53137Y201813D01*
X53091Y201788D01*
X53041Y201737D01*
X52985Y201692D01*
X52957Y201648D01*
X52921Y201610D01*
X52891Y201545D01*
X52852Y201485D01*
X52840Y201434D01*
X52818Y201387D01*
X52810Y201316D01*
X52792Y201246D01*
X52796Y201194D01*
X52791Y201143D01*
X52806Y201072D01*
X52811Y201001D01*
X52832Y200953D01*
X52843Y200902D01*
X52880Y200841D01*
X52908Y200775D01*
X52953Y200719D01*
X52969Y200691D01*
X52987Y200676D01*
X53013Y200644D01*
X53025Y200632D01*
X53025Y192764D01*
X53009Y192702D01*
X52979Y192604D01*
X52979Y192584D01*
X52974Y192564D01*
X52982Y192461D01*
X52985Y192358D01*
X52992Y192339D01*
X52993Y192319D01*
X53025Y192246D01*
X53025Y184368D01*
X52132Y183475D01*
X42868Y183475D01*
X41975Y184368D01*
X41975Y184948D01*
X41972Y184968D01*
X41974Y184987D01*
X41952Y185089D01*
X41936Y185191D01*
X41926Y185208D01*
X41922Y185228D01*
X41869Y185317D01*
X41820Y185408D01*
X41806Y185422D01*
X41796Y185439D01*
X41717Y185506D01*
X41642Y185578D01*
X41624Y185586D01*
X41609Y185599D01*
X41524Y185633D01*
X34959Y192198D01*
X34959Y210052D01*
X43948Y219041D01*
X72632Y219041D01*
X72722Y219055D01*
X72813Y219063D01*
X72843Y219075D01*
X72875Y219080D01*
X72956Y219123D01*
X73040Y219159D01*
X73072Y219185D01*
X73092Y219196D01*
X73115Y219219D01*
X73171Y219264D01*
X75448Y221541D01*
X105132Y221541D01*
X105222Y221555D01*
X105313Y221563D01*
X105343Y221575D01*
X105375Y221580D01*
X105456Y221623D01*
X105540Y221659D01*
X105572Y221685D01*
X105592Y221696D01*
X105615Y221719D01*
X105671Y221764D01*
X116736Y232829D01*
X116789Y232903D01*
X116849Y232973D01*
X116861Y233003D01*
X116880Y233029D01*
X116907Y233116D01*
X116941Y233201D01*
X116945Y233242D01*
X116952Y233264D01*
X116951Y233296D01*
X116959Y233368D01*
X116959Y251052D01*
X135448Y269541D01*
X151632Y269541D01*
X151722Y269555D01*
X151813Y269563D01*
X151843Y269575D01*
X151875Y269580D01*
X151956Y269623D01*
X152040Y269659D01*
X152072Y269685D01*
X152092Y269696D01*
X152115Y269719D01*
X152171Y269764D01*
X161448Y279041D01*
X168714Y279041D01*
X168734Y279044D01*
X168753Y279042D01*
X168855Y279064D01*
X168957Y279080D01*
X168974Y279090D01*
X168994Y279094D01*
X169083Y279147D01*
X169174Y279196D01*
X169188Y279210D01*
X169205Y279220D01*
X169272Y279299D01*
X169344Y279374D01*
X169352Y279392D01*
X169365Y279407D01*
X169404Y279503D01*
X169447Y279597D01*
X169449Y279617D01*
X169457Y279635D01*
X169475Y279802D01*
X169475Y280132D01*
X170305Y280962D01*
X170317Y280978D01*
X170333Y280990D01*
X170389Y281078D01*
X170449Y281161D01*
X170455Y281180D01*
X170466Y281197D01*
X170491Y281298D01*
X170521Y281397D01*
X170521Y281416D01*
X170526Y281436D01*
X170518Y281539D01*
X170515Y281642D01*
X170508Y281661D01*
X170507Y281681D01*
X170466Y281776D01*
X170431Y281873D01*
X170418Y281889D01*
X170410Y281907D01*
X170305Y282038D01*
X169442Y282902D01*
X169436Y282941D01*
X169426Y282958D01*
X169422Y282978D01*
X169369Y283067D01*
X169320Y283158D01*
X169306Y283172D01*
X169296Y283189D01*
X169217Y283256D01*
X169142Y283328D01*
X169124Y283336D01*
X169109Y283349D01*
X169013Y283388D01*
X168919Y283431D01*
X168899Y283433D01*
X168881Y283441D01*
X168714Y283459D01*
X160368Y283459D01*
X160278Y283445D01*
X160187Y283437D01*
X160157Y283425D01*
X160125Y283420D01*
X160044Y283377D01*
X159960Y283341D01*
X159928Y283315D01*
X159908Y283304D01*
X159885Y283281D01*
X159829Y283236D01*
X149052Y272459D01*
X131868Y272459D01*
X131778Y272445D01*
X131687Y272437D01*
X131657Y272425D01*
X131625Y272420D01*
X131544Y272377D01*
X131460Y272341D01*
X131428Y272315D01*
X131408Y272304D01*
X131385Y272281D01*
X131329Y272236D01*
X114264Y255171D01*
X114211Y255097D01*
X114151Y255027D01*
X114139Y254997D01*
X114120Y254971D01*
X114093Y254884D01*
X114059Y254799D01*
X114055Y254758D01*
X114048Y254736D01*
X114049Y254704D01*
X114041Y254632D01*
X114041Y240948D01*
X101552Y228459D01*
X74868Y228459D01*
X74778Y228445D01*
X74687Y228437D01*
X74657Y228425D01*
X74625Y228420D01*
X74544Y228377D01*
X74460Y228341D01*
X74428Y228315D01*
X74408Y228304D01*
X74385Y228281D01*
X74329Y228236D01*
X69876Y223783D01*
X40691Y223783D01*
X40601Y223768D01*
X40510Y223761D01*
X40480Y223748D01*
X40448Y223743D01*
X40368Y223700D01*
X40284Y223665D01*
X40252Y223639D01*
X40231Y223628D01*
X40209Y223605D01*
X40153Y223560D01*
X28264Y211671D01*
X28211Y211597D01*
X28151Y211527D01*
X28139Y211497D01*
X28120Y211471D01*
X28093Y211384D01*
X28059Y211299D01*
X28055Y211258D01*
X28048Y211236D01*
X28049Y211204D01*
X28041Y211132D01*
X28041Y180868D01*
X28055Y180778D01*
X28063Y180687D01*
X28075Y180657D01*
X28080Y180625D01*
X28123Y180544D01*
X28159Y180460D01*
X28185Y180428D01*
X28196Y180408D01*
X28219Y180385D01*
X28264Y180329D01*
X34541Y174052D01*
X34541Y165286D01*
X34544Y165266D01*
X34542Y165247D01*
X34564Y165145D01*
X34580Y165043D01*
X34590Y165026D01*
X34594Y165006D01*
X34647Y164917D01*
X34696Y164826D01*
X34710Y164812D01*
X34720Y164795D01*
X34799Y164728D01*
X34874Y164656D01*
X34892Y164648D01*
X34907Y164635D01*
X35003Y164596D01*
X35097Y164553D01*
X35117Y164551D01*
X35135Y164543D01*
X35302Y164525D01*
X36632Y164525D01*
X36962Y164195D01*
X36978Y164183D01*
X36990Y164167D01*
X37077Y164111D01*
X37161Y164051D01*
X37180Y164045D01*
X37197Y164034D01*
X37298Y164009D01*
X37397Y163979D01*
X37416Y163979D01*
X37436Y163974D01*
X37539Y163982D01*
X37642Y163985D01*
X37661Y163992D01*
X37681Y163993D01*
X37776Y164034D01*
X37873Y164069D01*
X37889Y164082D01*
X37907Y164090D01*
X38038Y164195D01*
X38368Y164525D01*
X47632Y164525D01*
X47962Y164195D01*
X47978Y164183D01*
X47990Y164167D01*
X48077Y164111D01*
X48161Y164051D01*
X48180Y164045D01*
X48197Y164034D01*
X48298Y164009D01*
X48397Y163979D01*
X48416Y163979D01*
X48436Y163974D01*
X48539Y163982D01*
X48642Y163985D01*
X48661Y163992D01*
X48681Y163993D01*
X48776Y164034D01*
X48873Y164069D01*
X48889Y164082D01*
X48907Y164090D01*
X49038Y164195D01*
X49368Y164525D01*
X50698Y164525D01*
X50718Y164528D01*
X50737Y164526D01*
X50839Y164548D01*
X50941Y164564D01*
X50958Y164574D01*
X50978Y164578D01*
X51067Y164631D01*
X51158Y164680D01*
X51172Y164694D01*
X51189Y164704D01*
X51256Y164783D01*
X51328Y164858D01*
X51336Y164876D01*
X51349Y164891D01*
X51388Y164987D01*
X51431Y165081D01*
X51433Y165101D01*
X51441Y165119D01*
X51459Y165286D01*
X51459Y166052D01*
X57220Y171813D01*
X57273Y171887D01*
X57333Y171957D01*
X57345Y171987D01*
X57364Y172013D01*
X57391Y172100D01*
X57425Y172185D01*
X57429Y172226D01*
X57436Y172248D01*
X57435Y172280D01*
X57443Y172352D01*
X57443Y175095D01*
X60405Y178057D01*
X64595Y178057D01*
X67557Y175095D01*
X67557Y170905D01*
X64595Y167943D01*
X60852Y167943D01*
X60762Y167929D01*
X60671Y167921D01*
X60641Y167909D01*
X60609Y167904D01*
X60529Y167861D01*
X60444Y167825D01*
X60412Y167799D01*
X60392Y167788D01*
X60369Y167765D01*
X60313Y167720D01*
X59216Y166623D01*
X59188Y166584D01*
X59153Y166551D01*
X59117Y166485D01*
X59073Y166423D01*
X59058Y166377D01*
X59036Y166335D01*
X59022Y166261D01*
X59000Y166188D01*
X59001Y166140D01*
X58993Y166093D01*
X59005Y166018D01*
X59007Y165942D01*
X59023Y165897D01*
X59030Y165850D01*
X59065Y165783D01*
X59091Y165711D01*
X59121Y165674D01*
X59143Y165631D01*
X59197Y165578D01*
X59245Y165519D01*
X59285Y165493D01*
X59320Y165460D01*
X59388Y165427D01*
X59452Y165386D01*
X59498Y165375D01*
X59541Y165354D01*
X59617Y165345D01*
X59690Y165326D01*
X59738Y165330D01*
X59786Y165324D01*
X59913Y165344D01*
X59935Y165345D01*
X59942Y165348D01*
X59951Y165349D01*
X60666Y165541D01*
X63477Y165541D01*
X63477Y154762D01*
X63480Y154742D01*
X63478Y154723D01*
X63500Y154621D01*
X63517Y154519D01*
X63526Y154502D01*
X63530Y154482D01*
X63583Y154393D01*
X63632Y154302D01*
X63646Y154288D01*
X63656Y154271D01*
X63735Y154204D01*
X63810Y154133D01*
X63828Y154124D01*
X63843Y154111D01*
X63939Y154072D01*
X64033Y154029D01*
X64053Y154027D01*
X64071Y154019D01*
X64238Y154001D01*
X65762Y154001D01*
X65782Y154004D01*
X65801Y154002D01*
X65903Y154024D01*
X66005Y154041D01*
X66022Y154050D01*
X66042Y154054D01*
X66131Y154107D01*
X66222Y154156D01*
X66236Y154170D01*
X66253Y154180D01*
X66320Y154259D01*
X66391Y154334D01*
X66400Y154352D01*
X66413Y154367D01*
X66452Y154463D01*
X66495Y154557D01*
X66497Y154577D01*
X66505Y154595D01*
X66523Y154762D01*
X66523Y165541D01*
X69335Y165541D01*
X69981Y165368D01*
X70560Y165033D01*
X70845Y164748D01*
X70919Y164695D01*
X70989Y164635D01*
X71019Y164623D01*
X71045Y164604D01*
X71132Y164577D01*
X71217Y164543D01*
X71258Y164539D01*
X71280Y164532D01*
X71312Y164533D01*
X71384Y164525D01*
X80632Y164525D01*
X80962Y164195D01*
X80978Y164183D01*
X80990Y164167D01*
X81077Y164111D01*
X81161Y164051D01*
X81180Y164045D01*
X81197Y164034D01*
X81298Y164009D01*
X81397Y163979D01*
X81416Y163979D01*
X81436Y163974D01*
X81539Y163982D01*
X81642Y163985D01*
X81661Y163992D01*
X81681Y163993D01*
X81776Y164034D01*
X81873Y164069D01*
X81889Y164082D01*
X81907Y164090D01*
X82038Y164195D01*
X82368Y164525D01*
X91632Y164525D01*
X91962Y164195D01*
X91978Y164183D01*
X91990Y164167D01*
X92077Y164111D01*
X92161Y164051D01*
X92180Y164045D01*
X92197Y164034D01*
X92298Y164009D01*
X92397Y163979D01*
X92416Y163979D01*
X92436Y163974D01*
X92539Y163982D01*
X92642Y163985D01*
X92661Y163992D01*
X92681Y163993D01*
X92776Y164034D01*
X92873Y164069D01*
X92889Y164082D01*
X92907Y164090D01*
X93038Y164195D01*
X93368Y164525D01*
X94698Y164525D01*
X94718Y164528D01*
X94737Y164526D01*
X94839Y164548D01*
X94941Y164564D01*
X94958Y164574D01*
X94978Y164578D01*
X95067Y164631D01*
X95158Y164680D01*
X95172Y164694D01*
X95189Y164704D01*
X95256Y164783D01*
X95328Y164858D01*
X95336Y164876D01*
X95349Y164891D01*
X95388Y164987D01*
X95431Y165081D01*
X95433Y165101D01*
X95441Y165119D01*
X95459Y165286D01*
X95459Y166552D01*
X128220Y199313D01*
X128273Y199387D01*
X128333Y199457D01*
X128345Y199487D01*
X128364Y199513D01*
X128391Y199600D01*
X128425Y199685D01*
X128429Y199726D01*
X128436Y199748D01*
X128435Y199780D01*
X128443Y199852D01*
X128443Y203095D01*
X131405Y206057D01*
X135595Y206057D01*
X138557Y203095D01*
X138557Y198905D01*
X135595Y195943D01*
X132352Y195943D01*
X132262Y195929D01*
X132171Y195921D01*
X132141Y195909D01*
X132109Y195904D01*
X132028Y195861D01*
X131944Y195825D01*
X131912Y195799D01*
X131892Y195788D01*
X131869Y195765D01*
X131813Y195720D01*
X101917Y165824D01*
X101876Y165766D01*
X101826Y165714D01*
X101804Y165667D01*
X101774Y165625D01*
X101753Y165556D01*
X101723Y165491D01*
X101717Y165439D01*
X101701Y165389D01*
X101703Y165318D01*
X101695Y165247D01*
X101707Y165196D01*
X101708Y165144D01*
X101732Y165076D01*
X101748Y165006D01*
X101774Y164961D01*
X101792Y164913D01*
X101837Y164857D01*
X101874Y164795D01*
X101913Y164761D01*
X101946Y164721D01*
X102006Y164682D01*
X102061Y164635D01*
X102109Y164616D01*
X102153Y164588D01*
X102222Y164570D01*
X102289Y164543D01*
X102360Y164535D01*
X102391Y164527D01*
X102415Y164529D01*
X102456Y164525D01*
X102632Y164525D01*
X102962Y164195D01*
X102978Y164183D01*
X102990Y164167D01*
X103077Y164111D01*
X103161Y164051D01*
X103180Y164045D01*
X103197Y164034D01*
X103298Y164009D01*
X103397Y163979D01*
X103416Y163979D01*
X103436Y163974D01*
X103539Y163982D01*
X103642Y163985D01*
X103661Y163992D01*
X103681Y163993D01*
X103776Y164034D01*
X103873Y164069D01*
X103889Y164082D01*
X103907Y164090D01*
X104038Y164195D01*
X104368Y164525D01*
X113632Y164525D01*
X113962Y164195D01*
X113978Y164183D01*
X113990Y164167D01*
X114077Y164111D01*
X114161Y164051D01*
X114180Y164045D01*
X114197Y164034D01*
X114298Y164009D01*
X114397Y163979D01*
X114416Y163979D01*
X114436Y163974D01*
X114539Y163982D01*
X114642Y163985D01*
X114661Y163992D01*
X114681Y163993D01*
X114776Y164034D01*
X114873Y164069D01*
X114889Y164082D01*
X114907Y164090D01*
X115038Y164195D01*
X115368Y164525D01*
X124632Y164525D01*
X125525Y163632D01*
X125525Y144368D01*
X124632Y143475D01*
X115368Y143475D01*
X115038Y143805D01*
X115022Y143817D01*
X115010Y143833D01*
X114922Y143889D01*
X114839Y143949D01*
X114820Y143955D01*
X114803Y143966D01*
X114702Y143991D01*
X114603Y144021D01*
X114584Y144021D01*
X114564Y144026D01*
X114461Y144018D01*
X114358Y144015D01*
X114339Y144008D01*
X114319Y144007D01*
X114224Y143966D01*
X114127Y143931D01*
X114111Y143918D01*
X114093Y143910D01*
X113962Y143805D01*
X113913Y143757D01*
X113901Y143741D01*
X113886Y143728D01*
X113830Y143641D01*
X113769Y143557D01*
X113764Y143538D01*
X113753Y143521D01*
X113727Y143421D01*
X113697Y143322D01*
X113698Y143302D01*
X113693Y143283D01*
X113701Y143180D01*
X113703Y143076D01*
X113710Y143057D01*
X113712Y143037D01*
X113752Y142943D01*
X113788Y142845D01*
X113800Y142829D01*
X113808Y142811D01*
X113913Y142680D01*
X118329Y138264D01*
X118403Y138211D01*
X118473Y138151D01*
X118503Y138139D01*
X118529Y138120D01*
X118616Y138093D01*
X118701Y138059D01*
X118742Y138055D01*
X118764Y138048D01*
X118796Y138049D01*
X118868Y138041D01*
X131074Y138041D01*
X131164Y138055D01*
X131255Y138063D01*
X131285Y138075D01*
X131317Y138080D01*
X131398Y138123D01*
X131481Y138159D01*
X131514Y138185D01*
X131534Y138196D01*
X131556Y138219D01*
X131612Y138264D01*
X133905Y140557D01*
X138095Y140557D01*
X141057Y137595D01*
X141057Y133405D01*
X138095Y130443D01*
X133905Y130443D01*
X131612Y132736D01*
X131538Y132789D01*
X131469Y132849D01*
X131439Y132861D01*
X131413Y132880D01*
X131326Y132907D01*
X131241Y132941D01*
X131200Y132945D01*
X131178Y132952D01*
X131145Y132951D01*
X131074Y132959D01*
X116448Y132959D01*
X106396Y143011D01*
X106353Y143083D01*
X106304Y143174D01*
X106290Y143188D01*
X106280Y143205D01*
X106201Y143272D01*
X106126Y143344D01*
X106108Y143352D01*
X106093Y143365D01*
X105997Y143404D01*
X105903Y143447D01*
X105883Y143449D01*
X105865Y143457D01*
X105698Y143475D01*
X104368Y143475D01*
X104038Y143805D01*
X104022Y143817D01*
X104010Y143833D01*
X103923Y143889D01*
X103839Y143949D01*
X103820Y143955D01*
X103803Y143966D01*
X103702Y143991D01*
X103603Y144021D01*
X103584Y144021D01*
X103564Y144026D01*
X103461Y144018D01*
X103358Y144015D01*
X103339Y144008D01*
X103319Y144007D01*
X103224Y143966D01*
X103127Y143931D01*
X103111Y143918D01*
X103093Y143910D01*
X102962Y143805D01*
X102632Y143475D01*
X93368Y143475D01*
X93038Y143805D01*
X93022Y143817D01*
X93010Y143833D01*
X92923Y143889D01*
X92839Y143949D01*
X92820Y143955D01*
X92803Y143966D01*
X92702Y143991D01*
X92603Y144021D01*
X92584Y144021D01*
X92564Y144026D01*
X92461Y144018D01*
X92358Y144015D01*
X92339Y144008D01*
X92319Y144007D01*
X92224Y143966D01*
X92127Y143931D01*
X92111Y143918D01*
X92093Y143910D01*
X91962Y143805D01*
X91632Y143475D01*
X91318Y143475D01*
X91298Y143472D01*
X91279Y143474D01*
X91177Y143452D01*
X91075Y143436D01*
X91058Y143426D01*
X91038Y143422D01*
X90949Y143369D01*
X90858Y143320D01*
X90844Y143306D01*
X90827Y143296D01*
X90760Y143217D01*
X90688Y143142D01*
X90680Y143124D01*
X90667Y143109D01*
X90628Y143013D01*
X90585Y142919D01*
X90583Y142899D01*
X90575Y142881D01*
X90557Y142714D01*
X90557Y138789D01*
X90571Y138698D01*
X90579Y138608D01*
X90591Y138578D01*
X90596Y138546D01*
X90639Y138465D01*
X90675Y138381D01*
X90701Y138349D01*
X90712Y138328D01*
X90735Y138306D01*
X90780Y138250D01*
X111250Y117780D01*
X111324Y117727D01*
X111394Y117667D01*
X111424Y117655D01*
X111450Y117636D01*
X111537Y117609D01*
X111622Y117575D01*
X111663Y117571D01*
X111685Y117564D01*
X111717Y117565D01*
X111789Y117557D01*
X124737Y117557D01*
X124827Y117571D01*
X124918Y117579D01*
X124947Y117591D01*
X124979Y117596D01*
X125060Y117639D01*
X125144Y117675D01*
X125176Y117701D01*
X125197Y117712D01*
X125219Y117735D01*
X125275Y117780D01*
X126802Y119307D01*
X131198Y119307D01*
X134307Y116198D01*
X134307Y111802D01*
X131198Y108693D01*
X126802Y108693D01*
X125275Y110220D01*
X125201Y110273D01*
X125131Y110333D01*
X125101Y110345D01*
X125075Y110364D01*
X124988Y110391D01*
X124903Y110425D01*
X124862Y110429D01*
X124840Y110436D01*
X124808Y110435D01*
X124737Y110443D01*
X108527Y110443D01*
X83443Y135527D01*
X83443Y142714D01*
X83440Y142734D01*
X83442Y142753D01*
X83420Y142855D01*
X83404Y142957D01*
X83394Y142974D01*
X83390Y142994D01*
X83337Y143083D01*
X83288Y143174D01*
X83274Y143188D01*
X83264Y143205D01*
X83185Y143272D01*
X83110Y143344D01*
X83092Y143352D01*
X83077Y143365D01*
X82981Y143404D01*
X82887Y143447D01*
X82867Y143449D01*
X82849Y143457D01*
X82682Y143475D01*
X82368Y143475D01*
X82038Y143805D01*
X82022Y143817D01*
X82010Y143833D01*
X81923Y143889D01*
X81839Y143949D01*
X81820Y143955D01*
X81803Y143966D01*
X81702Y143991D01*
X81603Y144021D01*
X81584Y144021D01*
X81564Y144026D01*
X81461Y144018D01*
X81358Y144015D01*
X81339Y144008D01*
X81319Y144007D01*
X81224Y143966D01*
X81127Y143931D01*
X81111Y143918D01*
X81093Y143910D01*
X80962Y143805D01*
X80632Y143475D01*
X79302Y143475D01*
X79282Y143472D01*
X79263Y143474D01*
X79161Y143452D01*
X79059Y143436D01*
X79042Y143426D01*
X79022Y143422D01*
X78933Y143369D01*
X78842Y143320D01*
X78828Y143306D01*
X78811Y143296D01*
X78744Y143217D01*
X78672Y143142D01*
X78664Y143124D01*
X78651Y143109D01*
X78612Y143013D01*
X78569Y142919D01*
X78567Y142899D01*
X78559Y142881D01*
X78541Y142714D01*
X78541Y139948D01*
X73264Y134671D01*
X73211Y134597D01*
X73151Y134527D01*
X73139Y134497D01*
X73120Y134471D01*
X73093Y134384D01*
X73059Y134299D01*
X73055Y134258D01*
X73048Y134236D01*
X73049Y134204D01*
X73041Y134132D01*
X73041Y115368D01*
X73055Y115278D01*
X73063Y115187D01*
X73075Y115157D01*
X73080Y115125D01*
X73123Y115044D01*
X73159Y114960D01*
X73185Y114928D01*
X73196Y114908D01*
X73219Y114885D01*
X73264Y114829D01*
X95829Y92264D01*
X95903Y92211D01*
X95973Y92151D01*
X96003Y92139D01*
X96029Y92120D01*
X96116Y92093D01*
X96201Y92059D01*
X96242Y92055D01*
X96264Y92048D01*
X96296Y92049D01*
X96368Y92041D01*
X159132Y92041D01*
X159222Y92055D01*
G37*
%LPC*%
G36*
X122683Y33839D02*
X122683Y33839D01*
X117479Y35995D01*
X113495Y39979D01*
X111339Y45183D01*
X111339Y50817D01*
X113495Y56021D01*
X117479Y60005D01*
X122683Y62161D01*
X128317Y62161D01*
X133521Y60005D01*
X137505Y56021D01*
X139661Y50817D01*
X139661Y45183D01*
X137505Y39979D01*
X133521Y35995D01*
X128317Y33839D01*
X122683Y33839D01*
G37*
%LPD*%
%LPC*%
G36*
X42683Y33839D02*
X42683Y33839D01*
X37479Y35995D01*
X33495Y39979D01*
X31339Y45183D01*
X31339Y50817D01*
X33495Y56021D01*
X37479Y60005D01*
X42683Y62161D01*
X48317Y62161D01*
X53521Y60005D01*
X57505Y56021D01*
X59661Y50817D01*
X59661Y45183D01*
X57505Y39979D01*
X53521Y35995D01*
X48317Y33839D01*
X42683Y33839D01*
G37*
%LPD*%
%LPC*%
G36*
X140368Y221975D02*
X140368Y221975D01*
X139475Y222868D01*
X139475Y244132D01*
X140368Y245025D01*
X159632Y245025D01*
X160525Y244132D01*
X160525Y222868D01*
X159632Y221975D01*
X140368Y221975D01*
G37*
%LPD*%
%LPC*%
G36*
X17523Y51023D02*
X17523Y51023D01*
X17523Y63041D01*
X23334Y63041D01*
X23981Y62868D01*
X24560Y62533D01*
X25033Y62060D01*
X25368Y61481D01*
X25541Y60834D01*
X25541Y51023D01*
X17523Y51023D01*
G37*
%LPD*%
%LPC*%
G36*
X17523Y35959D02*
X17523Y35959D01*
X17523Y47977D01*
X25541Y47977D01*
X25541Y38166D01*
X25368Y37519D01*
X25033Y36940D01*
X24560Y36467D01*
X23981Y36132D01*
X23334Y35959D01*
X17523Y35959D01*
G37*
%LPD*%
%LPC*%
G36*
X169459Y51023D02*
X169459Y51023D01*
X169459Y60834D01*
X169632Y61481D01*
X169967Y62060D01*
X170440Y62533D01*
X171019Y62868D01*
X171666Y63041D01*
X177477Y63041D01*
X177477Y51023D01*
X169459Y51023D01*
G37*
%LPD*%
%LPC*%
G36*
X171666Y35959D02*
X171666Y35959D01*
X171019Y36132D01*
X170440Y36467D01*
X169967Y36940D01*
X169632Y37519D01*
X169459Y38166D01*
X169459Y47977D01*
X177477Y47977D01*
X177477Y35959D01*
X171666Y35959D01*
G37*
%LPD*%
%LPC*%
G36*
X154959Y148523D02*
X154959Y148523D01*
X154959Y154334D01*
X155132Y154981D01*
X155467Y155560D01*
X155940Y156033D01*
X156519Y156368D01*
X157166Y156541D01*
X164977Y156541D01*
X164977Y148523D01*
X154959Y148523D01*
G37*
%LPD*%
%LPC*%
G36*
X157166Y137459D02*
X157166Y137459D01*
X156519Y137632D01*
X155940Y137967D01*
X155467Y138440D01*
X155132Y139019D01*
X154959Y139666D01*
X154959Y145477D01*
X164977Y145477D01*
X164977Y137459D01*
X157166Y137459D01*
G37*
%LPD*%
%LPC*%
G36*
X168459Y357999D02*
X168459Y357999D01*
X168459Y359834D01*
X168632Y360481D01*
X169001Y361119D01*
X169025Y361183D01*
X169058Y361242D01*
X169064Y361276D01*
X169066Y361279D01*
X169068Y361294D01*
X169068Y361297D01*
X169088Y361349D01*
X169091Y361417D01*
X169103Y361483D01*
X169095Y361539D01*
X169097Y361595D01*
X169078Y361660D01*
X169069Y361727D01*
X169037Y361800D01*
X169027Y361831D01*
X169015Y361848D01*
X169001Y361881D01*
X168632Y362519D01*
X168459Y363166D01*
X168459Y365001D01*
X176001Y365001D01*
X176001Y357999D01*
X168459Y357999D01*
G37*
%LPD*%
%LPC*%
G36*
X154023Y206523D02*
X154023Y206523D01*
X154023Y211541D01*
X158834Y211541D01*
X159481Y211368D01*
X160060Y211033D01*
X160533Y210560D01*
X160868Y209981D01*
X161041Y209334D01*
X161041Y206523D01*
X154023Y206523D01*
G37*
%LPD*%
%LPC*%
G36*
X143959Y206523D02*
X143959Y206523D01*
X143959Y209334D01*
X144132Y209981D01*
X144467Y210560D01*
X144940Y211033D01*
X145519Y211368D01*
X146166Y211541D01*
X150977Y211541D01*
X150977Y206523D01*
X143959Y206523D01*
G37*
%LPD*%
%LPC*%
G36*
X167459Y206523D02*
X167459Y206523D01*
X167459Y209334D01*
X167632Y209981D01*
X167967Y210560D01*
X168440Y211033D01*
X169019Y211368D01*
X169666Y211541D01*
X174477Y211541D01*
X174477Y206523D01*
X167459Y206523D01*
G37*
%LPD*%
%LPC*%
G36*
X154023Y198459D02*
X154023Y198459D01*
X154023Y203477D01*
X161041Y203477D01*
X161041Y200666D01*
X160868Y200019D01*
X160533Y199440D01*
X160060Y198967D01*
X159481Y198632D01*
X158834Y198459D01*
X154023Y198459D01*
G37*
%LPD*%
%LPC*%
G36*
X169666Y198459D02*
X169666Y198459D01*
X169019Y198632D01*
X168440Y198967D01*
X167967Y199440D01*
X167632Y200019D01*
X167459Y200666D01*
X167459Y203477D01*
X174477Y203477D01*
X174477Y198459D01*
X169666Y198459D01*
G37*
%LPD*%
%LPC*%
G36*
X146166Y198459D02*
X146166Y198459D01*
X145519Y198632D01*
X144940Y198967D01*
X144467Y199440D01*
X144132Y200019D01*
X143959Y200666D01*
X143959Y203477D01*
X150977Y203477D01*
X150977Y198459D01*
X146166Y198459D01*
G37*
%LPD*%
%LPC*%
G36*
X168459Y367999D02*
X168459Y367999D01*
X168459Y369834D01*
X168632Y370481D01*
X168967Y371060D01*
X169440Y371533D01*
X170019Y371868D01*
X170666Y372041D01*
X176001Y372041D01*
X176001Y367999D01*
X168459Y367999D01*
G37*
%LPD*%
%LPC*%
G36*
X152499Y204999D02*
X152499Y204999D01*
X152499Y205001D01*
X152501Y205001D01*
X152501Y204999D01*
X152499Y204999D01*
G37*
%LPD*%
D10*
X87000Y154000D03*
X76000Y154000D03*
X65000Y154000D03*
X54000Y154000D03*
X43000Y154000D03*
X98000Y154000D03*
X109000Y154000D03*
X120000Y154000D03*
D11*
X17500Y148000D03*
D12*
X179000Y49500D03*
D10*
X32000Y154000D03*
D13*
X166500Y147000D03*
D12*
X16000Y49500D03*
D14*
X177500Y366500D03*
X177500Y356500D03*
X177500Y346500D03*
X177500Y336500D03*
X177500Y326500D03*
X177500Y316500D03*
X177500Y306500D03*
X177500Y296500D03*
X177500Y286500D03*
X177500Y276500D03*
X177500Y266500D03*
X177500Y256500D03*
D15*
X150000Y233500D03*
X150000Y389500D03*
D16*
X176000Y205000D03*
X176000Y187000D03*
X152500Y205000D03*
X152500Y187000D03*
D17*
X47500Y196750D03*
X62500Y196750D03*
X47500Y188250D03*
X62500Y188250D03*
D18*
X177500Y76500D03*
X79000Y396000D03*
X17000Y169000D03*
X87000Y396000D03*
X24500Y28500D03*
D19*
X166000Y256500D02*
X177500Y256500D01*
X166000Y256500D02*
X160500Y251000D01*
X140500Y251000D01*
X67500Y196750D02*
X62500Y196750D01*
X67500Y196750D02*
X69500Y198750D01*
X106250Y198750D01*
X133500Y226000D01*
X133500Y244000D01*
X140500Y251000D01*
X164500Y266500D02*
X177500Y266500D01*
X164500Y266500D02*
X157000Y259000D01*
X138500Y259000D01*
X81500Y189500D02*
X79250Y187250D01*
X68500Y187250D01*
X67500Y188250D01*
X62500Y188250D01*
D20*
X81500Y189500D03*
X84500Y208500D03*
D19*
X126500Y247000D02*
X138500Y259000D01*
X126500Y247000D02*
X126500Y229000D01*
X107000Y209500D01*
X85500Y209500D01*
X84500Y208500D01*
X162500Y276500D02*
X177500Y276500D01*
X162500Y276500D02*
X153000Y267000D01*
X136500Y267000D01*
X119500Y250000D01*
X119500Y232000D01*
X106500Y219000D01*
X76500Y219000D01*
X74000Y216500D01*
X45000Y216500D01*
X37500Y209000D01*
X42500Y188250D02*
X47500Y188250D01*
X42500Y188250D02*
X37500Y193250D01*
X37500Y209000D01*
X148000Y275000D02*
X159000Y286000D01*
X177000Y286000D01*
X177500Y286500D01*
X148000Y275000D02*
X130500Y275000D01*
X39324Y226324D02*
X25500Y212500D01*
X25500Y179500D01*
X32000Y173000D01*
X32000Y154000D01*
X111500Y256000D02*
X130500Y275000D01*
X111500Y256000D02*
X111500Y242000D01*
X100500Y231000D01*
X73500Y231000D01*
X68824Y226324D01*
X39324Y226324D01*
D20*
X100500Y265500D03*
X62500Y173000D03*
D19*
X54000Y165000D02*
X54000Y154000D01*
X62000Y173000D02*
X62500Y173000D01*
X62000Y173000D02*
X54000Y165000D01*
X152000Y296500D02*
X177500Y296500D01*
X144500Y289000D02*
X123000Y289000D01*
X100500Y266500D01*
X100500Y265500D01*
X144500Y289000D02*
X152000Y296500D01*
D20*
X122500Y306000D03*
X135000Y169500D03*
D19*
X76000Y154000D02*
X76000Y141000D01*
X70500Y135500D01*
X70500Y114000D01*
X95000Y89500D01*
X160500Y89500D01*
X181324Y110324D02*
X181324Y159500D01*
X176324Y164500D01*
X140000Y164500D01*
X135000Y169500D01*
X181324Y110324D02*
X160500Y89500D01*
X122500Y306000D02*
X123000Y306500D01*
X177500Y306500D01*
D20*
X131250Y325750D03*
D19*
X98000Y165500D02*
X98000Y154000D01*
X98000Y165500D02*
X133500Y201000D01*
D20*
X133500Y201000D03*
D19*
X156500Y316500D02*
X177500Y316500D01*
X156500Y316500D02*
X153500Y319500D01*
X133000Y319500D01*
X131250Y321250D01*
X131250Y325750D01*
D20*
X136000Y135500D03*
X146500Y339500D03*
D19*
X109000Y154000D02*
X109000Y144000D01*
X117500Y135500D01*
X136000Y135500D01*
X163000Y326500D02*
X177500Y326500D01*
X150000Y339500D02*
X146500Y339500D01*
X150000Y339500D02*
X163000Y326500D01*
D21*
X176000Y187000D03*
D22*
X152500Y187000D01*
D23*
X177500Y336500D02*
X177500Y346500D01*
D21*
X155500Y364500D03*
D20*
X51500Y207000D03*
D18*
X129000Y114000D03*
D24*
X87000Y137000D02*
X87000Y154000D01*
X110000Y114000D02*
X129000Y114000D01*
X110000Y114000D02*
X87000Y137000D01*
D19*
X47500Y196750D02*
X47500Y205000D01*
X49500Y207000D02*
X51500Y207000D01*
X49500Y207000D02*
X47500Y205000D01*
D25*
X155500Y355500D02*
X155500Y364500D01*
X164500Y346500D02*
X177500Y346500D01*
X164500Y346500D02*
X155500Y355500D01*
M02*
