M48
;GenerationSoftware,Autodesk,EAGLE,9.6.0*%
;CreationDate,2020-04-29T07:34:17Z*%
FMAT,2
ICI,OFF
METRIC,TZ,000.000
T4C0.300
T3C0.350
T2C0.550
T1C0.800
%
G90
M71
T1
X12550Y4800
X4550Y4800
T2
X17600Y18700
X15550Y36450
T3
X17750Y7650
X7900Y39600
X1700Y16900
X8700Y39600
X2450Y2850
X12900Y11400
T4
X8150Y18950
X8450Y20850
X10050Y26550
X6250Y17300
X12250Y30600
X13500Y16950
X13125Y32575
X13350Y20100
X13600Y13550
X14650Y33950
X5150Y20700
M30