G04 EAGLE Gerber RS-274X export*
G75*
%MOMM*%
%FSLAX34Y34*%
%LPD*%
%INTop Solder Mask*%
%IPPOS*%
%AMOC8*
5,1,8,0,0,1.08239X$1,22.5*%
G01*
%ADD10R,1.003200X2.003200*%
%ADD11R,1.603200X2.203200*%
%ADD12R,1.603200X2.403200*%
%ADD13R,2.003200X1.603200*%
%ADD14C,1.003200*%
%ADD15R,1.503200X0.803200*%
%ADD16R,2.003200X2.203200*%
%ADD17R,1.403200X1.003200*%
%ADD18R,1.003200X0.853200*%
%ADD19C,0.959600*%
%ADD20C,1.159600*%


D10*
X87000Y154000D03*
X76000Y154000D03*
X65000Y154000D03*
X54000Y154000D03*
X43000Y154000D03*
X98000Y154000D03*
X109000Y154000D03*
X120000Y154000D03*
D11*
X17500Y148000D03*
D12*
X179000Y49500D03*
D10*
X32000Y154000D03*
D13*
X166500Y147000D03*
D12*
X16000Y49500D03*
D14*
X125500Y48000D03*
X45500Y48000D03*
D15*
X177500Y366500D03*
X177500Y356500D03*
X177500Y346500D03*
X177500Y336500D03*
X177500Y326500D03*
X177500Y316500D03*
X177500Y306500D03*
X177500Y296500D03*
X177500Y286500D03*
X177500Y276500D03*
X177500Y266500D03*
X177500Y256500D03*
D16*
X150000Y233500D03*
X150000Y389500D03*
D17*
X176000Y205000D03*
X176000Y187000D03*
X152500Y205000D03*
X152500Y187000D03*
D18*
X47500Y196750D03*
X62500Y196750D03*
X47500Y188250D03*
X62500Y188250D03*
D19*
X177500Y76500D03*
X79000Y396000D03*
X17000Y169000D03*
X87000Y396000D03*
X24500Y28500D03*
D20*
X176000Y187000D03*
X155500Y364500D03*
D19*
X129000Y114000D03*
M02*
