G04 EAGLE Gerber RS-274X export*
G75*
%MOMM*%
%FSLAX34Y34*%
%LPD*%
%INMechanical*%
%IPPOS*%
%AMOC8*
5,1,8,0,0,1.08239X$1,22.5*%
G01*
%ADD10C,0.000000*%
%ADD11C,0.000100*%
%ADD12C,0.000009*%
%ADD13C,0.254000*%


D10*
X500Y153000D02*
X500Y18000D01*
X10500Y8000D02*
X180500Y8000D01*
D11*
X184500Y8000D01*
D12*
X500Y153000D02*
X500Y401000D01*
X10500Y411000D02*
X184500Y411000D01*
X194500Y401000D02*
X194500Y18000D01*
D11*
X25000Y251000D02*
X25000Y371000D01*
X25000Y251000D02*
X25004Y250710D01*
X25014Y250420D01*
X25032Y250131D01*
X25056Y249842D01*
X25087Y249554D01*
X25126Y249266D01*
X25171Y248980D01*
X25224Y248694D01*
X25283Y248411D01*
X25349Y248128D01*
X25421Y247848D01*
X25501Y247569D01*
X25587Y247292D01*
X25680Y247017D01*
X25780Y246745D01*
X25886Y246475D01*
X25998Y246208D01*
X26118Y245943D01*
X26243Y245682D01*
X26375Y245423D01*
X26512Y245168D01*
X26656Y244916D01*
X26806Y244668D01*
X26962Y244424D01*
X27124Y244183D01*
X27292Y243947D01*
X27465Y243714D01*
X27644Y243486D01*
X27828Y243262D01*
X28018Y243043D01*
X28213Y242828D01*
X28413Y242618D01*
X28618Y242413D01*
X28828Y242213D01*
X29043Y242018D01*
X29262Y241828D01*
X29486Y241644D01*
X29714Y241465D01*
X29947Y241292D01*
X30183Y241124D01*
X30424Y240962D01*
X30668Y240806D01*
X30916Y240656D01*
X31168Y240512D01*
X31423Y240375D01*
X31682Y240243D01*
X31943Y240118D01*
X32208Y239998D01*
X32475Y239886D01*
X32745Y239780D01*
X33017Y239680D01*
X33292Y239587D01*
X33569Y239501D01*
X33848Y239421D01*
X34128Y239349D01*
X34411Y239283D01*
X34694Y239224D01*
X34980Y239171D01*
X35266Y239126D01*
X35554Y239087D01*
X35842Y239056D01*
X36131Y239032D01*
X36420Y239014D01*
X36710Y239004D01*
X37000Y239000D01*
X38000Y239000D01*
X38290Y239004D01*
X38580Y239014D01*
X38869Y239032D01*
X39158Y239056D01*
X39446Y239087D01*
X39734Y239126D01*
X40020Y239171D01*
X40306Y239224D01*
X40589Y239283D01*
X40872Y239349D01*
X41152Y239421D01*
X41431Y239501D01*
X41708Y239587D01*
X41983Y239680D01*
X42255Y239780D01*
X42525Y239886D01*
X42792Y239998D01*
X43057Y240118D01*
X43318Y240243D01*
X43577Y240375D01*
X43832Y240512D01*
X44084Y240656D01*
X44332Y240806D01*
X44576Y240962D01*
X44817Y241124D01*
X45053Y241292D01*
X45286Y241465D01*
X45514Y241644D01*
X45738Y241828D01*
X45957Y242018D01*
X46172Y242213D01*
X46382Y242413D01*
X46587Y242618D01*
X46787Y242828D01*
X46982Y243043D01*
X47172Y243262D01*
X47356Y243486D01*
X47535Y243714D01*
X47708Y243947D01*
X47876Y244183D01*
X48038Y244424D01*
X48194Y244668D01*
X48344Y244916D01*
X48488Y245168D01*
X48625Y245423D01*
X48757Y245682D01*
X48882Y245943D01*
X49002Y246208D01*
X49114Y246475D01*
X49220Y246745D01*
X49320Y247017D01*
X49413Y247292D01*
X49499Y247569D01*
X49579Y247848D01*
X49651Y248128D01*
X49717Y248411D01*
X49776Y248694D01*
X49829Y248980D01*
X49874Y249266D01*
X49913Y249554D01*
X49944Y249842D01*
X49968Y250131D01*
X49986Y250420D01*
X49996Y250710D01*
X50000Y251000D01*
X50000Y371000D01*
X49996Y371290D01*
X49986Y371580D01*
X49968Y371869D01*
X49944Y372158D01*
X49913Y372446D01*
X49874Y372734D01*
X49829Y373020D01*
X49776Y373306D01*
X49717Y373589D01*
X49651Y373872D01*
X49579Y374152D01*
X49499Y374431D01*
X49413Y374708D01*
X49320Y374983D01*
X49220Y375255D01*
X49114Y375525D01*
X49002Y375792D01*
X48882Y376057D01*
X48757Y376318D01*
X48625Y376577D01*
X48488Y376832D01*
X48344Y377084D01*
X48194Y377332D01*
X48038Y377576D01*
X47876Y377817D01*
X47708Y378053D01*
X47535Y378286D01*
X47356Y378514D01*
X47172Y378738D01*
X46982Y378957D01*
X46787Y379172D01*
X46587Y379382D01*
X46382Y379587D01*
X46172Y379787D01*
X45957Y379982D01*
X45738Y380172D01*
X45514Y380356D01*
X45286Y380535D01*
X45053Y380708D01*
X44817Y380876D01*
X44576Y381038D01*
X44332Y381194D01*
X44084Y381344D01*
X43832Y381488D01*
X43577Y381625D01*
X43318Y381757D01*
X43057Y381882D01*
X42792Y382002D01*
X42525Y382114D01*
X42255Y382220D01*
X41983Y382320D01*
X41708Y382413D01*
X41431Y382499D01*
X41152Y382579D01*
X40872Y382651D01*
X40589Y382717D01*
X40306Y382776D01*
X40020Y382829D01*
X39734Y382874D01*
X39446Y382913D01*
X39158Y382944D01*
X38869Y382968D01*
X38580Y382986D01*
X38290Y382996D01*
X38000Y383000D01*
X37000Y383000D01*
X36710Y382996D01*
X36420Y382986D01*
X36131Y382968D01*
X35842Y382944D01*
X35554Y382913D01*
X35266Y382874D01*
X34980Y382829D01*
X34694Y382776D01*
X34411Y382717D01*
X34128Y382651D01*
X33848Y382579D01*
X33569Y382499D01*
X33292Y382413D01*
X33017Y382320D01*
X32745Y382220D01*
X32475Y382114D01*
X32208Y382002D01*
X31943Y381882D01*
X31682Y381757D01*
X31423Y381625D01*
X31168Y381488D01*
X30916Y381344D01*
X30668Y381194D01*
X30424Y381038D01*
X30183Y380876D01*
X29947Y380708D01*
X29714Y380535D01*
X29486Y380356D01*
X29262Y380172D01*
X29043Y379982D01*
X28828Y379787D01*
X28618Y379587D01*
X28413Y379382D01*
X28213Y379172D01*
X28018Y378957D01*
X27828Y378738D01*
X27644Y378514D01*
X27465Y378286D01*
X27292Y378053D01*
X27124Y377817D01*
X26962Y377576D01*
X26806Y377332D01*
X26656Y377084D01*
X26512Y376832D01*
X26375Y376577D01*
X26243Y376318D01*
X26118Y376057D01*
X25998Y375792D01*
X25886Y375525D01*
X25780Y375255D01*
X25680Y374983D01*
X25587Y374708D01*
X25501Y374431D01*
X25421Y374152D01*
X25349Y373872D01*
X25283Y373589D01*
X25224Y373306D01*
X25171Y373020D01*
X25126Y372734D01*
X25087Y372446D01*
X25056Y372158D01*
X25032Y371869D01*
X25014Y371580D01*
X25004Y371290D01*
X25000Y371000D01*
D12*
X500Y401000D02*
X503Y401242D01*
X512Y401483D01*
X526Y401724D01*
X547Y401965D01*
X573Y402205D01*
X605Y402445D01*
X643Y402684D01*
X686Y402921D01*
X736Y403158D01*
X791Y403393D01*
X851Y403627D01*
X918Y403859D01*
X989Y404090D01*
X1067Y404319D01*
X1150Y404546D01*
X1238Y404771D01*
X1332Y404994D01*
X1431Y405214D01*
X1536Y405432D01*
X1645Y405647D01*
X1760Y405860D01*
X1880Y406070D01*
X2005Y406276D01*
X2135Y406480D01*
X2270Y406681D01*
X2410Y406878D01*
X2554Y407072D01*
X2703Y407262D01*
X2857Y407448D01*
X3015Y407631D01*
X3177Y407810D01*
X3344Y407985D01*
X3515Y408156D01*
X3690Y408323D01*
X3869Y408485D01*
X4052Y408643D01*
X4238Y408797D01*
X4428Y408946D01*
X4622Y409090D01*
X4819Y409230D01*
X5020Y409365D01*
X5224Y409495D01*
X5430Y409620D01*
X5640Y409740D01*
X5853Y409855D01*
X6068Y409964D01*
X6286Y410069D01*
X6506Y410168D01*
X6729Y410262D01*
X6954Y410350D01*
X7181Y410433D01*
X7410Y410511D01*
X7641Y410582D01*
X7873Y410649D01*
X8107Y410709D01*
X8342Y410764D01*
X8579Y410814D01*
X8816Y410857D01*
X9055Y410895D01*
X9295Y410927D01*
X9535Y410953D01*
X9776Y410974D01*
X10017Y410988D01*
X10258Y410997D01*
X10500Y411000D01*
X184500Y411000D02*
X184742Y410997D01*
X184983Y410988D01*
X185224Y410974D01*
X185465Y410953D01*
X185705Y410927D01*
X185945Y410895D01*
X186184Y410857D01*
X186421Y410814D01*
X186658Y410764D01*
X186893Y410709D01*
X187127Y410649D01*
X187359Y410582D01*
X187590Y410511D01*
X187819Y410433D01*
X188046Y410350D01*
X188271Y410262D01*
X188494Y410168D01*
X188714Y410069D01*
X188932Y409964D01*
X189147Y409855D01*
X189360Y409740D01*
X189570Y409620D01*
X189776Y409495D01*
X189980Y409365D01*
X190181Y409230D01*
X190378Y409090D01*
X190572Y408946D01*
X190762Y408797D01*
X190948Y408643D01*
X191131Y408485D01*
X191310Y408323D01*
X191485Y408156D01*
X191656Y407985D01*
X191823Y407810D01*
X191985Y407631D01*
X192143Y407448D01*
X192297Y407262D01*
X192446Y407072D01*
X192590Y406878D01*
X192730Y406681D01*
X192865Y406480D01*
X192995Y406276D01*
X193120Y406070D01*
X193240Y405860D01*
X193355Y405647D01*
X193464Y405432D01*
X193569Y405214D01*
X193668Y404994D01*
X193762Y404771D01*
X193850Y404546D01*
X193933Y404319D01*
X194011Y404090D01*
X194082Y403859D01*
X194149Y403627D01*
X194209Y403393D01*
X194264Y403158D01*
X194314Y402921D01*
X194357Y402684D01*
X194395Y402445D01*
X194427Y402205D01*
X194453Y401965D01*
X194474Y401724D01*
X194488Y401483D01*
X194497Y401242D01*
X194500Y401000D01*
X194500Y18000D02*
X194497Y17758D01*
X194488Y17517D01*
X194474Y17276D01*
X194453Y17035D01*
X194427Y16795D01*
X194395Y16555D01*
X194357Y16316D01*
X194314Y16079D01*
X194264Y15842D01*
X194209Y15607D01*
X194149Y15373D01*
X194082Y15141D01*
X194011Y14910D01*
X193933Y14681D01*
X193850Y14454D01*
X193762Y14229D01*
X193668Y14006D01*
X193569Y13786D01*
X193464Y13568D01*
X193355Y13353D01*
X193240Y13140D01*
X193120Y12930D01*
X192995Y12724D01*
X192865Y12520D01*
X192730Y12319D01*
X192590Y12122D01*
X192446Y11928D01*
X192297Y11738D01*
X192143Y11552D01*
X191985Y11369D01*
X191823Y11190D01*
X191656Y11015D01*
X191485Y10844D01*
X191310Y10677D01*
X191131Y10515D01*
X190948Y10357D01*
X190762Y10203D01*
X190572Y10054D01*
X190378Y9910D01*
X190181Y9770D01*
X189980Y9635D01*
X189776Y9505D01*
X189570Y9380D01*
X189360Y9260D01*
X189147Y9145D01*
X188932Y9036D01*
X188714Y8931D01*
X188494Y8832D01*
X188271Y8738D01*
X188046Y8650D01*
X187819Y8567D01*
X187590Y8489D01*
X187359Y8418D01*
X187127Y8351D01*
X186893Y8291D01*
X186658Y8236D01*
X186421Y8186D01*
X186184Y8143D01*
X185945Y8105D01*
X185705Y8073D01*
X185465Y8047D01*
X185224Y8026D01*
X184983Y8012D01*
X184742Y8003D01*
X184500Y8000D01*
X10500Y8000D02*
X10258Y8003D01*
X10017Y8012D01*
X9776Y8026D01*
X9535Y8047D01*
X9295Y8073D01*
X9055Y8105D01*
X8816Y8143D01*
X8579Y8186D01*
X8342Y8236D01*
X8107Y8291D01*
X7873Y8351D01*
X7641Y8418D01*
X7410Y8489D01*
X7181Y8567D01*
X6954Y8650D01*
X6729Y8738D01*
X6506Y8832D01*
X6286Y8931D01*
X6068Y9036D01*
X5853Y9145D01*
X5640Y9260D01*
X5430Y9380D01*
X5224Y9505D01*
X5020Y9635D01*
X4819Y9770D01*
X4622Y9910D01*
X4428Y10054D01*
X4238Y10203D01*
X4052Y10357D01*
X3869Y10515D01*
X3690Y10677D01*
X3515Y10844D01*
X3344Y11015D01*
X3177Y11190D01*
X3015Y11369D01*
X2857Y11552D01*
X2703Y11738D01*
X2554Y11928D01*
X2410Y12122D01*
X2270Y12319D01*
X2135Y12520D01*
X2005Y12724D01*
X1880Y12930D01*
X1760Y13140D01*
X1645Y13353D01*
X1536Y13568D01*
X1431Y13786D01*
X1332Y14006D01*
X1238Y14229D01*
X1150Y14454D01*
X1067Y14681D01*
X989Y14910D01*
X918Y15141D01*
X851Y15373D01*
X791Y15607D01*
X736Y15842D01*
X686Y16079D01*
X643Y16316D01*
X605Y16555D01*
X573Y16795D01*
X547Y17035D01*
X526Y17276D01*
X512Y17517D01*
X503Y17758D01*
X500Y18000D01*
D10*
X121500Y48000D02*
X121502Y48126D01*
X121508Y48252D01*
X121518Y48378D01*
X121532Y48504D01*
X121550Y48629D01*
X121572Y48753D01*
X121597Y48877D01*
X121627Y49000D01*
X121660Y49121D01*
X121698Y49242D01*
X121739Y49361D01*
X121784Y49480D01*
X121832Y49596D01*
X121884Y49711D01*
X121940Y49824D01*
X122000Y49936D01*
X122063Y50045D01*
X122129Y50153D01*
X122198Y50258D01*
X122271Y50361D01*
X122348Y50462D01*
X122427Y50560D01*
X122509Y50656D01*
X122595Y50749D01*
X122683Y50840D01*
X122774Y50927D01*
X122868Y51012D01*
X122964Y51093D01*
X123063Y51172D01*
X123164Y51247D01*
X123268Y51319D01*
X123374Y51388D01*
X123482Y51454D01*
X123592Y51516D01*
X123704Y51574D01*
X123817Y51629D01*
X123933Y51680D01*
X124050Y51728D01*
X124168Y51772D01*
X124288Y51812D01*
X124409Y51848D01*
X124531Y51881D01*
X124654Y51910D01*
X124778Y51934D01*
X124902Y51955D01*
X125027Y51972D01*
X125153Y51985D01*
X125279Y51994D01*
X125405Y51999D01*
X125532Y52000D01*
X125658Y51997D01*
X125784Y51990D01*
X125910Y51979D01*
X126035Y51964D01*
X126160Y51945D01*
X126284Y51922D01*
X126408Y51896D01*
X126530Y51865D01*
X126652Y51831D01*
X126772Y51792D01*
X126891Y51750D01*
X127009Y51705D01*
X127125Y51655D01*
X127240Y51602D01*
X127352Y51545D01*
X127463Y51485D01*
X127572Y51421D01*
X127679Y51354D01*
X127784Y51284D01*
X127887Y51210D01*
X127987Y51133D01*
X128085Y51053D01*
X128180Y50970D01*
X128272Y50884D01*
X128362Y50795D01*
X128449Y50703D01*
X128532Y50609D01*
X128613Y50512D01*
X128691Y50412D01*
X128766Y50310D01*
X128837Y50206D01*
X128905Y50099D01*
X128969Y49991D01*
X129030Y49880D01*
X129088Y49768D01*
X129142Y49654D01*
X129192Y49538D01*
X129239Y49421D01*
X129282Y49302D01*
X129321Y49182D01*
X129357Y49061D01*
X129388Y48938D01*
X129416Y48815D01*
X129440Y48691D01*
X129460Y48566D01*
X129476Y48441D01*
X129488Y48315D01*
X129496Y48189D01*
X129500Y48063D01*
X129500Y47937D01*
X129496Y47811D01*
X129488Y47685D01*
X129476Y47559D01*
X129460Y47434D01*
X129440Y47309D01*
X129416Y47185D01*
X129388Y47062D01*
X129357Y46939D01*
X129321Y46818D01*
X129282Y46698D01*
X129239Y46579D01*
X129192Y46462D01*
X129142Y46346D01*
X129088Y46232D01*
X129030Y46120D01*
X128969Y46009D01*
X128905Y45901D01*
X128837Y45794D01*
X128766Y45690D01*
X128691Y45588D01*
X128613Y45488D01*
X128532Y45391D01*
X128449Y45297D01*
X128362Y45205D01*
X128272Y45116D01*
X128180Y45030D01*
X128085Y44947D01*
X127987Y44867D01*
X127887Y44790D01*
X127784Y44716D01*
X127679Y44646D01*
X127572Y44579D01*
X127463Y44515D01*
X127352Y44455D01*
X127240Y44398D01*
X127125Y44345D01*
X127009Y44295D01*
X126891Y44250D01*
X126772Y44208D01*
X126652Y44169D01*
X126530Y44135D01*
X126408Y44104D01*
X126284Y44078D01*
X126160Y44055D01*
X126035Y44036D01*
X125910Y44021D01*
X125784Y44010D01*
X125658Y44003D01*
X125532Y44000D01*
X125405Y44001D01*
X125279Y44006D01*
X125153Y44015D01*
X125027Y44028D01*
X124902Y44045D01*
X124778Y44066D01*
X124654Y44090D01*
X124531Y44119D01*
X124409Y44152D01*
X124288Y44188D01*
X124168Y44228D01*
X124050Y44272D01*
X123933Y44320D01*
X123817Y44371D01*
X123704Y44426D01*
X123592Y44484D01*
X123482Y44546D01*
X123374Y44612D01*
X123268Y44681D01*
X123164Y44753D01*
X123063Y44828D01*
X122964Y44907D01*
X122868Y44988D01*
X122774Y45073D01*
X122683Y45160D01*
X122595Y45251D01*
X122509Y45344D01*
X122427Y45440D01*
X122348Y45538D01*
X122271Y45639D01*
X122198Y45742D01*
X122129Y45847D01*
X122063Y45955D01*
X122000Y46064D01*
X121940Y46176D01*
X121884Y46289D01*
X121832Y46404D01*
X121784Y46520D01*
X121739Y46639D01*
X121698Y46758D01*
X121660Y46879D01*
X121627Y47000D01*
X121597Y47123D01*
X121572Y47247D01*
X121550Y47371D01*
X121532Y47496D01*
X121518Y47622D01*
X121508Y47748D01*
X121502Y47874D01*
X121500Y48000D01*
X41500Y48000D02*
X41502Y48126D01*
X41508Y48252D01*
X41518Y48378D01*
X41532Y48504D01*
X41550Y48629D01*
X41572Y48753D01*
X41597Y48877D01*
X41627Y49000D01*
X41660Y49121D01*
X41698Y49242D01*
X41739Y49361D01*
X41784Y49480D01*
X41832Y49596D01*
X41884Y49711D01*
X41940Y49824D01*
X42000Y49936D01*
X42063Y50045D01*
X42129Y50153D01*
X42198Y50258D01*
X42271Y50361D01*
X42348Y50462D01*
X42427Y50560D01*
X42509Y50656D01*
X42595Y50749D01*
X42683Y50840D01*
X42774Y50927D01*
X42868Y51012D01*
X42964Y51093D01*
X43063Y51172D01*
X43164Y51247D01*
X43268Y51319D01*
X43374Y51388D01*
X43482Y51454D01*
X43592Y51516D01*
X43704Y51574D01*
X43817Y51629D01*
X43933Y51680D01*
X44050Y51728D01*
X44168Y51772D01*
X44288Y51812D01*
X44409Y51848D01*
X44531Y51881D01*
X44654Y51910D01*
X44778Y51934D01*
X44902Y51955D01*
X45027Y51972D01*
X45153Y51985D01*
X45279Y51994D01*
X45405Y51999D01*
X45532Y52000D01*
X45658Y51997D01*
X45784Y51990D01*
X45910Y51979D01*
X46035Y51964D01*
X46160Y51945D01*
X46284Y51922D01*
X46408Y51896D01*
X46530Y51865D01*
X46652Y51831D01*
X46772Y51792D01*
X46891Y51750D01*
X47009Y51705D01*
X47125Y51655D01*
X47240Y51602D01*
X47352Y51545D01*
X47463Y51485D01*
X47572Y51421D01*
X47679Y51354D01*
X47784Y51284D01*
X47887Y51210D01*
X47987Y51133D01*
X48085Y51053D01*
X48180Y50970D01*
X48272Y50884D01*
X48362Y50795D01*
X48449Y50703D01*
X48532Y50609D01*
X48613Y50512D01*
X48691Y50412D01*
X48766Y50310D01*
X48837Y50206D01*
X48905Y50099D01*
X48969Y49991D01*
X49030Y49880D01*
X49088Y49768D01*
X49142Y49654D01*
X49192Y49538D01*
X49239Y49421D01*
X49282Y49302D01*
X49321Y49182D01*
X49357Y49061D01*
X49388Y48938D01*
X49416Y48815D01*
X49440Y48691D01*
X49460Y48566D01*
X49476Y48441D01*
X49488Y48315D01*
X49496Y48189D01*
X49500Y48063D01*
X49500Y47937D01*
X49496Y47811D01*
X49488Y47685D01*
X49476Y47559D01*
X49460Y47434D01*
X49440Y47309D01*
X49416Y47185D01*
X49388Y47062D01*
X49357Y46939D01*
X49321Y46818D01*
X49282Y46698D01*
X49239Y46579D01*
X49192Y46462D01*
X49142Y46346D01*
X49088Y46232D01*
X49030Y46120D01*
X48969Y46009D01*
X48905Y45901D01*
X48837Y45794D01*
X48766Y45690D01*
X48691Y45588D01*
X48613Y45488D01*
X48532Y45391D01*
X48449Y45297D01*
X48362Y45205D01*
X48272Y45116D01*
X48180Y45030D01*
X48085Y44947D01*
X47987Y44867D01*
X47887Y44790D01*
X47784Y44716D01*
X47679Y44646D01*
X47572Y44579D01*
X47463Y44515D01*
X47352Y44455D01*
X47240Y44398D01*
X47125Y44345D01*
X47009Y44295D01*
X46891Y44250D01*
X46772Y44208D01*
X46652Y44169D01*
X46530Y44135D01*
X46408Y44104D01*
X46284Y44078D01*
X46160Y44055D01*
X46035Y44036D01*
X45910Y44021D01*
X45784Y44010D01*
X45658Y44003D01*
X45532Y44000D01*
X45405Y44001D01*
X45279Y44006D01*
X45153Y44015D01*
X45027Y44028D01*
X44902Y44045D01*
X44778Y44066D01*
X44654Y44090D01*
X44531Y44119D01*
X44409Y44152D01*
X44288Y44188D01*
X44168Y44228D01*
X44050Y44272D01*
X43933Y44320D01*
X43817Y44371D01*
X43704Y44426D01*
X43592Y44484D01*
X43482Y44546D01*
X43374Y44612D01*
X43268Y44681D01*
X43164Y44753D01*
X43063Y44828D01*
X42964Y44907D01*
X42868Y44988D01*
X42774Y45073D01*
X42683Y45160D01*
X42595Y45251D01*
X42509Y45344D01*
X42427Y45440D01*
X42348Y45538D01*
X42271Y45639D01*
X42198Y45742D01*
X42129Y45847D01*
X42063Y45955D01*
X42000Y46064D01*
X41940Y46176D01*
X41884Y46289D01*
X41832Y46404D01*
X41784Y46520D01*
X41739Y46639D01*
X41698Y46758D01*
X41660Y46879D01*
X41627Y47000D01*
X41597Y47123D01*
X41572Y47247D01*
X41550Y47371D01*
X41532Y47496D01*
X41518Y47622D01*
X41508Y47748D01*
X41502Y47874D01*
X41500Y48000D01*
D13*
X500Y18000D02*
X538Y17128D01*
X652Y16264D01*
X841Y15412D01*
X1103Y14580D01*
X1437Y13774D01*
X1840Y13000D01*
X2308Y12264D01*
X2840Y11572D01*
X3429Y10929D01*
X4072Y10340D01*
X4764Y9808D01*
X5500Y9340D01*
X6274Y8937D01*
X7080Y8603D01*
X7912Y8341D01*
X8764Y8152D01*
X9628Y8038D01*
X10500Y8000D01*
X184500Y8000D01*
X185372Y8038D01*
X186236Y8152D01*
X187088Y8341D01*
X187920Y8603D01*
X188726Y8937D01*
X189500Y9340D01*
X190236Y9808D01*
X190928Y10340D01*
X191571Y10929D01*
X192160Y11572D01*
X192692Y12264D01*
X193160Y13000D01*
X193563Y13774D01*
X193897Y14580D01*
X194159Y15412D01*
X194348Y16264D01*
X194462Y17128D01*
X194500Y18000D01*
X194500Y401000D01*
X194462Y401872D01*
X194348Y402736D01*
X194159Y403588D01*
X193897Y404420D01*
X193563Y405226D01*
X193160Y406000D01*
X192692Y406736D01*
X192160Y407428D01*
X191571Y408071D01*
X190928Y408660D01*
X190236Y409192D01*
X189500Y409660D01*
X188726Y410063D01*
X187920Y410397D01*
X187088Y410659D01*
X186236Y410848D01*
X185372Y410962D01*
X184500Y411000D01*
X10500Y411000D01*
X9628Y410962D01*
X8764Y410848D01*
X7912Y410659D01*
X7080Y410397D01*
X6274Y410063D01*
X5500Y409660D01*
X4764Y409192D01*
X4072Y408660D01*
X3429Y408071D01*
X2840Y407428D01*
X2308Y406736D01*
X1840Y406000D01*
X1437Y405226D01*
X1103Y404420D01*
X841Y403588D01*
X652Y402736D01*
X538Y401872D01*
X500Y401000D01*
X500Y153000D01*
X500Y18000D01*
X25000Y251000D02*
X25046Y249954D01*
X25182Y248916D01*
X25409Y247894D01*
X25724Y246896D01*
X26124Y245929D01*
X26608Y245000D01*
X27170Y244117D01*
X27807Y243287D01*
X28515Y242515D01*
X29287Y241807D01*
X30117Y241170D01*
X31000Y240608D01*
X31929Y240124D01*
X32896Y239724D01*
X33894Y239409D01*
X34916Y239182D01*
X35954Y239046D01*
X37000Y239000D01*
X38000Y239000D01*
X39046Y239046D01*
X40084Y239182D01*
X41106Y239409D01*
X42104Y239724D01*
X43071Y240124D01*
X44000Y240608D01*
X44883Y241170D01*
X45713Y241807D01*
X46485Y242515D01*
X47193Y243287D01*
X47830Y244117D01*
X48392Y245000D01*
X48876Y245929D01*
X49276Y246896D01*
X49591Y247894D01*
X49818Y248916D01*
X49954Y249954D01*
X50000Y251000D01*
X50000Y371000D01*
X49954Y372046D01*
X49818Y373084D01*
X49591Y374106D01*
X49276Y375104D01*
X48876Y376071D01*
X48392Y377000D01*
X47830Y377883D01*
X47193Y378713D01*
X46485Y379485D01*
X45713Y380193D01*
X44883Y380830D01*
X44000Y381392D01*
X43071Y381876D01*
X42104Y382276D01*
X41106Y382591D01*
X40084Y382818D01*
X39046Y382954D01*
X38000Y383000D01*
X37000Y383000D01*
X35954Y382954D01*
X34916Y382818D01*
X33894Y382591D01*
X32896Y382276D01*
X31929Y381876D01*
X31000Y381392D01*
X30117Y380830D01*
X29287Y380193D01*
X28515Y379485D01*
X27807Y378713D01*
X27170Y377883D01*
X26608Y377000D01*
X26124Y376071D01*
X25724Y375104D01*
X25409Y374106D01*
X25182Y373084D01*
X25046Y372046D01*
X25000Y371000D01*
X25000Y251000D01*
X125238Y44000D02*
X124718Y44068D01*
X124211Y44204D01*
X123727Y44405D01*
X123273Y44667D01*
X122857Y44986D01*
X122486Y45357D01*
X122167Y45773D01*
X121905Y46227D01*
X121704Y46711D01*
X121568Y47218D01*
X121500Y47738D01*
X121500Y48262D01*
X121568Y48782D01*
X121704Y49289D01*
X121905Y49773D01*
X122167Y50227D01*
X122486Y50643D01*
X122857Y51014D01*
X123273Y51333D01*
X123727Y51595D01*
X124211Y51796D01*
X124718Y51932D01*
X125238Y52000D01*
X125762Y52000D01*
X126282Y51932D01*
X126789Y51796D01*
X127273Y51595D01*
X127727Y51333D01*
X128143Y51014D01*
X128514Y50643D01*
X128833Y50227D01*
X129095Y49773D01*
X129296Y49289D01*
X129432Y48782D01*
X129500Y48262D01*
X129500Y47738D01*
X129432Y47218D01*
X129296Y46711D01*
X129095Y46227D01*
X128833Y45773D01*
X128514Y45357D01*
X128143Y44986D01*
X127727Y44667D01*
X127273Y44405D01*
X126789Y44204D01*
X126282Y44068D01*
X125762Y44000D01*
X125238Y44000D01*
X45238Y44000D02*
X44718Y44068D01*
X44211Y44204D01*
X43727Y44405D01*
X43273Y44667D01*
X42857Y44986D01*
X42486Y45357D01*
X42167Y45773D01*
X41905Y46227D01*
X41704Y46711D01*
X41568Y47218D01*
X41500Y47738D01*
X41500Y48262D01*
X41568Y48782D01*
X41704Y49289D01*
X41905Y49773D01*
X42167Y50227D01*
X42486Y50643D01*
X42857Y51014D01*
X43273Y51333D01*
X43727Y51595D01*
X44211Y51796D01*
X44718Y51932D01*
X45238Y52000D01*
X45762Y52000D01*
X46282Y51932D01*
X46789Y51796D01*
X47273Y51595D01*
X47727Y51333D01*
X48143Y51014D01*
X48514Y50643D01*
X48833Y50227D01*
X49095Y49773D01*
X49296Y49289D01*
X49432Y48782D01*
X49500Y48262D01*
X49500Y47738D01*
X49432Y47218D01*
X49296Y46711D01*
X49095Y46227D01*
X48833Y45773D01*
X48514Y45357D01*
X48143Y44986D01*
X47727Y44667D01*
X47273Y44405D01*
X46789Y44204D01*
X46282Y44068D01*
X45762Y44000D01*
X45238Y44000D01*
M02*
