G04 EAGLE Gerber RS-274X export*
G75*
%MOMM*%
%FSLAX34Y34*%
%LPD*%
%INBottom Copper*%
%IPPOS*%
%AMOC8*
5,1,8,0,0,1.08239X$1,22.5*%
G01*
%ADD10C,0.756400*%
%ADD11C,0.706400*%
%ADD12C,0.203200*%
%ADD13C,0.956400*%
%ADD14C,0.508000*%

G36*
X178329Y18161D02*
X178329Y18161D01*
X183578Y18161D01*
X183598Y18164D01*
X183617Y18162D01*
X183719Y18184D01*
X183821Y18201D01*
X183838Y18210D01*
X183858Y18215D01*
X183947Y18268D01*
X184038Y18316D01*
X184052Y18330D01*
X184069Y18341D01*
X184136Y18419D01*
X184207Y18494D01*
X184216Y18512D01*
X184229Y18528D01*
X184268Y18624D01*
X184311Y18717D01*
X184313Y18737D01*
X184321Y18756D01*
X184339Y18922D01*
X184339Y187753D01*
X184328Y187824D01*
X184326Y187895D01*
X184308Y187944D01*
X184299Y187996D01*
X184266Y188059D01*
X184241Y188126D01*
X184209Y188167D01*
X184184Y188213D01*
X184132Y188262D01*
X184088Y188318D01*
X184044Y188347D01*
X184006Y188383D01*
X183941Y188413D01*
X183881Y188451D01*
X183830Y188464D01*
X183783Y188486D01*
X183712Y188494D01*
X183642Y188512D01*
X183590Y188507D01*
X183538Y188513D01*
X183468Y188498D01*
X183397Y188492D01*
X183349Y188472D01*
X183298Y188461D01*
X183236Y188424D01*
X183171Y188396D01*
X183115Y188351D01*
X183087Y188335D01*
X183072Y188317D01*
X183040Y188291D01*
X182530Y187781D01*
X182477Y187707D01*
X182417Y187638D01*
X182405Y187608D01*
X182386Y187582D01*
X182359Y187495D01*
X182325Y187410D01*
X182321Y187369D01*
X182314Y187347D01*
X182315Y187314D01*
X182307Y187243D01*
X182307Y185746D01*
X181347Y183427D01*
X180288Y182369D01*
X180243Y182307D01*
X180196Y182258D01*
X180189Y182241D01*
X180175Y182225D01*
X180163Y182195D01*
X180144Y182169D01*
X180122Y182098D01*
X180093Y182034D01*
X180091Y182016D01*
X180083Y181997D01*
X180079Y181956D01*
X180072Y181934D01*
X180073Y181902D01*
X180065Y181830D01*
X180065Y125816D01*
X164184Y109935D01*
X132755Y109935D01*
X132665Y109921D01*
X132574Y109913D01*
X132545Y109901D01*
X132513Y109896D01*
X132432Y109853D01*
X132348Y109817D01*
X132316Y109791D01*
X132295Y109780D01*
X132273Y109757D01*
X132217Y109712D01*
X131198Y108693D01*
X127602Y108693D01*
X127512Y108679D01*
X127421Y108671D01*
X127391Y108659D01*
X127359Y108654D01*
X127278Y108611D01*
X127194Y108575D01*
X127162Y108549D01*
X127142Y108538D01*
X127119Y108515D01*
X127063Y108470D01*
X126552Y107959D01*
X59948Y107959D01*
X40459Y127448D01*
X40459Y192052D01*
X42171Y193764D01*
X49340Y200933D01*
X49351Y200949D01*
X49367Y200961D01*
X49423Y201048D01*
X49483Y201132D01*
X49489Y201151D01*
X49500Y201168D01*
X49525Y201269D01*
X49555Y201367D01*
X49555Y201387D01*
X49560Y201407D01*
X49552Y201510D01*
X49549Y201613D01*
X49542Y201632D01*
X49541Y201652D01*
X49500Y201747D01*
X49465Y201844D01*
X49452Y201860D01*
X49444Y201878D01*
X49340Y202009D01*
X46443Y204905D01*
X46443Y209095D01*
X49405Y212057D01*
X53595Y212057D01*
X56557Y209095D01*
X56557Y204905D01*
X55264Y203612D01*
X55211Y203538D01*
X55151Y203469D01*
X55139Y203439D01*
X55120Y203413D01*
X55093Y203326D01*
X55059Y203241D01*
X55055Y203200D01*
X55048Y203178D01*
X55049Y203145D01*
X55041Y203074D01*
X55041Y199448D01*
X45764Y190171D01*
X45711Y190097D01*
X45651Y190027D01*
X45639Y189997D01*
X45620Y189971D01*
X45593Y189884D01*
X45559Y189799D01*
X45555Y189758D01*
X45548Y189736D01*
X45549Y189704D01*
X45541Y189632D01*
X45541Y129868D01*
X45555Y129778D01*
X45563Y129687D01*
X45575Y129657D01*
X45580Y129625D01*
X45623Y129544D01*
X45659Y129460D01*
X45685Y129428D01*
X45696Y129408D01*
X45719Y129385D01*
X45764Y129329D01*
X61829Y113264D01*
X61903Y113211D01*
X61973Y113151D01*
X62003Y113139D01*
X62029Y113120D01*
X62116Y113093D01*
X62201Y113059D01*
X62242Y113055D01*
X62264Y113048D01*
X62296Y113049D01*
X62368Y113041D01*
X122932Y113041D01*
X122952Y113044D01*
X122971Y113042D01*
X123073Y113064D01*
X123175Y113080D01*
X123192Y113090D01*
X123212Y113094D01*
X123301Y113147D01*
X123392Y113196D01*
X123406Y113210D01*
X123423Y113220D01*
X123490Y113299D01*
X123562Y113374D01*
X123570Y113392D01*
X123583Y113407D01*
X123622Y113503D01*
X123665Y113597D01*
X123667Y113617D01*
X123675Y113635D01*
X123693Y113802D01*
X123693Y116198D01*
X126802Y119307D01*
X131198Y119307D01*
X132217Y118288D01*
X132291Y118235D01*
X132361Y118175D01*
X132391Y118163D01*
X132417Y118144D01*
X132504Y118117D01*
X132589Y118083D01*
X132630Y118079D01*
X132652Y118072D01*
X132684Y118073D01*
X132755Y118065D01*
X160501Y118065D01*
X160591Y118079D01*
X160682Y118087D01*
X160712Y118099D01*
X160744Y118104D01*
X160824Y118147D01*
X160908Y118183D01*
X160940Y118209D01*
X160961Y118220D01*
X160983Y118243D01*
X161039Y118288D01*
X171712Y128961D01*
X171765Y129035D01*
X171825Y129104D01*
X171837Y129134D01*
X171856Y129160D01*
X171883Y129247D01*
X171917Y129332D01*
X171921Y129373D01*
X171928Y129396D01*
X171927Y129428D01*
X171935Y129499D01*
X171935Y181830D01*
X171932Y181850D01*
X171934Y181869D01*
X171919Y181939D01*
X171913Y182011D01*
X171901Y182041D01*
X171896Y182073D01*
X171886Y182091D01*
X171882Y182109D01*
X171846Y182169D01*
X171817Y182238D01*
X171791Y182270D01*
X171780Y182290D01*
X171765Y182305D01*
X171756Y182320D01*
X171740Y182334D01*
X171712Y182369D01*
X170653Y183427D01*
X169693Y185746D01*
X169693Y188254D01*
X170653Y190573D01*
X172427Y192347D01*
X174465Y193191D01*
X174565Y193252D01*
X174665Y193312D01*
X174669Y193317D01*
X174674Y193320D01*
X174749Y193410D01*
X174825Y193499D01*
X174827Y193505D01*
X174831Y193510D01*
X174873Y193618D01*
X174917Y193727D01*
X174918Y193735D01*
X174919Y193739D01*
X174920Y193758D01*
X174935Y193894D01*
X174935Y202501D01*
X174921Y202591D01*
X174913Y202682D01*
X174901Y202712D01*
X174896Y202744D01*
X174853Y202824D01*
X174817Y202908D01*
X174791Y202940D01*
X174780Y202961D01*
X174757Y202983D01*
X174712Y203039D01*
X171935Y205816D01*
X171935Y360501D01*
X171921Y360591D01*
X171913Y360682D01*
X171901Y360712D01*
X171896Y360744D01*
X171853Y360824D01*
X171817Y360908D01*
X171791Y360940D01*
X171780Y360961D01*
X171757Y360983D01*
X171712Y361039D01*
X170539Y362212D01*
X170465Y362265D01*
X170396Y362325D01*
X170366Y362337D01*
X170340Y362356D01*
X170253Y362383D01*
X170168Y362417D01*
X170127Y362421D01*
X170104Y362428D01*
X170072Y362427D01*
X170001Y362435D01*
X161980Y362435D01*
X161865Y362416D01*
X161749Y362399D01*
X161743Y362397D01*
X161737Y362396D01*
X161634Y362341D01*
X161530Y362288D01*
X161525Y362283D01*
X161520Y362280D01*
X161440Y362196D01*
X161357Y362112D01*
X161354Y362106D01*
X161350Y362102D01*
X161342Y362085D01*
X161276Y361965D01*
X160847Y360927D01*
X159073Y359153D01*
X156754Y358193D01*
X154246Y358193D01*
X151927Y359153D01*
X150153Y360927D01*
X149193Y363246D01*
X149193Y365754D01*
X150153Y368073D01*
X151927Y369847D01*
X154246Y370807D01*
X156754Y370807D01*
X157199Y370623D01*
X157263Y370608D01*
X157323Y370583D01*
X157406Y370574D01*
X157438Y370567D01*
X157458Y370568D01*
X157490Y370565D01*
X173684Y370565D01*
X180065Y364184D01*
X180065Y209499D01*
X180079Y209409D01*
X180087Y209318D01*
X180099Y209288D01*
X180104Y209256D01*
X180147Y209176D01*
X180183Y209092D01*
X180209Y209060D01*
X180220Y209039D01*
X180243Y209017D01*
X180288Y208961D01*
X180461Y208788D01*
X183040Y206209D01*
X183098Y206167D01*
X183150Y206117D01*
X183197Y206096D01*
X183239Y206065D01*
X183308Y206044D01*
X183373Y206014D01*
X183425Y206008D01*
X183474Y205993D01*
X183546Y205995D01*
X183617Y205987D01*
X183668Y205998D01*
X183720Y205999D01*
X183788Y206024D01*
X183858Y206039D01*
X183902Y206066D01*
X183951Y206084D01*
X184007Y206128D01*
X184069Y206165D01*
X184103Y206205D01*
X184143Y206237D01*
X184182Y206298D01*
X184229Y206352D01*
X184248Y206400D01*
X184276Y206444D01*
X184294Y206514D01*
X184321Y206580D01*
X184329Y206652D01*
X184336Y206683D01*
X184335Y206706D01*
X184339Y206747D01*
X184339Y400078D01*
X184336Y400098D01*
X184338Y400117D01*
X184316Y400219D01*
X184299Y400321D01*
X184290Y400338D01*
X184286Y400358D01*
X184233Y400447D01*
X184184Y400538D01*
X184170Y400552D01*
X184160Y400569D01*
X184081Y400636D01*
X184006Y400707D01*
X183988Y400716D01*
X183973Y400729D01*
X183877Y400768D01*
X183783Y400811D01*
X183763Y400813D01*
X183745Y400821D01*
X183578Y400839D01*
X11422Y400839D01*
X11402Y400836D01*
X11383Y400838D01*
X11281Y400816D01*
X11179Y400799D01*
X11162Y400790D01*
X11142Y400786D01*
X11053Y400733D01*
X10962Y400684D01*
X10948Y400670D01*
X10931Y400660D01*
X10864Y400581D01*
X10793Y400506D01*
X10784Y400488D01*
X10771Y400473D01*
X10732Y400377D01*
X10689Y400283D01*
X10687Y400263D01*
X10679Y400245D01*
X10661Y400078D01*
X10661Y150828D01*
X10661Y150827D01*
X10661Y20173D01*
X10661Y20172D01*
X10661Y18922D01*
X10664Y18902D01*
X10662Y18883D01*
X10684Y18781D01*
X10701Y18679D01*
X10710Y18662D01*
X10714Y18642D01*
X10767Y18553D01*
X10816Y18462D01*
X10830Y18448D01*
X10840Y18431D01*
X10919Y18364D01*
X10994Y18293D01*
X11012Y18284D01*
X11027Y18271D01*
X11123Y18232D01*
X11217Y18189D01*
X11237Y18187D01*
X11255Y18179D01*
X11422Y18161D01*
X12672Y18161D01*
X12673Y18161D01*
X178326Y18161D01*
X178329Y18161D01*
G37*
%LPC*%
G36*
X33490Y228839D02*
X33490Y228839D01*
X26814Y231008D01*
X21134Y235134D01*
X17008Y240814D01*
X14839Y247490D01*
X14839Y374510D01*
X17008Y381186D01*
X21134Y386866D01*
X26814Y390992D01*
X33490Y393161D01*
X41510Y393161D01*
X48186Y390992D01*
X53866Y386866D01*
X57992Y381186D01*
X60161Y374510D01*
X60161Y247490D01*
X57992Y240814D01*
X53866Y235134D01*
X48186Y231008D01*
X41510Y228839D01*
X33490Y228839D01*
G37*
%LPD*%
%LPC*%
G36*
X133905Y130443D02*
X133905Y130443D01*
X130943Y133405D01*
X130943Y137595D01*
X133905Y140557D01*
X138148Y140557D01*
X138238Y140571D01*
X138329Y140579D01*
X138359Y140591D01*
X138391Y140596D01*
X138472Y140639D01*
X138556Y140675D01*
X138588Y140701D01*
X138608Y140712D01*
X138631Y140735D01*
X138687Y140780D01*
X156236Y158329D01*
X156289Y158403D01*
X156349Y158473D01*
X156361Y158503D01*
X156380Y158529D01*
X156407Y158616D01*
X156441Y158701D01*
X156445Y158742D01*
X156452Y158764D01*
X156451Y158796D01*
X156459Y158868D01*
X156459Y320132D01*
X156445Y320222D01*
X156437Y320313D01*
X156425Y320343D01*
X156420Y320375D01*
X156377Y320456D01*
X156341Y320540D01*
X156315Y320572D01*
X156304Y320592D01*
X156281Y320615D01*
X156236Y320671D01*
X141459Y335448D01*
X141459Y337074D01*
X141445Y337164D01*
X141443Y337180D01*
X141443Y341595D01*
X144405Y344557D01*
X148595Y344557D01*
X151557Y341595D01*
X151557Y337405D01*
X149660Y335509D01*
X149649Y335493D01*
X149633Y335481D01*
X149577Y335393D01*
X149517Y335309D01*
X149511Y335290D01*
X149500Y335274D01*
X149475Y335173D01*
X149445Y335074D01*
X149445Y335054D01*
X149440Y335035D01*
X149448Y334932D01*
X149451Y334829D01*
X149458Y334810D01*
X149459Y334790D01*
X149500Y334695D01*
X149535Y334597D01*
X149548Y334582D01*
X149556Y334564D01*
X149660Y334433D01*
X161541Y322552D01*
X161541Y156448D01*
X141280Y136187D01*
X141227Y136113D01*
X141167Y136043D01*
X141155Y136013D01*
X141136Y135987D01*
X141109Y135900D01*
X141075Y135815D01*
X141071Y135774D01*
X141064Y135752D01*
X141065Y135720D01*
X141057Y135648D01*
X141057Y133405D01*
X138095Y130443D01*
X133905Y130443D01*
G37*
%LPD*%
%LPC*%
G36*
X132905Y164443D02*
X132905Y164443D01*
X129943Y167405D01*
X129943Y170648D01*
X129929Y170738D01*
X129921Y170829D01*
X129909Y170859D01*
X129904Y170891D01*
X129861Y170972D01*
X129825Y171056D01*
X129799Y171088D01*
X129788Y171108D01*
X129765Y171131D01*
X129720Y171187D01*
X115959Y184948D01*
X115959Y218552D01*
X119736Y222329D01*
X119789Y222403D01*
X119849Y222473D01*
X119861Y222503D01*
X119880Y222529D01*
X119907Y222616D01*
X119941Y222701D01*
X119945Y222742D01*
X119952Y222764D01*
X119951Y222796D01*
X119959Y222868D01*
X119959Y272632D01*
X119945Y272722D01*
X119937Y272813D01*
X119925Y272843D01*
X119920Y272875D01*
X119877Y272956D01*
X119841Y273040D01*
X119815Y273072D01*
X119804Y273092D01*
X119781Y273115D01*
X119736Y273171D01*
X115959Y276948D01*
X115959Y303052D01*
X117220Y304313D01*
X117273Y304387D01*
X117333Y304457D01*
X117345Y304487D01*
X117364Y304513D01*
X117391Y304600D01*
X117425Y304685D01*
X117429Y304726D01*
X117436Y304748D01*
X117435Y304780D01*
X117443Y304852D01*
X117443Y308095D01*
X120405Y311057D01*
X124595Y311057D01*
X127557Y308095D01*
X127557Y303905D01*
X124595Y300943D01*
X121802Y300943D01*
X121782Y300940D01*
X121763Y300942D01*
X121661Y300920D01*
X121559Y300904D01*
X121542Y300894D01*
X121522Y300890D01*
X121433Y300837D01*
X121342Y300788D01*
X121328Y300774D01*
X121311Y300764D01*
X121244Y300685D01*
X121172Y300610D01*
X121164Y300592D01*
X121151Y300577D01*
X121112Y300481D01*
X121069Y300387D01*
X121067Y300367D01*
X121059Y300349D01*
X121041Y300182D01*
X121041Y279368D01*
X121055Y279278D01*
X121063Y279187D01*
X121075Y279157D01*
X121080Y279125D01*
X121123Y279044D01*
X121159Y278960D01*
X121185Y278928D01*
X121196Y278908D01*
X121219Y278885D01*
X121264Y278829D01*
X125041Y275052D01*
X125041Y220448D01*
X121264Y216671D01*
X121211Y216597D01*
X121151Y216527D01*
X121139Y216497D01*
X121120Y216471D01*
X121093Y216384D01*
X121059Y216299D01*
X121055Y216258D01*
X121048Y216236D01*
X121049Y216204D01*
X121041Y216132D01*
X121041Y187368D01*
X121055Y187278D01*
X121063Y187187D01*
X121075Y187157D01*
X121080Y187125D01*
X121123Y187044D01*
X121159Y186960D01*
X121185Y186928D01*
X121196Y186908D01*
X121219Y186885D01*
X121264Y186829D01*
X133313Y174780D01*
X133387Y174727D01*
X133457Y174667D01*
X133487Y174655D01*
X133513Y174636D01*
X133600Y174609D01*
X133685Y174575D01*
X133726Y174571D01*
X133748Y174564D01*
X133780Y174565D01*
X133852Y174557D01*
X137095Y174557D01*
X140057Y171595D01*
X140057Y167405D01*
X137095Y164443D01*
X132905Y164443D01*
G37*
%LPD*%
%LPC*%
G36*
X131405Y195943D02*
X131405Y195943D01*
X128443Y198905D01*
X128443Y203095D01*
X131405Y206057D01*
X134648Y206057D01*
X134738Y206071D01*
X134829Y206079D01*
X134859Y206091D01*
X134891Y206096D01*
X134972Y206139D01*
X135056Y206175D01*
X135088Y206201D01*
X135108Y206212D01*
X135131Y206235D01*
X135187Y206280D01*
X142236Y213329D01*
X142289Y213403D01*
X142349Y213473D01*
X142361Y213503D01*
X142380Y213529D01*
X142407Y213616D01*
X142441Y213701D01*
X142445Y213742D01*
X142452Y213764D01*
X142451Y213796D01*
X142459Y213868D01*
X142459Y278632D01*
X142445Y278722D01*
X142437Y278813D01*
X142425Y278843D01*
X142420Y278875D01*
X142377Y278956D01*
X142341Y279040D01*
X142315Y279072D01*
X142304Y279092D01*
X142281Y279115D01*
X142236Y279171D01*
X139209Y282198D01*
X139209Y319882D01*
X139195Y319972D01*
X139187Y320063D01*
X139175Y320093D01*
X139170Y320125D01*
X139127Y320206D01*
X139091Y320290D01*
X139065Y320322D01*
X139054Y320342D01*
X139031Y320365D01*
X138986Y320421D01*
X136567Y322840D01*
X136551Y322851D01*
X136539Y322867D01*
X136452Y322923D01*
X136368Y322983D01*
X136349Y322989D01*
X136332Y323000D01*
X136231Y323025D01*
X136133Y323055D01*
X136113Y323055D01*
X136093Y323060D01*
X135990Y323052D01*
X135887Y323049D01*
X135868Y323042D01*
X135848Y323041D01*
X135753Y323000D01*
X135656Y322965D01*
X135640Y322952D01*
X135622Y322944D01*
X135491Y322840D01*
X133345Y320693D01*
X129155Y320693D01*
X126193Y323655D01*
X126193Y327845D01*
X129155Y330807D01*
X133345Y330807D01*
X134638Y329514D01*
X134712Y329461D01*
X134781Y329401D01*
X134811Y329389D01*
X134837Y329370D01*
X134924Y329343D01*
X135009Y329309D01*
X135050Y329305D01*
X135072Y329298D01*
X135105Y329299D01*
X135176Y329291D01*
X137302Y329291D01*
X144291Y322302D01*
X144291Y284618D01*
X144305Y284528D01*
X144313Y284437D01*
X144325Y284407D01*
X144330Y284375D01*
X144373Y284294D01*
X144409Y284210D01*
X144435Y284178D01*
X144446Y284158D01*
X144469Y284135D01*
X144485Y284116D01*
X144490Y284107D01*
X144495Y284103D01*
X144514Y284079D01*
X147541Y281052D01*
X147541Y211448D01*
X138780Y202687D01*
X138727Y202613D01*
X138667Y202543D01*
X138655Y202513D01*
X138636Y202487D01*
X138609Y202400D01*
X138575Y202315D01*
X138571Y202274D01*
X138564Y202252D01*
X138565Y202220D01*
X138557Y202148D01*
X138557Y198905D01*
X135595Y195943D01*
X131405Y195943D01*
G37*
%LPD*%
%LPC*%
G36*
X60405Y167943D02*
X60405Y167943D01*
X57443Y170905D01*
X57443Y175095D01*
X60405Y178057D01*
X64595Y178057D01*
X66888Y175764D01*
X66962Y175711D01*
X67031Y175651D01*
X67061Y175639D01*
X67087Y175620D01*
X67174Y175593D01*
X67259Y175559D01*
X67300Y175555D01*
X67322Y175548D01*
X67355Y175549D01*
X67426Y175541D01*
X87132Y175541D01*
X87222Y175555D01*
X87313Y175563D01*
X87343Y175575D01*
X87375Y175580D01*
X87456Y175623D01*
X87540Y175659D01*
X87572Y175685D01*
X87592Y175696D01*
X87615Y175719D01*
X87671Y175764D01*
X97736Y185829D01*
X97789Y185903D01*
X97849Y185973D01*
X97861Y186003D01*
X97880Y186029D01*
X97907Y186116D01*
X97941Y186201D01*
X97945Y186242D01*
X97952Y186264D01*
X97951Y186296D01*
X97959Y186368D01*
X97959Y260574D01*
X97945Y260664D01*
X97937Y260755D01*
X97925Y260785D01*
X97920Y260817D01*
X97877Y260898D01*
X97841Y260981D01*
X97815Y261014D01*
X97804Y261034D01*
X97781Y261056D01*
X97736Y261112D01*
X95443Y263405D01*
X95443Y267595D01*
X98405Y270557D01*
X102595Y270557D01*
X105557Y267595D01*
X105557Y263405D01*
X103264Y261112D01*
X103211Y261038D01*
X103151Y260969D01*
X103139Y260939D01*
X103120Y260913D01*
X103093Y260826D01*
X103059Y260741D01*
X103055Y260700D01*
X103048Y260678D01*
X103049Y260645D01*
X103041Y260574D01*
X103041Y183948D01*
X89552Y170459D01*
X67426Y170459D01*
X67336Y170445D01*
X67245Y170437D01*
X67215Y170425D01*
X67183Y170420D01*
X67102Y170377D01*
X67019Y170341D01*
X66986Y170315D01*
X66966Y170304D01*
X66944Y170281D01*
X66888Y170236D01*
X64595Y167943D01*
X60405Y167943D01*
G37*
%LPD*%
%LPC*%
G36*
X42683Y33839D02*
X42683Y33839D01*
X37479Y35995D01*
X33495Y39979D01*
X31339Y45183D01*
X31339Y50817D01*
X33495Y56021D01*
X37479Y60005D01*
X42683Y62161D01*
X48317Y62161D01*
X53521Y60005D01*
X57505Y56021D01*
X59661Y50817D01*
X59661Y45183D01*
X57505Y39979D01*
X53521Y35995D01*
X48317Y33839D01*
X42683Y33839D01*
G37*
%LPD*%
%LPC*%
G36*
X122683Y33839D02*
X122683Y33839D01*
X117479Y35995D01*
X113495Y39979D01*
X111339Y45183D01*
X111339Y50817D01*
X113495Y56021D01*
X117479Y60005D01*
X122683Y62161D01*
X128317Y62161D01*
X133521Y60005D01*
X137505Y56021D01*
X139661Y50817D01*
X139661Y45183D01*
X137505Y39979D01*
X133521Y35995D01*
X128317Y33839D01*
X122683Y33839D01*
G37*
%LPD*%
%LPC*%
G36*
X79405Y184443D02*
X79405Y184443D01*
X76443Y187405D01*
X76443Y191595D01*
X78736Y193888D01*
X78789Y193962D01*
X78849Y194031D01*
X78861Y194061D01*
X78880Y194087D01*
X78907Y194174D01*
X78941Y194259D01*
X78945Y194300D01*
X78952Y194322D01*
X78951Y194355D01*
X78959Y194426D01*
X78959Y206552D01*
X79220Y206813D01*
X79274Y206888D01*
X79333Y206957D01*
X79345Y206987D01*
X79364Y207013D01*
X79391Y207100D01*
X79425Y207185D01*
X79429Y207226D01*
X79436Y207248D01*
X79435Y207280D01*
X79443Y207352D01*
X79443Y210595D01*
X82405Y213557D01*
X86595Y213557D01*
X89557Y210595D01*
X89557Y206405D01*
X86595Y203443D01*
X84802Y203443D01*
X84782Y203440D01*
X84763Y203442D01*
X84661Y203420D01*
X84559Y203404D01*
X84542Y203394D01*
X84522Y203390D01*
X84433Y203337D01*
X84342Y203288D01*
X84328Y203274D01*
X84311Y203264D01*
X84244Y203185D01*
X84172Y203110D01*
X84164Y203092D01*
X84151Y203077D01*
X84112Y202981D01*
X84069Y202887D01*
X84067Y202867D01*
X84059Y202849D01*
X84041Y202682D01*
X84041Y194426D01*
X84055Y194336D01*
X84063Y194245D01*
X84075Y194215D01*
X84080Y194183D01*
X84123Y194102D01*
X84159Y194019D01*
X84185Y193986D01*
X84196Y193966D01*
X84219Y193944D01*
X84264Y193888D01*
X86557Y191595D01*
X86557Y187405D01*
X83595Y184443D01*
X79405Y184443D01*
G37*
%LPD*%
D10*
X177500Y76500D03*
X79000Y396000D03*
X17000Y169000D03*
X87000Y396000D03*
X24500Y28500D03*
D11*
X81500Y189500D03*
D12*
X81500Y205500D02*
X84500Y208500D01*
X81500Y205500D02*
X81500Y189500D01*
D11*
X84500Y208500D03*
X100500Y265500D03*
X62500Y173000D03*
D12*
X100500Y185000D02*
X100500Y265500D01*
X100500Y185000D02*
X88500Y173000D01*
X62500Y173000D01*
D11*
X122500Y306000D03*
X135000Y169500D03*
D12*
X118500Y302000D02*
X122500Y306000D01*
X118500Y302000D02*
X118500Y278000D01*
X122500Y274000D01*
X122500Y221500D01*
X118500Y217500D01*
X118500Y186000D01*
X135000Y169500D01*
D11*
X131250Y325750D03*
X133500Y201000D03*
D12*
X145000Y212500D01*
X145000Y280000D01*
X141750Y283250D01*
X141750Y321250D01*
X136250Y326750D01*
X132250Y326750D01*
X131250Y325750D01*
D11*
X136000Y135500D03*
X146500Y339500D03*
D12*
X137000Y135500D02*
X136000Y135500D01*
X137000Y135500D02*
X159000Y157500D01*
X144000Y336500D02*
X144000Y337000D01*
X146500Y339500D01*
X159000Y321500D02*
X159000Y157500D01*
X159000Y321500D02*
X144000Y336500D01*
D13*
X176000Y187000D03*
X155500Y364500D03*
D11*
X51500Y207000D03*
D12*
X52500Y206000D01*
X52500Y200500D01*
X43000Y191000D01*
X43000Y128500D01*
D10*
X129000Y114000D03*
D12*
X61000Y110500D02*
X43000Y128500D01*
X61000Y110500D02*
X125500Y110500D01*
X129000Y114000D01*
D14*
X157500Y366500D02*
X172000Y366500D01*
X157500Y366500D02*
X155500Y364500D01*
X172000Y366500D02*
X176000Y362500D01*
X176000Y207500D02*
X179000Y204500D01*
X179000Y190000D01*
X176000Y187000D01*
X176000Y207500D02*
X176000Y362500D01*
X176000Y187000D02*
X176000Y127500D01*
X162500Y114000D01*
X129000Y114000D01*
M02*
