G04 EAGLE Gerber RS-274X export*
G75*
%MOMM*%
%FSLAX34Y34*%
%LPD*%
%INTop Silkscreen*%
%IPPOS*%
%AMOC8*
5,1,8,0,0,1.08239X$1,22.5*%
G01*
%ADD10C,0.152400*%
%ADD11C,0.101600*%
%ADD12C,0.127000*%
%ADD13C,0.050800*%
%ADD14C,0.100000*%
%ADD15C,0.200000*%
%ADD16C,0.200000*%


D10*
X13262Y219262D02*
X13262Y225938D01*
X15116Y225938D01*
X15200Y225936D01*
X15285Y225930D01*
X15368Y225921D01*
X15452Y225907D01*
X15534Y225890D01*
X15616Y225869D01*
X15697Y225845D01*
X15776Y225816D01*
X15855Y225785D01*
X15931Y225749D01*
X16006Y225710D01*
X16079Y225668D01*
X16150Y225623D01*
X16219Y225574D01*
X16286Y225522D01*
X16350Y225467D01*
X16412Y225410D01*
X16471Y225349D01*
X16527Y225286D01*
X16580Y225221D01*
X16631Y225153D01*
X16678Y225083D01*
X16722Y225011D01*
X16762Y224937D01*
X16799Y224861D01*
X16833Y224784D01*
X16863Y224705D01*
X16889Y224625D01*
X16912Y224543D01*
X16931Y224461D01*
X16947Y224378D01*
X16958Y224295D01*
X16966Y224211D01*
X16970Y224126D01*
X16970Y224042D01*
X16966Y223957D01*
X16958Y223873D01*
X16947Y223790D01*
X16931Y223707D01*
X16912Y223625D01*
X16889Y223543D01*
X16863Y223463D01*
X16833Y223384D01*
X16799Y223307D01*
X16762Y223231D01*
X16722Y223157D01*
X16678Y223085D01*
X16631Y223015D01*
X16580Y222947D01*
X16527Y222882D01*
X16471Y222819D01*
X16412Y222758D01*
X16350Y222701D01*
X16286Y222646D01*
X16219Y222594D01*
X16150Y222545D01*
X16079Y222500D01*
X16006Y222458D01*
X15931Y222419D01*
X15855Y222383D01*
X15776Y222352D01*
X15697Y222323D01*
X15616Y222299D01*
X15534Y222278D01*
X15452Y222261D01*
X15368Y222247D01*
X15285Y222238D01*
X15200Y222232D01*
X15116Y222230D01*
X15116Y222229D02*
X13262Y222229D01*
X15487Y222229D02*
X16971Y219262D01*
X21491Y219262D02*
X23346Y219262D01*
X21491Y219262D02*
X21426Y219264D01*
X21362Y219270D01*
X21298Y219279D01*
X21234Y219292D01*
X21172Y219309D01*
X21110Y219329D01*
X21050Y219353D01*
X20991Y219380D01*
X20934Y219411D01*
X20879Y219445D01*
X20826Y219482D01*
X20776Y219522D01*
X20727Y219565D01*
X20681Y219611D01*
X20638Y219660D01*
X20598Y219710D01*
X20561Y219763D01*
X20527Y219819D01*
X20496Y219875D01*
X20469Y219934D01*
X20445Y219994D01*
X20425Y220056D01*
X20408Y220118D01*
X20395Y220182D01*
X20386Y220246D01*
X20380Y220310D01*
X20378Y220375D01*
X20379Y220375D02*
X20379Y222600D01*
X20378Y222600D02*
X20380Y222665D01*
X20386Y222729D01*
X20395Y222793D01*
X20408Y222857D01*
X20425Y222919D01*
X20445Y222981D01*
X20469Y223041D01*
X20496Y223100D01*
X20527Y223157D01*
X20561Y223212D01*
X20598Y223265D01*
X20638Y223315D01*
X20681Y223364D01*
X20727Y223410D01*
X20776Y223453D01*
X20826Y223493D01*
X20879Y223530D01*
X20935Y223564D01*
X20992Y223595D01*
X21050Y223622D01*
X21110Y223646D01*
X21172Y223666D01*
X21234Y223683D01*
X21298Y223696D01*
X21362Y223705D01*
X21426Y223711D01*
X21491Y223713D01*
X23346Y223713D01*
X23346Y218149D01*
X23344Y218084D01*
X23338Y218020D01*
X23329Y217956D01*
X23316Y217892D01*
X23299Y217830D01*
X23279Y217768D01*
X23255Y217708D01*
X23228Y217649D01*
X23197Y217593D01*
X23163Y217537D01*
X23126Y217484D01*
X23086Y217434D01*
X23043Y217385D01*
X22997Y217339D01*
X22948Y217296D01*
X22898Y217256D01*
X22845Y217219D01*
X22790Y217185D01*
X22733Y217154D01*
X22674Y217127D01*
X22614Y217103D01*
X22552Y217083D01*
X22490Y217066D01*
X22426Y217053D01*
X22362Y217044D01*
X22298Y217038D01*
X22233Y217036D01*
X22233Y217037D02*
X20750Y217037D01*
X27530Y219262D02*
X27530Y225938D01*
X29384Y225938D01*
X29468Y225936D01*
X29553Y225930D01*
X29636Y225921D01*
X29720Y225907D01*
X29802Y225890D01*
X29884Y225869D01*
X29965Y225845D01*
X30044Y225816D01*
X30123Y225785D01*
X30199Y225749D01*
X30274Y225710D01*
X30347Y225668D01*
X30418Y225623D01*
X30487Y225574D01*
X30554Y225522D01*
X30618Y225467D01*
X30680Y225410D01*
X30739Y225349D01*
X30795Y225286D01*
X30848Y225221D01*
X30899Y225153D01*
X30946Y225083D01*
X30990Y225011D01*
X31030Y224937D01*
X31067Y224861D01*
X31101Y224784D01*
X31131Y224705D01*
X31157Y224625D01*
X31180Y224543D01*
X31199Y224461D01*
X31215Y224378D01*
X31226Y224295D01*
X31234Y224211D01*
X31238Y224126D01*
X31238Y224042D01*
X31234Y223957D01*
X31226Y223873D01*
X31215Y223790D01*
X31199Y223707D01*
X31180Y223625D01*
X31157Y223543D01*
X31131Y223463D01*
X31101Y223384D01*
X31067Y223307D01*
X31030Y223231D01*
X30990Y223157D01*
X30946Y223085D01*
X30899Y223015D01*
X30848Y222947D01*
X30795Y222882D01*
X30739Y222819D01*
X30680Y222758D01*
X30618Y222701D01*
X30554Y222646D01*
X30487Y222594D01*
X30418Y222545D01*
X30347Y222500D01*
X30274Y222458D01*
X30199Y222419D01*
X30123Y222383D01*
X30044Y222352D01*
X29965Y222323D01*
X29884Y222299D01*
X29802Y222278D01*
X29720Y222261D01*
X29636Y222247D01*
X29553Y222238D01*
X29468Y222232D01*
X29384Y222230D01*
X29384Y222229D02*
X27530Y222229D01*
X29755Y222229D02*
X31239Y219262D01*
X39013Y219262D02*
X39013Y225938D01*
X40867Y225938D01*
X40950Y225936D01*
X41033Y225931D01*
X41116Y225921D01*
X41198Y225908D01*
X41280Y225892D01*
X41360Y225871D01*
X41440Y225847D01*
X41518Y225820D01*
X41596Y225789D01*
X41671Y225754D01*
X41746Y225717D01*
X41818Y225676D01*
X41888Y225631D01*
X41957Y225584D01*
X42023Y225534D01*
X42087Y225480D01*
X42148Y225424D01*
X42207Y225365D01*
X42263Y225304D01*
X42317Y225240D01*
X42367Y225174D01*
X42414Y225105D01*
X42459Y225035D01*
X42500Y224963D01*
X42537Y224888D01*
X42572Y224813D01*
X42603Y224735D01*
X42630Y224657D01*
X42654Y224577D01*
X42675Y224497D01*
X42691Y224415D01*
X42704Y224333D01*
X42714Y224250D01*
X42719Y224167D01*
X42721Y224084D01*
X42722Y224084D02*
X42722Y221116D01*
X42721Y221116D02*
X42719Y221033D01*
X42714Y220950D01*
X42704Y220867D01*
X42691Y220785D01*
X42675Y220703D01*
X42654Y220623D01*
X42630Y220543D01*
X42603Y220465D01*
X42572Y220387D01*
X42537Y220312D01*
X42500Y220237D01*
X42459Y220165D01*
X42414Y220095D01*
X42367Y220026D01*
X42317Y219960D01*
X42263Y219896D01*
X42207Y219835D01*
X42148Y219776D01*
X42087Y219720D01*
X42023Y219666D01*
X41957Y219616D01*
X41888Y219569D01*
X41818Y219524D01*
X41746Y219483D01*
X41671Y219446D01*
X41596Y219411D01*
X41518Y219380D01*
X41440Y219353D01*
X41360Y219329D01*
X41280Y219308D01*
X41198Y219292D01*
X41116Y219279D01*
X41033Y219269D01*
X40950Y219264D01*
X40867Y219262D01*
X39013Y219262D01*
X47630Y219262D02*
X49485Y219262D01*
X47630Y219262D02*
X47565Y219264D01*
X47501Y219270D01*
X47437Y219279D01*
X47373Y219292D01*
X47311Y219309D01*
X47249Y219329D01*
X47189Y219353D01*
X47130Y219380D01*
X47074Y219411D01*
X47018Y219445D01*
X46965Y219482D01*
X46915Y219522D01*
X46866Y219565D01*
X46820Y219611D01*
X46777Y219660D01*
X46737Y219710D01*
X46700Y219763D01*
X46666Y219819D01*
X46635Y219875D01*
X46608Y219934D01*
X46584Y219994D01*
X46564Y220056D01*
X46547Y220118D01*
X46534Y220182D01*
X46525Y220246D01*
X46519Y220310D01*
X46517Y220375D01*
X46518Y220375D02*
X46518Y222229D01*
X46517Y222229D02*
X46519Y222304D01*
X46525Y222379D01*
X46534Y222454D01*
X46547Y222528D01*
X46564Y222601D01*
X46585Y222673D01*
X46609Y222744D01*
X46637Y222814D01*
X46669Y222883D01*
X46703Y222949D01*
X46742Y223014D01*
X46783Y223077D01*
X46827Y223137D01*
X46875Y223196D01*
X46925Y223251D01*
X46979Y223305D01*
X47034Y223355D01*
X47093Y223403D01*
X47153Y223447D01*
X47216Y223488D01*
X47281Y223527D01*
X47347Y223561D01*
X47416Y223593D01*
X47486Y223621D01*
X47557Y223645D01*
X47629Y223666D01*
X47702Y223683D01*
X47776Y223696D01*
X47851Y223705D01*
X47926Y223711D01*
X48001Y223713D01*
X48076Y223711D01*
X48151Y223705D01*
X48226Y223696D01*
X48300Y223683D01*
X48373Y223666D01*
X48445Y223645D01*
X48516Y223621D01*
X48586Y223593D01*
X48655Y223561D01*
X48721Y223527D01*
X48786Y223488D01*
X48849Y223447D01*
X48909Y223403D01*
X48968Y223355D01*
X49023Y223305D01*
X49077Y223251D01*
X49127Y223196D01*
X49175Y223137D01*
X49219Y223077D01*
X49260Y223014D01*
X49299Y222949D01*
X49333Y222883D01*
X49365Y222814D01*
X49393Y222744D01*
X49417Y222673D01*
X49438Y222601D01*
X49455Y222528D01*
X49468Y222454D01*
X49477Y222379D01*
X49483Y222304D01*
X49485Y222229D01*
X49485Y221487D01*
X46518Y221487D01*
X52668Y223713D02*
X54151Y219262D01*
X55635Y223713D01*
X59930Y219262D02*
X61785Y219262D01*
X59930Y219262D02*
X59865Y219264D01*
X59801Y219270D01*
X59737Y219279D01*
X59673Y219292D01*
X59611Y219309D01*
X59549Y219329D01*
X59489Y219353D01*
X59430Y219380D01*
X59374Y219411D01*
X59318Y219445D01*
X59265Y219482D01*
X59215Y219522D01*
X59166Y219565D01*
X59120Y219611D01*
X59077Y219660D01*
X59037Y219710D01*
X59000Y219763D01*
X58966Y219819D01*
X58935Y219875D01*
X58908Y219934D01*
X58884Y219994D01*
X58864Y220056D01*
X58847Y220118D01*
X58834Y220182D01*
X58825Y220246D01*
X58819Y220310D01*
X58817Y220375D01*
X58818Y220375D02*
X58818Y222229D01*
X58817Y222229D02*
X58819Y222304D01*
X58825Y222379D01*
X58834Y222454D01*
X58847Y222528D01*
X58864Y222601D01*
X58885Y222673D01*
X58909Y222744D01*
X58937Y222814D01*
X58969Y222883D01*
X59003Y222949D01*
X59042Y223014D01*
X59083Y223077D01*
X59127Y223137D01*
X59175Y223196D01*
X59225Y223251D01*
X59279Y223305D01*
X59334Y223355D01*
X59393Y223403D01*
X59453Y223447D01*
X59516Y223488D01*
X59581Y223527D01*
X59647Y223561D01*
X59716Y223593D01*
X59786Y223621D01*
X59857Y223645D01*
X59929Y223666D01*
X60002Y223683D01*
X60076Y223696D01*
X60151Y223705D01*
X60226Y223711D01*
X60301Y223713D01*
X60376Y223711D01*
X60451Y223705D01*
X60526Y223696D01*
X60600Y223683D01*
X60673Y223666D01*
X60745Y223645D01*
X60816Y223621D01*
X60886Y223593D01*
X60955Y223561D01*
X61021Y223527D01*
X61086Y223488D01*
X61149Y223447D01*
X61209Y223403D01*
X61268Y223355D01*
X61323Y223305D01*
X61377Y223251D01*
X61427Y223196D01*
X61475Y223137D01*
X61519Y223077D01*
X61560Y223014D01*
X61599Y222949D01*
X61633Y222883D01*
X61665Y222814D01*
X61693Y222744D01*
X61717Y222673D01*
X61738Y222601D01*
X61755Y222528D01*
X61768Y222454D01*
X61777Y222379D01*
X61783Y222304D01*
X61785Y222229D01*
X61785Y221487D01*
X58818Y221487D01*
X65211Y220375D02*
X65211Y225938D01*
X65211Y220375D02*
X65213Y220310D01*
X65219Y220246D01*
X65228Y220182D01*
X65241Y220118D01*
X65258Y220056D01*
X65278Y219994D01*
X65302Y219934D01*
X65329Y219875D01*
X65360Y219819D01*
X65394Y219763D01*
X65431Y219710D01*
X65471Y219660D01*
X65514Y219611D01*
X65560Y219565D01*
X65609Y219522D01*
X65659Y219482D01*
X65712Y219445D01*
X65768Y219411D01*
X65824Y219380D01*
X65883Y219353D01*
X65943Y219329D01*
X66005Y219309D01*
X66067Y219292D01*
X66131Y219279D01*
X66195Y219270D01*
X66259Y219264D01*
X66324Y219262D01*
X69150Y220746D02*
X69150Y222229D01*
X69149Y222229D02*
X69151Y222304D01*
X69157Y222379D01*
X69166Y222454D01*
X69179Y222528D01*
X69196Y222601D01*
X69217Y222673D01*
X69241Y222744D01*
X69269Y222814D01*
X69301Y222883D01*
X69335Y222949D01*
X69374Y223014D01*
X69415Y223077D01*
X69459Y223137D01*
X69507Y223196D01*
X69557Y223251D01*
X69611Y223305D01*
X69666Y223355D01*
X69725Y223403D01*
X69785Y223447D01*
X69848Y223488D01*
X69913Y223527D01*
X69979Y223561D01*
X70048Y223593D01*
X70118Y223621D01*
X70189Y223645D01*
X70261Y223666D01*
X70334Y223683D01*
X70408Y223696D01*
X70483Y223705D01*
X70558Y223711D01*
X70633Y223713D01*
X70708Y223711D01*
X70783Y223705D01*
X70858Y223696D01*
X70932Y223683D01*
X71005Y223666D01*
X71077Y223645D01*
X71148Y223621D01*
X71218Y223593D01*
X71287Y223561D01*
X71353Y223527D01*
X71418Y223488D01*
X71481Y223447D01*
X71541Y223403D01*
X71600Y223355D01*
X71655Y223305D01*
X71709Y223251D01*
X71759Y223196D01*
X71807Y223137D01*
X71851Y223077D01*
X71892Y223014D01*
X71931Y222949D01*
X71965Y222883D01*
X71997Y222814D01*
X72025Y222744D01*
X72049Y222673D01*
X72070Y222601D01*
X72087Y222528D01*
X72100Y222454D01*
X72109Y222379D01*
X72115Y222304D01*
X72117Y222229D01*
X72117Y220746D01*
X72115Y220671D01*
X72109Y220596D01*
X72100Y220521D01*
X72087Y220447D01*
X72070Y220374D01*
X72049Y220302D01*
X72025Y220231D01*
X71997Y220161D01*
X71965Y220092D01*
X71931Y220026D01*
X71892Y219961D01*
X71851Y219898D01*
X71807Y219838D01*
X71759Y219779D01*
X71709Y219724D01*
X71655Y219670D01*
X71600Y219620D01*
X71541Y219572D01*
X71481Y219528D01*
X71418Y219487D01*
X71353Y219448D01*
X71287Y219414D01*
X71218Y219382D01*
X71148Y219354D01*
X71077Y219330D01*
X71005Y219309D01*
X70932Y219292D01*
X70858Y219279D01*
X70783Y219270D01*
X70708Y219264D01*
X70633Y219262D01*
X70558Y219264D01*
X70483Y219270D01*
X70408Y219279D01*
X70334Y219292D01*
X70261Y219309D01*
X70189Y219330D01*
X70118Y219354D01*
X70048Y219382D01*
X69979Y219414D01*
X69913Y219448D01*
X69848Y219487D01*
X69785Y219528D01*
X69725Y219572D01*
X69666Y219620D01*
X69611Y219670D01*
X69557Y219724D01*
X69507Y219779D01*
X69459Y219838D01*
X69415Y219898D01*
X69374Y219961D01*
X69335Y220026D01*
X69301Y220092D01*
X69269Y220161D01*
X69241Y220231D01*
X69217Y220302D01*
X69196Y220374D01*
X69179Y220447D01*
X69166Y220521D01*
X69157Y220596D01*
X69151Y220671D01*
X69149Y220746D01*
X75855Y223713D02*
X75855Y217037D01*
X75855Y223713D02*
X77709Y223713D01*
X77774Y223711D01*
X77838Y223705D01*
X77902Y223696D01*
X77966Y223683D01*
X78028Y223666D01*
X78090Y223646D01*
X78150Y223622D01*
X78209Y223595D01*
X78266Y223564D01*
X78321Y223530D01*
X78374Y223493D01*
X78424Y223453D01*
X78473Y223410D01*
X78519Y223364D01*
X78562Y223315D01*
X78602Y223265D01*
X78639Y223212D01*
X78673Y223157D01*
X78704Y223100D01*
X78731Y223041D01*
X78755Y222981D01*
X78775Y222919D01*
X78792Y222857D01*
X78805Y222793D01*
X78814Y222729D01*
X78820Y222665D01*
X78822Y222600D01*
X78822Y220375D01*
X78820Y220310D01*
X78814Y220246D01*
X78805Y220182D01*
X78792Y220118D01*
X78775Y220056D01*
X78755Y219994D01*
X78731Y219934D01*
X78704Y219875D01*
X78673Y219819D01*
X78639Y219763D01*
X78602Y219710D01*
X78562Y219660D01*
X78519Y219611D01*
X78473Y219565D01*
X78424Y219522D01*
X78374Y219482D01*
X78321Y219445D01*
X78266Y219411D01*
X78209Y219380D01*
X78150Y219353D01*
X78090Y219329D01*
X78028Y219309D01*
X77966Y219292D01*
X77902Y219279D01*
X77838Y219270D01*
X77774Y219264D01*
X77709Y219262D01*
X75855Y219262D01*
X82676Y219262D02*
X82676Y223713D01*
X86014Y223713D01*
X86079Y223711D01*
X86143Y223705D01*
X86207Y223696D01*
X86271Y223683D01*
X86333Y223666D01*
X86395Y223646D01*
X86455Y223622D01*
X86514Y223595D01*
X86571Y223564D01*
X86626Y223530D01*
X86679Y223493D01*
X86729Y223453D01*
X86778Y223410D01*
X86824Y223364D01*
X86867Y223315D01*
X86907Y223265D01*
X86944Y223212D01*
X86978Y223157D01*
X87009Y223100D01*
X87036Y223041D01*
X87060Y222981D01*
X87080Y222919D01*
X87097Y222857D01*
X87110Y222793D01*
X87119Y222729D01*
X87125Y222665D01*
X87127Y222600D01*
X87126Y222600D02*
X87126Y219262D01*
X84901Y219262D02*
X84901Y223713D01*
X92156Y219262D02*
X94011Y219262D01*
X92156Y219262D02*
X92091Y219264D01*
X92027Y219270D01*
X91963Y219279D01*
X91899Y219292D01*
X91837Y219309D01*
X91775Y219329D01*
X91715Y219353D01*
X91656Y219380D01*
X91600Y219411D01*
X91544Y219445D01*
X91491Y219482D01*
X91441Y219522D01*
X91392Y219565D01*
X91346Y219611D01*
X91303Y219660D01*
X91263Y219710D01*
X91226Y219763D01*
X91192Y219819D01*
X91161Y219875D01*
X91134Y219934D01*
X91110Y219994D01*
X91090Y220056D01*
X91073Y220118D01*
X91060Y220182D01*
X91051Y220246D01*
X91045Y220310D01*
X91043Y220375D01*
X91044Y220375D02*
X91044Y222229D01*
X91043Y222229D02*
X91045Y222304D01*
X91051Y222379D01*
X91060Y222454D01*
X91073Y222528D01*
X91090Y222601D01*
X91111Y222673D01*
X91135Y222744D01*
X91163Y222814D01*
X91195Y222883D01*
X91229Y222949D01*
X91268Y223014D01*
X91309Y223077D01*
X91353Y223137D01*
X91401Y223196D01*
X91451Y223251D01*
X91505Y223305D01*
X91560Y223355D01*
X91619Y223403D01*
X91679Y223447D01*
X91742Y223488D01*
X91807Y223527D01*
X91873Y223561D01*
X91942Y223593D01*
X92012Y223621D01*
X92083Y223645D01*
X92155Y223666D01*
X92228Y223683D01*
X92302Y223696D01*
X92377Y223705D01*
X92452Y223711D01*
X92527Y223713D01*
X92602Y223711D01*
X92677Y223705D01*
X92752Y223696D01*
X92826Y223683D01*
X92899Y223666D01*
X92971Y223645D01*
X93042Y223621D01*
X93112Y223593D01*
X93181Y223561D01*
X93247Y223527D01*
X93312Y223488D01*
X93375Y223447D01*
X93435Y223403D01*
X93494Y223355D01*
X93549Y223305D01*
X93603Y223251D01*
X93653Y223196D01*
X93701Y223137D01*
X93745Y223077D01*
X93786Y223014D01*
X93825Y222949D01*
X93859Y222883D01*
X93891Y222814D01*
X93919Y222744D01*
X93943Y222673D01*
X93964Y222601D01*
X93981Y222528D01*
X93994Y222454D01*
X94003Y222379D01*
X94009Y222304D01*
X94011Y222229D01*
X94011Y221487D01*
X91044Y221487D01*
X97686Y219262D02*
X97686Y223713D01*
X99540Y223713D01*
X99605Y223711D01*
X99669Y223705D01*
X99733Y223696D01*
X99797Y223683D01*
X99859Y223666D01*
X99921Y223646D01*
X99981Y223622D01*
X100040Y223595D01*
X100097Y223564D01*
X100152Y223530D01*
X100205Y223493D01*
X100255Y223453D01*
X100304Y223410D01*
X100350Y223364D01*
X100393Y223315D01*
X100433Y223265D01*
X100470Y223212D01*
X100504Y223157D01*
X100535Y223100D01*
X100562Y223041D01*
X100586Y222981D01*
X100606Y222919D01*
X100623Y222857D01*
X100636Y222793D01*
X100645Y222729D01*
X100651Y222665D01*
X100653Y222600D01*
X100653Y219262D01*
X103615Y223713D02*
X105841Y223713D01*
X104357Y225938D02*
X104357Y220375D01*
X104359Y220310D01*
X104365Y220246D01*
X104374Y220182D01*
X104387Y220118D01*
X104404Y220056D01*
X104424Y219994D01*
X104448Y219934D01*
X104475Y219875D01*
X104506Y219819D01*
X104540Y219763D01*
X104577Y219710D01*
X104617Y219660D01*
X104660Y219611D01*
X104706Y219565D01*
X104755Y219522D01*
X104805Y219482D01*
X104858Y219445D01*
X104914Y219411D01*
X104970Y219380D01*
X105029Y219353D01*
X105089Y219329D01*
X105151Y219309D01*
X105213Y219292D01*
X105277Y219279D01*
X105341Y219270D01*
X105405Y219264D01*
X105470Y219262D01*
X105841Y219262D01*
D11*
X96637Y213652D02*
X96552Y213548D01*
X96469Y213441D01*
X96390Y213332D01*
X96314Y213221D01*
X96241Y213107D01*
X96171Y212992D01*
X96105Y212874D01*
X96042Y212755D01*
X95982Y212635D01*
X95925Y212512D01*
X95872Y212388D01*
X95822Y212263D01*
X95776Y212136D01*
X95734Y212008D01*
X95695Y211879D01*
X95660Y211749D01*
X95628Y211618D01*
X95600Y211486D01*
X95576Y211353D01*
X95555Y211220D01*
X95538Y211086D01*
X95525Y210952D01*
X95516Y210818D01*
X95510Y210683D01*
X95508Y210548D01*
X95510Y210413D01*
X95516Y210278D01*
X95525Y210144D01*
X95538Y210010D01*
X95555Y209876D01*
X95576Y209743D01*
X95600Y209610D01*
X95628Y209478D01*
X95660Y209347D01*
X95695Y209217D01*
X95734Y209088D01*
X95776Y208960D01*
X95822Y208833D01*
X95872Y208708D01*
X95925Y208584D01*
X95982Y208461D01*
X96042Y208341D01*
X96105Y208222D01*
X96171Y208104D01*
X96241Y207989D01*
X96314Y207875D01*
X96390Y207764D01*
X96469Y207655D01*
X96552Y207548D01*
X96637Y207444D01*
X100133Y208008D02*
X101262Y208008D01*
X100133Y208008D02*
X100067Y208010D01*
X100002Y208016D01*
X99937Y208025D01*
X99873Y208038D01*
X99809Y208055D01*
X99747Y208076D01*
X99686Y208100D01*
X99626Y208128D01*
X99569Y208159D01*
X99513Y208194D01*
X99459Y208231D01*
X99407Y208272D01*
X99358Y208316D01*
X99312Y208362D01*
X99268Y208411D01*
X99227Y208463D01*
X99190Y208517D01*
X99155Y208573D01*
X99124Y208630D01*
X99096Y208690D01*
X99072Y208751D01*
X99051Y208813D01*
X99034Y208877D01*
X99021Y208941D01*
X99012Y209006D01*
X99006Y209071D01*
X99004Y209137D01*
X99004Y211959D01*
X99006Y212025D01*
X99012Y212090D01*
X99021Y212155D01*
X99034Y212219D01*
X99051Y212283D01*
X99072Y212345D01*
X99096Y212406D01*
X99124Y212466D01*
X99155Y212523D01*
X99190Y212579D01*
X99227Y212633D01*
X99268Y212685D01*
X99312Y212734D01*
X99358Y212780D01*
X99407Y212824D01*
X99459Y212865D01*
X99513Y212902D01*
X99568Y212937D01*
X99626Y212968D01*
X99686Y212996D01*
X99747Y213020D01*
X99809Y213041D01*
X99873Y213058D01*
X99937Y213071D01*
X100002Y213080D01*
X100067Y213086D01*
X100133Y213088D01*
X101262Y213088D01*
X104457Y210548D02*
X104455Y210413D01*
X104449Y210278D01*
X104440Y210144D01*
X104427Y210010D01*
X104410Y209876D01*
X104389Y209743D01*
X104365Y209610D01*
X104337Y209478D01*
X104305Y209347D01*
X104270Y209217D01*
X104231Y209088D01*
X104189Y208960D01*
X104143Y208833D01*
X104093Y208708D01*
X104040Y208584D01*
X103983Y208461D01*
X103923Y208341D01*
X103860Y208222D01*
X103794Y208104D01*
X103724Y207989D01*
X103651Y207875D01*
X103575Y207764D01*
X103496Y207655D01*
X103413Y207548D01*
X103328Y207444D01*
X104457Y210548D02*
X104455Y210683D01*
X104449Y210818D01*
X104440Y210952D01*
X104427Y211086D01*
X104410Y211220D01*
X104389Y211353D01*
X104365Y211486D01*
X104337Y211618D01*
X104305Y211749D01*
X104270Y211879D01*
X104231Y212008D01*
X104189Y212136D01*
X104143Y212263D01*
X104093Y212388D01*
X104040Y212512D01*
X103983Y212635D01*
X103923Y212755D01*
X103860Y212874D01*
X103794Y212992D01*
X103724Y213107D01*
X103651Y213221D01*
X103575Y213332D01*
X103496Y213441D01*
X103413Y213548D01*
X103328Y213652D01*
X111553Y213088D02*
X111622Y213086D01*
X111690Y213081D01*
X111758Y213071D01*
X111826Y213058D01*
X111893Y213042D01*
X111959Y213022D01*
X112023Y212998D01*
X112086Y212971D01*
X112148Y212940D01*
X112208Y212906D01*
X112266Y212869D01*
X112322Y212829D01*
X112375Y212786D01*
X112426Y212740D01*
X112475Y212691D01*
X112521Y212640D01*
X112564Y212587D01*
X112604Y212531D01*
X112641Y212473D01*
X112675Y212413D01*
X112706Y212351D01*
X112733Y212288D01*
X112757Y212224D01*
X112777Y212158D01*
X112793Y212091D01*
X112806Y212023D01*
X112816Y211955D01*
X112821Y211887D01*
X112823Y211818D01*
X111553Y213088D02*
X111474Y213086D01*
X111395Y213080D01*
X111317Y213071D01*
X111239Y213058D01*
X111162Y213041D01*
X111086Y213020D01*
X111011Y212995D01*
X110937Y212967D01*
X110865Y212936D01*
X110794Y212901D01*
X110725Y212862D01*
X110658Y212821D01*
X110593Y212776D01*
X110530Y212728D01*
X110470Y212677D01*
X110412Y212623D01*
X110357Y212567D01*
X110305Y212508D01*
X110256Y212446D01*
X110209Y212382D01*
X110166Y212316D01*
X110126Y212248D01*
X110089Y212178D01*
X110056Y212106D01*
X110027Y212033D01*
X110000Y211959D01*
X112400Y210830D02*
X112448Y210879D01*
X112495Y210930D01*
X112538Y210984D01*
X112579Y211040D01*
X112617Y211097D01*
X112652Y211157D01*
X112684Y211218D01*
X112713Y211281D01*
X112738Y211345D01*
X112761Y211410D01*
X112780Y211477D01*
X112795Y211544D01*
X112807Y211612D01*
X112816Y211680D01*
X112821Y211749D01*
X112823Y211818D01*
X112400Y210830D02*
X110001Y208008D01*
X112823Y208008D01*
X115488Y210548D02*
X115490Y210675D01*
X115496Y210801D01*
X115505Y210927D01*
X115519Y211053D01*
X115536Y211178D01*
X115557Y211303D01*
X115581Y211427D01*
X115610Y211551D01*
X115642Y211673D01*
X115678Y211795D01*
X115717Y211915D01*
X115761Y212034D01*
X115807Y212151D01*
X115858Y212268D01*
X115911Y212382D01*
X115911Y212383D02*
X115933Y212440D01*
X115958Y212497D01*
X115987Y212551D01*
X116018Y212604D01*
X116053Y212655D01*
X116090Y212704D01*
X116131Y212751D01*
X116174Y212795D01*
X116219Y212837D01*
X116267Y212875D01*
X116318Y212911D01*
X116370Y212944D01*
X116424Y212974D01*
X116480Y213000D01*
X116537Y213023D01*
X116595Y213043D01*
X116655Y213059D01*
X116715Y213072D01*
X116776Y213081D01*
X116837Y213086D01*
X116899Y213088D01*
X116961Y213086D01*
X117022Y213081D01*
X117083Y213072D01*
X117143Y213059D01*
X117203Y213043D01*
X117261Y213023D01*
X117319Y213000D01*
X117374Y212974D01*
X117428Y212944D01*
X117480Y212911D01*
X117531Y212875D01*
X117579Y212836D01*
X117624Y212795D01*
X117667Y212751D01*
X117708Y212704D01*
X117745Y212655D01*
X117780Y212604D01*
X117811Y212551D01*
X117840Y212497D01*
X117865Y212440D01*
X117887Y212383D01*
X117887Y212382D02*
X117940Y212268D01*
X117991Y212152D01*
X118037Y212034D01*
X118081Y211915D01*
X118120Y211795D01*
X118156Y211673D01*
X118188Y211551D01*
X118217Y211428D01*
X118241Y211303D01*
X118262Y211179D01*
X118279Y211053D01*
X118293Y210927D01*
X118302Y210801D01*
X118308Y210675D01*
X118310Y210548D01*
X115487Y210548D02*
X115489Y210421D01*
X115495Y210295D01*
X115504Y210169D01*
X115518Y210043D01*
X115535Y209917D01*
X115556Y209793D01*
X115580Y209668D01*
X115609Y209545D01*
X115641Y209423D01*
X115677Y209301D01*
X115716Y209181D01*
X115760Y209062D01*
X115806Y208944D01*
X115857Y208828D01*
X115910Y208713D01*
X115911Y208713D02*
X115933Y208656D01*
X115958Y208599D01*
X115987Y208545D01*
X116018Y208492D01*
X116053Y208441D01*
X116090Y208392D01*
X116131Y208345D01*
X116174Y208301D01*
X116219Y208259D01*
X116267Y208221D01*
X116318Y208185D01*
X116370Y208152D01*
X116424Y208122D01*
X116480Y208096D01*
X116537Y208073D01*
X116595Y208053D01*
X116655Y208037D01*
X116715Y208024D01*
X116776Y208015D01*
X116837Y208010D01*
X116899Y208008D01*
X117886Y208714D02*
X117939Y208828D01*
X117990Y208944D01*
X118036Y209062D01*
X118080Y209181D01*
X118119Y209301D01*
X118155Y209423D01*
X118187Y209545D01*
X118216Y209669D01*
X118240Y209793D01*
X118261Y209917D01*
X118278Y210043D01*
X118292Y210169D01*
X118301Y210295D01*
X118307Y210421D01*
X118309Y210548D01*
X117887Y208713D02*
X117865Y208656D01*
X117840Y208599D01*
X117811Y208545D01*
X117780Y208492D01*
X117745Y208441D01*
X117708Y208392D01*
X117667Y208345D01*
X117624Y208301D01*
X117579Y208259D01*
X117531Y208221D01*
X117480Y208185D01*
X117428Y208152D01*
X117374Y208122D01*
X117318Y208096D01*
X117261Y208073D01*
X117203Y208053D01*
X117143Y208037D01*
X117083Y208024D01*
X117022Y208015D01*
X116961Y208010D01*
X116899Y208008D01*
X115770Y209137D02*
X118028Y211959D01*
X122526Y213088D02*
X122595Y213086D01*
X122663Y213081D01*
X122731Y213071D01*
X122799Y213058D01*
X122866Y213042D01*
X122932Y213022D01*
X122996Y212998D01*
X123059Y212971D01*
X123121Y212940D01*
X123181Y212906D01*
X123239Y212869D01*
X123295Y212829D01*
X123348Y212786D01*
X123399Y212740D01*
X123448Y212691D01*
X123494Y212640D01*
X123537Y212587D01*
X123577Y212531D01*
X123614Y212473D01*
X123648Y212413D01*
X123679Y212351D01*
X123706Y212288D01*
X123730Y212224D01*
X123750Y212158D01*
X123766Y212091D01*
X123779Y212023D01*
X123789Y211955D01*
X123794Y211887D01*
X123796Y211818D01*
X122526Y213088D02*
X122447Y213086D01*
X122368Y213080D01*
X122290Y213071D01*
X122212Y213058D01*
X122135Y213041D01*
X122059Y213020D01*
X121984Y212995D01*
X121910Y212967D01*
X121838Y212936D01*
X121767Y212901D01*
X121698Y212862D01*
X121631Y212821D01*
X121566Y212776D01*
X121503Y212728D01*
X121443Y212677D01*
X121385Y212623D01*
X121330Y212567D01*
X121278Y212508D01*
X121229Y212446D01*
X121182Y212382D01*
X121139Y212316D01*
X121099Y212248D01*
X121062Y212178D01*
X121029Y212106D01*
X121000Y212033D01*
X120973Y211959D01*
X123373Y210830D02*
X123421Y210879D01*
X123468Y210930D01*
X123511Y210984D01*
X123552Y211040D01*
X123590Y211097D01*
X123625Y211157D01*
X123657Y211218D01*
X123686Y211281D01*
X123711Y211345D01*
X123734Y211410D01*
X123753Y211477D01*
X123768Y211544D01*
X123780Y211612D01*
X123789Y211680D01*
X123794Y211749D01*
X123796Y211818D01*
X123373Y210830D02*
X120974Y208008D01*
X123796Y208008D01*
X126461Y210548D02*
X126463Y210675D01*
X126469Y210801D01*
X126478Y210927D01*
X126492Y211053D01*
X126509Y211178D01*
X126530Y211303D01*
X126554Y211427D01*
X126583Y211551D01*
X126615Y211673D01*
X126651Y211795D01*
X126690Y211915D01*
X126734Y212034D01*
X126780Y212151D01*
X126831Y212268D01*
X126884Y212382D01*
X126883Y212383D02*
X126905Y212440D01*
X126930Y212497D01*
X126959Y212551D01*
X126990Y212604D01*
X127025Y212655D01*
X127062Y212704D01*
X127103Y212751D01*
X127146Y212795D01*
X127191Y212837D01*
X127239Y212875D01*
X127290Y212911D01*
X127342Y212944D01*
X127396Y212974D01*
X127452Y213000D01*
X127509Y213023D01*
X127567Y213043D01*
X127627Y213059D01*
X127687Y213072D01*
X127748Y213081D01*
X127809Y213086D01*
X127871Y213088D01*
X127933Y213086D01*
X127994Y213081D01*
X128055Y213072D01*
X128115Y213059D01*
X128175Y213043D01*
X128233Y213023D01*
X128291Y213000D01*
X128346Y212974D01*
X128400Y212944D01*
X128452Y212911D01*
X128503Y212875D01*
X128551Y212836D01*
X128596Y212795D01*
X128639Y212751D01*
X128680Y212704D01*
X128717Y212655D01*
X128752Y212604D01*
X128783Y212551D01*
X128812Y212497D01*
X128837Y212440D01*
X128859Y212383D01*
X128859Y212382D02*
X128912Y212268D01*
X128963Y212152D01*
X129009Y212034D01*
X129053Y211915D01*
X129092Y211795D01*
X129128Y211673D01*
X129160Y211551D01*
X129189Y211428D01*
X129213Y211303D01*
X129234Y211179D01*
X129251Y211053D01*
X129265Y210927D01*
X129274Y210801D01*
X129280Y210675D01*
X129282Y210548D01*
X126460Y210548D02*
X126462Y210421D01*
X126468Y210295D01*
X126477Y210169D01*
X126491Y210043D01*
X126508Y209917D01*
X126529Y209793D01*
X126553Y209668D01*
X126582Y209545D01*
X126614Y209423D01*
X126650Y209301D01*
X126689Y209181D01*
X126733Y209062D01*
X126779Y208944D01*
X126830Y208828D01*
X126883Y208713D01*
X126905Y208656D01*
X126930Y208599D01*
X126959Y208545D01*
X126990Y208492D01*
X127025Y208441D01*
X127062Y208392D01*
X127103Y208345D01*
X127146Y208301D01*
X127191Y208259D01*
X127239Y208221D01*
X127290Y208185D01*
X127342Y208152D01*
X127396Y208122D01*
X127452Y208096D01*
X127509Y208073D01*
X127567Y208053D01*
X127627Y208037D01*
X127687Y208024D01*
X127748Y208015D01*
X127809Y208010D01*
X127871Y208008D01*
X128859Y208714D02*
X128912Y208828D01*
X128963Y208944D01*
X129009Y209062D01*
X129053Y209181D01*
X129092Y209301D01*
X129128Y209423D01*
X129160Y209545D01*
X129189Y209669D01*
X129213Y209793D01*
X129234Y209917D01*
X129251Y210043D01*
X129265Y210169D01*
X129274Y210295D01*
X129280Y210421D01*
X129282Y210548D01*
X128859Y208713D02*
X128837Y208656D01*
X128812Y208599D01*
X128783Y208545D01*
X128752Y208492D01*
X128717Y208441D01*
X128680Y208392D01*
X128639Y208345D01*
X128596Y208301D01*
X128551Y208259D01*
X128503Y208221D01*
X128452Y208185D01*
X128400Y208152D01*
X128346Y208122D01*
X128290Y208096D01*
X128233Y208073D01*
X128175Y208053D01*
X128115Y208037D01*
X128055Y208024D01*
X127994Y208015D01*
X127933Y208010D01*
X127871Y208008D01*
X126743Y209137D02*
X129000Y211959D01*
D12*
X115000Y228500D02*
X115000Y394500D01*
X173000Y394500D02*
X173000Y372100D01*
X173000Y251400D02*
X173000Y228500D01*
X173000Y394500D02*
X162000Y394500D01*
X161000Y228500D02*
X173000Y228500D01*
X138000Y228500D02*
X115000Y228500D01*
X115000Y394500D02*
X138000Y394500D01*
D13*
X162254Y366694D02*
X163496Y365142D01*
X162254Y366694D02*
X167842Y366694D01*
X167842Y365142D02*
X167842Y368246D01*
D14*
X56000Y200000D02*
X54000Y200000D01*
X54000Y185000D02*
X56000Y185000D01*
D15*
X39000Y197500D03*
D16*
X38938Y197498D01*
X38877Y197492D01*
X38816Y197483D01*
X38756Y197470D01*
X38697Y197453D01*
X38639Y197432D01*
X38582Y197408D01*
X38527Y197381D01*
X38474Y197350D01*
X38422Y197316D01*
X38373Y197279D01*
X38326Y197239D01*
X38282Y197196D01*
X38241Y197151D01*
X38202Y197103D01*
X38166Y197052D01*
X38134Y197000D01*
X38105Y196946D01*
X38079Y196890D01*
X38057Y196832D01*
X38038Y196774D01*
X38023Y196714D01*
X38012Y196653D01*
X38004Y196592D01*
X38000Y196531D01*
X38000Y196469D01*
X38004Y196408D01*
X38012Y196347D01*
X38023Y196286D01*
X38038Y196226D01*
X38057Y196168D01*
X38079Y196110D01*
X38105Y196054D01*
X38134Y196000D01*
X38166Y195948D01*
X38202Y195897D01*
X38241Y195849D01*
X38282Y195804D01*
X38326Y195761D01*
X38373Y195721D01*
X38422Y195684D01*
X38474Y195650D01*
X38527Y195619D01*
X38582Y195592D01*
X38639Y195568D01*
X38697Y195547D01*
X38756Y195530D01*
X38816Y195517D01*
X38877Y195508D01*
X38938Y195502D01*
X39000Y195500D01*
D15*
X39000Y195500D03*
D16*
X39062Y195502D01*
X39123Y195508D01*
X39184Y195517D01*
X39244Y195530D01*
X39303Y195547D01*
X39361Y195568D01*
X39418Y195592D01*
X39473Y195619D01*
X39526Y195650D01*
X39578Y195684D01*
X39627Y195721D01*
X39674Y195761D01*
X39718Y195804D01*
X39759Y195849D01*
X39798Y195897D01*
X39834Y195948D01*
X39866Y196000D01*
X39895Y196054D01*
X39921Y196110D01*
X39943Y196168D01*
X39962Y196226D01*
X39977Y196286D01*
X39988Y196347D01*
X39996Y196408D01*
X40000Y196469D01*
X40000Y196531D01*
X39996Y196592D01*
X39988Y196653D01*
X39977Y196714D01*
X39962Y196774D01*
X39943Y196832D01*
X39921Y196890D01*
X39895Y196946D01*
X39866Y197000D01*
X39834Y197052D01*
X39798Y197103D01*
X39759Y197151D01*
X39718Y197196D01*
X39674Y197239D01*
X39627Y197279D01*
X39578Y197316D01*
X39526Y197350D01*
X39473Y197381D01*
X39418Y197408D01*
X39361Y197432D01*
X39303Y197453D01*
X39244Y197470D01*
X39184Y197483D01*
X39123Y197492D01*
X39062Y197498D01*
X39000Y197500D01*
M02*
